<?xml version="1.0" encoding="UTF-8"?>
<svg id="Layer_2" data-name="Layer 2" xmlns="http://www.w3.org/2000/svg" viewBox="0 0 301.48 141.73">
  <defs>
    <style>
      .cls-1 {
        fill: #fff;
      }

      .cls-1, .cls-2 {
        stroke-width: 0px;
      }

      .cls-2 {
        fill: #e5e5e5;
      }
    </style>
  </defs>
  <g id="Layer_1-2" data-name="Layer 1">
    <g>
      <g>
        <path class="cls-2" d="m114.86,0c-.18,2.05-.45,5.29-.69,9.27-.39,6.41-.3,8.03-.69,12.36-.52,5.82-.78,8.73-1.72,11.68-1.98,6.23-5.4,10.38-6.87,12.02-1.55,1.73-5.68,6.23-12.36,8.59-1.71.6-3.06.88-5.49,1.37-2.71.55-5.18.88-11.68,1.37-7.01.53-10.65.51-10.65.69,0,.17,3.55.35,10.65.69,5.73.28,8.09.35,11.68,1.03,2.12.4,3.57.68,5.49,1.37,5.18,1.87,8.48,4.85,10.3,6.53,3.48,3.21,5.45,6.34,6.18,7.56.9,1.52,2.68,4.77,3.78,9.27.45,1.86.64,3.87,1.03,7.9.09.92.31,3.3.69,10.3.16,2.88.27,5.25.34,6.87V0Z"/>
        <path class="cls-2" d="m114.86,0c.19,2.05.46,5.29.71,9.27.4,6.41.31,8.03.71,12.36.54,5.82.81,8.73,1.78,11.68,2.04,6.23,5.59,10.38,7.1,12.02,1.61,1.73,5.87,6.23,12.79,8.59,1.77.6,3.16.88,5.68,1.37,2.8.55,5.35.88,12.08,1.37,7.25.53,11.01.51,11.01.69,0,.17-3.67.35-11.01.69-5.93.28-8.37.35-12.08,1.03-2.19.4-3.7.68-5.68,1.37-5.36,1.87-8.77,4.85-10.66,6.53-3.6,3.21-5.64,6.34-6.39,7.56-.94,1.52-2.77,4.77-3.91,9.27-.47,1.86-.67,3.87-1.07,7.9-.09.92-.32,3.3-.71,10.3-.16,2.88-.28,5.25-.36,6.87V0Z"/>
      </g>
      <g>
        <path class="cls-2" d="m30.86,72.87c-.11,1.26-.28,3.25-.42,5.71-.24,3.95-.18,4.94-.42,7.61-.32,3.58-.48,5.37-1.06,7.19-1.22,3.83-3.32,6.39-4.23,7.4-.96,1.07-3.49,3.83-7.61,5.28-1.05.37-1.88.54-3.38.85-1.66.34-3.18.54-7.19.85C2.24,108.07,0,108.05,0,108.17c0,.11,2.18.21,6.55.42,3.53.17,4.98.21,7.19.63,1.31.25,2.2.42,3.38.85,3.19,1.15,5.22,2.98,6.34,4.02,2.14,1.97,3.36,3.9,3.8,4.65.56.93,1.65,2.93,2.32,5.71.28,1.14.4,2.38.63,4.86.05.56.19,2.03.42,6.34.1,1.77.17,3.23.21,4.23v-67Z"/>
        <path class="cls-2" d="m30.86,72.87c.12,1.26.28,3.25.44,5.71.25,3.95.19,4.94.44,7.61.33,3.58.5,5.37,1.09,7.19,1.26,3.83,3.44,6.39,4.37,7.4.99,1.07,3.61,3.83,7.87,5.28,1.09.37,1.95.54,3.5.85,1.72.34,3.29.54,7.43.85,4.46.33,6.78.31,6.78.42,0,.11-2.26.21-6.78.42-3.65.17-5.15.21-7.43.63-1.35.25-2.27.42-3.5.85-3.3,1.15-5.4,2.98-6.56,4.02-2.21,1.97-3.47,3.9-3.93,4.65-.58.93-1.71,2.93-2.4,5.71-.29,1.14-.41,2.38-.66,4.86-.06.56-.2,2.03-.44,6.34-.1,1.77-.17,3.23-.22,4.23v-67Z"/>
      </g>
      <path class="cls-1" d="m143.94,40.37c38.37.81,140.94,9.02,156.51,49.41,5.42,16.35-11.61,27.93-24.61,33.35-21.8,9.13-45.44,12.93-68.65,15.61-18.61,2.02-37.32,2.95-56.03,2.99-37.38.05-74.78-3.18-111.39-10.43,0,0,.18-.98.18-.98,36.77,5.7,73.99,7.91,111.17,7.23,36.88-1.01,74.3-3.85,109.78-14.48,19.06-5.94,49.85-20.15,27.64-42.22-20.68-19.79-61.44-27.95-89.26-32.87-13.74-2.31-27.59-4.13-41.47-5.42-4.63-.45-9.27-.87-13.91-1.2,0,0,.04-1,.04-1h0Z"/>
    </g>
  </g>
</svg>