<?xml version="1.0" encoding="UTF-8"?>
<svg id="Layer_2" data-name="Layer 2" xmlns="http://www.w3.org/2000/svg" viewBox="0 0 122.63 112.87">
  <defs>
    <style>
      .cls-1 {
        fill: #e5e5e5;
        stroke-width: 0px;
      }
    </style>
  </defs>
  <g id="Layer_1-2" data-name="Layer 1">
    <g>
      <path class="cls-1" d="m50.14,0c-.18,2.05-.45,5.29-.69,9.27-.39,6.41-.3,8.03-.69,12.36-.52,5.82-.78,8.73-1.72,11.68-1.98,6.23-5.4,10.38-6.87,12.02-1.55,1.73-5.68,6.23-12.36,8.59-1.71.6-3.06.88-5.49,1.37-2.71.55-5.18.88-11.68,1.37C3.63,57.2,0,57.17,0,57.35c0,.17,3.55.35,10.65.69,5.73.28,8.09.35,11.68,1.03,2.12.4,3.57.68,5.49,1.37,5.18,1.87,8.48,4.85,10.3,6.53,3.48,3.21,5.45,6.34,6.18,7.56.9,1.52,2.68,4.77,3.78,9.27.45,1.86.64,3.87,1.03,7.9.09.92.31,3.3.69,10.3.16,2.88.27,5.25.34,6.87V0Z"/>
      <path class="cls-1" d="m50.14,0c.19,2.05.46,5.29.71,9.27.4,6.41.31,8.03.71,12.36.54,5.82.81,8.73,1.78,11.68,2.04,6.23,5.59,10.38,7.1,12.02,1.61,1.73,5.87,6.23,12.79,8.59,1.77.6,3.16.88,5.68,1.37,2.8.55,5.35.88,12.08,1.37,7.25.53,11.01.51,11.01.69,0,.17-3.67.35-11.01.69-5.93.28-8.37.35-12.08,1.03-2.19.4-3.7.68-5.68,1.37-5.36,1.87-8.77,4.85-10.66,6.53-3.6,3.21-5.64,6.34-6.39,7.56-.94,1.52-2.77,4.77-3.91,9.27-.47,1.86-.67,3.87-1.07,7.9-.09.92-.32,3.3-.71,10.3-.16,2.88-.28,5.25-.36,6.87V0Z"/>
    </g>
    <g>
      <path class="cls-1" d="m92.14,48.87c-.11,1.21-.26,3.11-.4,5.45-.23,3.77-.18,4.72-.4,7.27-.31,3.42-.46,5.13-1.01,6.86-1.16,3.66-3.18,6.1-4.04,7.07-.91,1.02-3.34,3.66-7.27,5.05-1.01.35-1.8.52-3.23.81-1.59.32-3.04.52-6.86.81-4.12.31-6.26.3-6.26.4,0,.1,2.09.2,6.26.4,3.37.16,4.76.2,6.86.61,1.25.24,2.1.4,3.23.81,3.05,1.1,4.99,2.85,6.06,3.84,2.05,1.88,3.21,3.73,3.63,4.44.53.89,1.58,2.8,2.22,5.45.27,1.09.38,2.28.61,4.64.05.54.18,1.94.4,6.06.09,1.69.16,3.09.2,4.04V48.87Z"/>
      <path class="cls-1" d="m92.14,48.87c.11,1.21.27,3.11.42,5.45.23,3.77.18,4.72.42,7.27.32,3.42.47,5.13,1.04,6.86,1.2,3.66,3.28,6.1,4.18,7.07.95,1.02,3.45,3.66,7.52,5.05,1.04.35,1.86.52,3.34.81,1.64.32,3.15.52,7.1.81,4.26.31,6.47.3,6.47.4,0,.1-2.16.2-6.47.4-3.49.16-4.92.2-7.1.61-1.29.24-2.17.4-3.34.81-3.15,1.1-5.16,2.85-6.26,3.84-2.12,1.88-3.32,3.73-3.76,4.44-.55.89-1.63,2.8-2.3,5.45-.27,1.09-.39,2.28-.63,4.64-.05.54-.19,1.94-.42,6.06-.09,1.69-.16,3.09-.21,4.04V48.87Z"/>
    </g>
  </g>
</svg>