<?xml version="1.0" encoding="UTF-8"?><svg id="Layer_2" xmlns="http://www.w3.org/2000/svg" width="120.22" height="110.63" viewBox="0 0 120.22 110.63"><defs><style>.cls-1{fill:#e5e5e5;stroke-width:0px;}</style></defs><g id="Layer_1-2"><path class="cls-1" d="M89.8,55.57c-.02.47-.04.88-.05,1.27h0c-.19,0-.37.02-.56.03-5.81.27-8.21.34-11.84,1.01-2.15.39-3.63.67-5.57,1.34-5.25,1.83-8.6,4.75-10.45,6.4-3.53,3.15-5.53,6.22-6.26,7.41-.92,1.49-2.72,4.68-3.83,9.09-.46,1.82-.66,3.79-1.05,7.74-.09.9-.31,3.23-.7,10.1-.15,2.71-.26,4.95-.34,6.53v.1s0-.06,0-.1c-.07-1.58-.18-3.82-.32-6.53-.37-6.86-.59-9.2-.68-10.1-.38-3.95-.57-5.92-1.01-7.74-1.08-4.41-2.82-7.6-3.71-9.09-.72-1.2-2.65-4.26-6.06-7.41-1.78-1.65-5.02-4.57-10.1-6.4-1.88-.68-3.3-.95-5.38-1.34-3.52-.67-5.83-.74-11.45-1.01-6.96-.33-10.44-.51-10.44-.68,0-.18,3.56-.15,10.43-.68,6.37-.48,8.79-.8,11.45-1.34,2.38-.48,3.71-.75,5.38-1.34,6.55-2.31,10.6-6.72,12.12-8.42,1.44-1.61,4.79-5.68,6.73-11.78.92-2.89,1.18-5.74,1.69-11.45.38-4.24.29-5.83.68-12.12.24-3.82.49-6.95.67-8.96,0-.05,0-.09,0-.13.19,2.01.45,5.19.7,9.09.39,6.28.3,7.87.7,12.12.53,5.71.79,8.56,1.74,11.45,2,6.11,5.48,10.18,6.96,11.78,1.58,1.7,5.75,6.11,12.54,8.42,1.74.59,3.1.86,5.57,1.34,2.74.54,5.24.86,11.84,1.34.21.02.41.03.61.05Z"/><path class="cls-1" d="M49.14,106.5s0,.07,0,.1c0,.04,0,.08,0,.11v-.21Z"/><path class="cls-1" d="M49.14-.02h0s0,.08,0,.13V-.02Z"/><path class="cls-1" d="M99.99,56.2c0,.16-3.02.31-9.07.6-.2,0-.39.02-.6.03-.19,0-.37,0-.57.02,0-.39.03-.8.05-1.27.18,0,.35.02.52.03.19,0,.36.03.54.03,6.02.41,9.13.4,9.13.57Z"/><path class="cls-1" d="M120.21,80.94c0,.1-2.12.2-6.34.39-3.42.16-4.82.2-6.96.6-1.26.24-2.13.39-3.27.79-3.09,1.08-5.06,2.79-6.14,3.76-2.08,1.84-3.25,3.66-3.69,4.35-.54.87-1.6,2.74-2.25,5.34-.26,1.07-.38,2.24-.62,4.55-.05.53-.19,1.9-.41,5.94-.09,1.66-.16,3.03-.21,3.96-.04-.93-.11-2.3-.2-3.96-.22-4.04-.34-5.41-.39-5.94-.23-2.31-.33-3.48-.6-4.55-.63-2.6-1.66-4.47-2.18-5.34-.41-.7-1.55-2.51-3.56-4.35-1.05-.97-2.95-2.69-5.94-3.76-1.11-.4-1.94-.56-3.17-.79-2.06-.4-3.42-.44-6.72-.6-4.09-.2-6.14-.29-6.14-.39s2.1-.09,6.14-.39c3.74-.28,5.17-.48,6.72-.79,1.4-.28,2.18-.45,3.17-.79,3.85-1.36,6.23-3.95,7.13-4.95.84-.95,2.82-3.34,3.96-6.93.54-1.7.69-3.37.99-6.72.12-1.4.16-2.31.22-3.5h0c.2-.02.38-.02.57-.03.21,0,.4-.02.6-.03.05,1.22.09,2.13.23,3.56.31,3.35.46,5.03,1.02,6.72,1.18,3.59,3.22,5.98,4.1,6.93.93,1,3.38,3.59,7.37,4.95,1.02.34,1.82.51,3.27.79,1.61.31,3.09.51,6.96.79,4.18.3,6.34.29,6.34.39Z"/><path class="cls-1" d="M90.32,47.88v8.94c-.19,0-.37,0-.57.02,0-.39.03-.8.05-1.27.03-.65.07-1.41.13-2.34.14-2.29.28-4.16.39-5.34Z"/><path class="cls-1" d="M90.92,56.79c-.2,0-.39.02-.6.03v-8.94c.11,1.19.26,3.05.41,5.34.06.96.1,1.74.13,2.4.03.43.04.8.06,1.17Z"/></g></svg>