<?xml version="1.0" encoding="UTF-8"?>
<svg id="Layer_2" data-name="Layer 2" xmlns="http://www.w3.org/2000/svg" viewBox="0 0 57 57">
  <defs>
    <style>
      .cls-1 {
        fill: #faf5c3;
        fill-rule: evenodd;
        stroke-width: 0px;
      }
    </style>
  </defs>
  <g id="Layer_1-2" data-name="Layer 1">
    <path class="cls-1" d="m0,11.4c0-3.02,1.2-5.92,3.34-8.06C5.48,1.2,8.38,0,11.4,0h34.2c3.02,0,5.92,1.2,8.06,3.34,2.14,2.14,3.34,5.04,3.34,8.06v34.2c0,3.02-1.2,5.92-3.34,8.06-2.14,2.14-5.04,3.34-8.06,3.34H11.4c-3.02,0-5.92-1.2-8.06-3.34-2.14-2.14-3.34-5.04-3.34-8.06V11.4Zm11.4-5.7c-1.51,0-2.96.6-4.03,1.67-1.07,1.07-1.67,2.52-1.67,4.03v34.2c0,1.51.6,2.96,1.67,4.03,1.07,1.07,2.52,1.67,4.03,1.67h17.1v-19.95h-2.85c-.76,0-1.48-.3-2.02-.83-.53-.53-.83-1.26-.83-2.02s.3-1.48.83-2.02c.54-.53,1.26-.83,2.02-.83h2.85v-4.27c0-2.65,1.05-5.18,2.92-7.05,1.87-1.87,4.41-2.92,7.05-2.92h1.71c.76,0,1.48.3,2.01.83.54.53.83,1.26.83,2.02s-.3,1.48-.83,2.02c-.53.53-1.26.83-2.01.83h-1.71c-.56,0-1.12.11-1.64.33-.52.21-.99.53-1.39.93-.4.4-.71.87-.93,1.39-.21.52-.33,1.07-.33,1.64v4.27h5.99c.76,0,1.48.3,2.01.83.54.53.83,1.26.83,2.02s-.3,1.48-.83,2.02c-.53.53-1.26.83-2.01.83h-5.99v19.95h11.4c1.51,0,2.96-.6,4.03-1.67,1.07-1.07,1.67-2.52,1.67-4.03V11.4c0-1.51-.6-2.96-1.67-4.03-1.07-1.07-2.52-1.67-4.03-1.67H11.4Z"/>
  </g>
</svg>