<?xml version="1.0" encoding="UTF-8"?>
<svg id="Layer_2" data-name="Layer 2" xmlns="http://www.w3.org/2000/svg" viewBox="0 0 57 57">
  <defs>
    <style>
      .cls-1 {
        fill: #faf5c3;
        fill-rule: evenodd;
        stroke-width: 0px;
      }
    </style>
  </defs>
  <g id="Layer_1-2" data-name="Layer 1">
    <path class="cls-1" d="m0,11.4c0-3.02,1.2-5.92,3.34-8.06S8.38,0,11.4,0h34.2c3.02,0,5.92,1.2,8.06,3.34,2.14,2.14,3.34,5.04,3.34,8.06v34.2c0,3.02-1.2,5.92-3.34,8.06-2.14,2.14-5.04,3.34-8.06,3.34H11.4c-3.02,0-5.92-1.2-8.06-3.34-2.14-2.14-3.34-5.04-3.34-8.06V11.4Zm11.4-5.7c-1.51,0-2.96.6-4.03,1.67-1.07,1.07-1.67,2.52-1.67,4.03v34.2c0,1.51.6,2.96,1.67,4.03,1.07,1.07,2.52,1.67,4.03,1.67h34.2c1.51,0,2.96-.6,4.03-1.67,1.07-1.07,1.67-2.52,1.67-4.03V11.4c0-1.51-.6-2.96-1.67-4.03-1.07-1.07-2.52-1.67-4.03-1.67H11.4Zm17.1,14.25c-2.27,0-4.44.9-6.05,2.5-1.6,1.6-2.5,3.78-2.5,6.05s.9,4.44,2.5,6.05c1.6,1.6,3.78,2.5,6.05,2.5s4.44-.9,6.05-2.5c1.6-1.6,2.5-3.78,2.5-6.05s-.9-4.44-2.5-6.05c-1.6-1.6-3.78-2.5-6.05-2.5Zm-14.25,8.55c0-3.78,1.5-7.4,4.17-10.08,2.67-2.67,6.3-4.17,10.08-4.17s7.4,1.5,10.08,4.17c2.67,2.67,4.17,6.3,4.17,10.08s-1.5,7.4-4.17,10.08c-2.67,2.67-6.3,4.17-10.08,4.17s-7.4-1.5-10.08-4.17c-2.67-2.67-4.17-6.3-4.17-10.08Zm29.92-11.4c1.13,0,2.22-.45,3.02-1.25.8-.8,1.25-1.89,1.25-3.02s-.45-2.22-1.25-3.02c-.8-.8-1.89-1.25-3.02-1.25s-2.22.45-3.02,1.25c-.8.8-1.25,1.89-1.25,3.02s.45,2.22,1.25,3.02c.8.8,1.89,1.25,3.02,1.25Z"/>
  </g>
</svg>