<?xml version="1.0" encoding="UTF-8"?>
<svg id="Layer_2" data-name="Layer 2" xmlns="http://www.w3.org/2000/svg" viewBox="0 0 46.42 43.45">
  <defs>
    <style>
      .cls-1 {
        fill: #e5e5e5;
        stroke-width: 0px;
      }
    </style>
  </defs>
  <g id="Layer_1-2" data-name="Layer 1">
    <path class="cls-1" d="m46.23,13.74c.01-.53,0-.97,0-1.27-3.17-1.08-5.78-2.05-7.68-2.77-.23-.09-2.94-1.12-6.45-2.61,0,0-3.85-1.64-6.15-3.23-.82-.56-1.08-.77-1.08-.77-.33-.26-.39-.33-.61-.46-.28-.16-.45-.19-.46-.31-.01-.13.22-.18.46-.46.08-.09.28-.32.31-.61.04-.49-.35-.83-.46-.92-.09-.07-.52-.44-1.08-.31-.51.12-.74.55-.77.61-.24.48-.05.94,0,1.08.15.36.48.39.46.61,0,.1-.08.2-.46.46-.35.24-.52.36-.77.46-.73.31-1.98,1.19-4.15,2.3-1.45.75-2.93,1.38-5.84,2.61-4.8,2.03-7.19,3.05-8.3,3.38-.28.08-1.39.41-2.77,1.08-.14.07-.25.12-.31.15-.08.42-.28,1.62,0,2.52.06.21.15.38.15.4.1.21.36.72.92,1.08.19.12.81.5,1.54.31.08-.02.58-.16.92-.61.34-.44.32-.92.46-.92.11,0,.13.27.31.61.3.58.78.89,1.08,1.08.19.12.55.35,1.08.46,1.01.22,1.84-.16,2.15-.31.37-.17.76-.35,1.08-.77.49-.65.42-1.37.61-1.38.14,0,.17.4.46.92.42.75,1.04,1.16,1.38,1.38.15.1.65.41,1.38.61.49.13,1.19.33,2,.15,1.36-.29,2.21-1.46,2.46-1.84.4-.61.6-1.27.77-1.23.1.03.08.29.15.61.14.6.52.98.92,1.38,1.2,1.2,2.77,1.38,2.77,1.38,1.84.22,3.14-.78,3.53-1.08.48-.37,1.05-.81,1.23-1.54.09-.36.07-.76.15-.77.1-.01.21.49.31.77.4,1.16,1.72,2.02,2.92,2.3.31.08,1.84.41,3.23-.46.2-.13,1.06-.66,1.54-1.69.27-.59.29-1.07.46-1.08.28-.01.19,1.33,1.08,2.15.85.79,2.13.66,2.46.61.19-.03,1.45-.23,2.15-1.23.41-.59.48-1.25.61-1.23.14.02-.07.73.31,1.23.39.52,1.24.61,1.84.46.87-.21,1.3-.93,1.38-1.08.26-.45.28-1.06.31-2.27Z"/>
    <path class="cls-1" d="m18.58,27.68c-.07.03-.08.12-.15.46-.05.21-.1.41-.15.61-.09.38-.14.57-.15.61-.07.17-.18.44-.46.61-.16.1-.31.13-.46.15-.17.03-.26.05-.31,0-.09-.09.09-.31.15-.61.05-.25-.02-.34-.15-.92-.13-.59-.2-.89-.15-1.23.03-.24.07-.54.31-.77.18-.17.47-.31.77-.31.23,0,.34.08.46,0,.13-.09.11-.25.15-.46.07-.34.27-.55.46-.77.34-.38.75-.51,1.08-.61.15-.05.74-.22,1.84-.15,1.06.07,1.25.28,2,.15.7-.11.99-.37,1.08-.46.25-.25.17-.36.46-.77.37-.52.83-.79,1.08-.92.27-.15.47-.26.77-.31.41-.06.77,0,.77,0,.06.01.17.03.31,0,.15-.04.17-.1.31-.15.26-.11.53-.03.61,0,.14.04.23.1.31.15.09.06.16.11.15.15,0,.06-.13.04-.31.15-.11.07-.14.12-.15.15,0,.01-.03.08,0,.15.03.08.1.12.15.15.02.01.23.15.31.31.05.11.02.16,0,.46v1.23c0,.4-.01.39,0,.46.05.32.16.37.15.61,0,.06,0,.27-.15.46-.21.27-.56.3-.61.31-.17.01-.24-.04-.46,0-.06.01-.1.02-.15,0-.09-.04-.11-.16-.15-.31-.04-.16-.1-.31-.15-.46-.08-.25-.18-.35-.61-.92,0,.11,0,.27,0,.46,0,.49.03.5,0,.61-.09.32-.32.38-.31.61,0,.08.04.12.15.31,0,0,.23.36.46.77.1.18.05.12.31.61.21.42.24.44.31.61.21.51.17.7.15.77-.04.14-.11.25-.15.31-.04.06-.05.05-.31.31-.1.1-.15.15-.15.15-.1.11-.11.14-.15.15-.13.04-.28-.12-.31-.15-.1-.11-.14-.23-.15-.31-.02-.09-.05-.2,0-.31.05-.1.15-.16.15-.15.01.01-.22.26-.46.46-.38.31-.56.31-.61.31-.1,0-.26-.05-.31-.15-.01-.03,0-.05,0-.15v-.31c0-.1,0-.21,0-.31,0-.11-.01-.12,0-.15.05-.12.24-.14.31-.15.15-.02.17.02.31,0,.07-.01.24-.04.31-.15.02-.04.05-.11,0-.31-.1-.41-.33-.65-.46-.77-.19-.17-.27-.16-.31-.15-.07.02-.1.08-.15.15-.16.23-.35.39-.46.46-.08.05-.2.11-.46.15-.53.08-1.08-.02-1.54-.15-.63-.18-1.16-.43-1.23-.31-.02.03,0,.06,0,.15-.01.14-.1.24-.15.31-.2.25-.14.27-.31.46-.1.12-.43.5-.92.61-.22.05-.39.03-.46.15-.04.07-.01.12,0,.31,0,.03,0,.17,0,.46,0,.52-.02.5,0,.61.02.12.05.28.15.46.08.15.15.19.15.31,0,.12-.07.24-.15.31-.19.15-.46.05-.61,0-.11-.04-.32-.11-.46-.31-.12-.17-.06-.26-.15-.61-.09-.33-.17-.35-.31-.77-.06-.19-.12-.37-.15-.61-.04-.31-.09-.74.15-1.08.18-.25.46-.46.46-.46.1-.07.16-.11.15-.15,0-.12-.38-.07-.77-.31-.27-.16-.35-.35-.46-.31Z"/>
    <path class="cls-1" d="m2.14,31.06c-.07.03-.08.12-.15.46-.05.21-.1.41-.15.61-.09.38-.14.57-.15.61-.07.17-.18.44-.46.61-.16.1-.31.13-.46.15-.17.03-.26.05-.31,0-.09-.09.09-.31.15-.61.05-.25-.02-.34-.15-.92-.13-.59-.2-.89-.15-1.23.03-.24.07-.54.31-.77.18-.17.47-.31.77-.31.23,0,.34.08.46,0,.13-.09.11-.25.15-.46.07-.34.27-.55.46-.77.34-.38.75-.51,1.08-.61.15-.05.74-.22,1.84-.15,1.06.07,1.25.28,2,.15.7-.11.99-.37,1.08-.46.25-.25.17-.36.46-.77.37-.52.83-.79,1.08-.92.27-.15.47-.26.77-.31.41-.06.77,0,.77,0,.06.01.17.03.31,0,.15-.04.17-.1.31-.15.26-.11.53-.03.61,0,.14.04.23.1.31.15.09.06.16.11.15.15,0,.06-.13.04-.31.15-.11.07-.14.12-.15.15,0,.01-.03.08,0,.15.03.08.1.12.15.15.02.01.23.15.31.31.05.11.02.16,0,.46v1.23c0,.4-.01.39,0,.46.05.32.16.37.15.61,0,.06,0,.27-.15.46-.21.27-.56.3-.61.31-.17.01-.24-.04-.46,0-.06.01-.1.02-.15,0-.09-.04-.11-.16-.15-.31-.04-.16-.1-.31-.15-.46-.08-.25-.18-.35-.61-.92,0,.11,0,.27,0,.46,0,.49.03.5,0,.61-.09.32-.32.38-.31.61,0,.08.04.12.15.31,0,0,.23.36.46.77.1.18.05.12.31.61.21.42.24.44.31.61.21.51.17.7.15.77-.04.14-.11.25-.15.31-.04.06-.05.05-.31.31-.1.1-.15.15-.15.15-.1.11-.11.14-.15.15-.13.04-.28-.12-.31-.15-.1-.11-.14-.23-.15-.31-.02-.09-.05-.2,0-.31.05-.1.15-.16.15-.15.01.01-.22.26-.46.46-.38.31-.56.31-.61.31-.1,0-.26-.05-.31-.15-.01-.03,0-.05,0-.15v-.31c0-.1,0-.21,0-.31,0-.11-.01-.12,0-.15.05-.12.24-.14.31-.15.15-.02.17.02.31,0,.07-.01.24-.04.31-.15.02-.04.05-.11,0-.31-.1-.41-.33-.65-.46-.77-.19-.17-.27-.16-.31-.15-.07.02-.1.08-.15.15-.16.23-.35.39-.46.46-.08.05-.2.11-.46.15-.53.08-1.08-.02-1.54-.15-.63-.18-1.16-.43-1.23-.31-.02.03,0,.06,0,.15-.01.14-.1.24-.15.31-.2.25-.14.27-.31.46-.1.12-.43.5-.92.61-.22.05-.39.03-.46.15-.04.07-.01.12,0,.31,0,.03,0,.17,0,.46,0,.52-.02.5,0,.61.02.12.05.28.15.46.08.15.15.19.15.31,0,.12-.07.24-.15.31-.19.15-.46.05-.61,0-.11-.04-.32-.11-.46-.31-.12-.17-.06-.26-.15-.61-.09-.33-.17-.35-.31-.77-.06-.19-.12-.37-.15-.61-.04-.31-.09-.74.15-1.08.18-.25.46-.46.46-.46.1-.07.16-.11.15-.15,0-.12-.38-.07-.77-.31-.27-.16-.35-.35-.46-.31Z"/>
    <path class="cls-1" d="m35.17,31.06c-.07.03-.08.12-.15.46-.05.21-.1.41-.15.61-.09.38-.14.57-.15.61-.07.17-.18.44-.46.61-.16.1-.31.13-.46.15-.17.03-.26.05-.31,0-.09-.09.09-.31.15-.61.05-.25-.02-.34-.15-.92-.13-.59-.2-.89-.15-1.23.03-.24.07-.54.31-.77.18-.17.47-.31.77-.31.23,0,.34.08.46,0,.13-.09.11-.25.15-.46.07-.34.27-.55.46-.77.34-.38.75-.51,1.08-.61.15-.05.74-.22,1.84-.15,1.06.07,1.25.28,2,.15.7-.11.99-.37,1.08-.46.25-.25.17-.36.46-.77.37-.52.83-.79,1.08-.92.27-.15.47-.26.77-.31.41-.06.77,0,.77,0,.06.01.17.03.31,0,.15-.04.17-.1.31-.15.26-.11.53-.03.61,0,.14.04.23.1.31.15.09.06.16.11.15.15,0,.06-.13.04-.31.15-.11.07-.14.12-.15.15,0,.01-.03.08,0,.15.03.08.1.12.15.15.02.01.23.15.31.31.05.11.02.16,0,.46v1.23c0,.4-.01.39,0,.46.05.32.16.37.15.61,0,.06,0,.27-.15.46-.21.27-.56.3-.61.31-.17.01-.24-.04-.46,0-.06.01-.1.02-.15,0-.09-.04-.11-.16-.15-.31-.04-.16-.1-.31-.15-.46-.08-.25-.18-.35-.61-.92,0,.11,0,.27,0,.46,0,.49.03.5,0,.61-.09.32-.32.38-.31.61,0,.08.04.12.15.31,0,0,.23.36.46.77.1.18.05.12.31.61.21.42.24.44.31.61.21.51.17.7.15.77-.04.14-.11.25-.15.31-.04.06-.05.05-.31.31-.1.1-.15.15-.15.15-.1.11-.11.14-.15.15-.13.04-.28-.12-.31-.15-.1-.11-.14-.23-.15-.31-.02-.09-.05-.2,0-.31.05-.1.15-.16.15-.15.01.01-.22.26-.46.46-.38.31-.56.31-.61.31-.1,0-.26-.05-.31-.15-.01-.03,0-.05,0-.15v-.31c0-.1,0-.21,0-.31,0-.11-.01-.12,0-.15.05-.12.24-.14.31-.15.15-.02.17.02.31,0,.07-.01.24-.04.31-.15.02-.04.05-.11,0-.31-.1-.41-.33-.65-.46-.77-.19-.17-.27-.16-.31-.15-.07.02-.1.08-.15.15-.16.23-.35.39-.46.46-.08.05-.2.11-.46.15-.53.08-1.08-.02-1.54-.15-.63-.18-1.16-.43-1.23-.31-.02.03,0,.06,0,.15-.01.14-.1.24-.15.31-.2.25-.14.27-.31.46-.1.12-.43.5-.92.61-.22.05-.39.03-.46.15-.04.07-.01.12,0,.31,0,.03,0,.17,0,.46,0,.52-.02.5,0,.61.02.12.05.28.15.46.08.15.15.19.15.31,0,.12-.07.24-.15.31-.19.15-.46.05-.61,0-.11-.04-.32-.11-.46-.31-.12-.17-.06-.26-.15-.61-.09-.33-.17-.35-.31-.77-.06-.19-.12-.37-.15-.61-.04-.31-.09-.74.15-1.08.18-.25.46-.46.46-.46.1-.07.16-.11.15-.15,0-.12-.38-.07-.77-.31-.27-.16-.35-.35-.46-.31Z"/>
    <rect class="cls-1" x="6.29" y="16.7" width=".83" height="21.45"/>
    <rect class="cls-1" x="22.88" y="17.31" width=".83" height="21.45"/>
    <rect class="cls-1" x="39.47" y="17.16" width=".83" height="21.45"/>
    <path class="cls-1" d="m46.39,40.59c-.03-.15-.07-.27-.15-.46-.4-.93-.74-1.12-.92-1.69-.02-.06-.05-.18-.15-.31-.14-.17-.32-.26-.46-.31-1.52-.52-3.69-.61-3.69-.61-1.07-.04.01-.05-2.15-.15-2.69-.13-4.79-.15-4.92-.15-4.35-.04-4.75-.27-8.6-.31-.52,0-2.5.05-6.45.15-3.74.1-7.47.39-11.22.46-1.26.02-2.5.38-3.75.45-.04.04-.09.07-.17.06-.86-.09-1.64.3-2.41.67-.1.16-.27.45-.58.97-.04.07-.08.13-.12.19,0,.04,0,.09-.03.14-.18.35-.31.73-.39,1.13.04.28.11.55.23.81.12.27.3.5.47.73.13.06.25.13.38.21,0,0,0,0,.01,0,1.04.21,2.51.16,2.51.16.45-.02-.56.03-1.91.1.28.09.58.16.87.23.9.21,1.82.25,2.73.38,3.63,0,8.7-.03,15.67-.1,6.32-.06,8.03-.1,9.83-.15,3.53-.1,1.87-.08,7.68-.31,0,0,1.53-.06,4.15-.31.27-.03-.04,0,1.23-.15,0,0,.13-.02,1.54-.31.21-.04.46-.1.61-.31.09-.12.11-.24.15-.46.07-.38.02-.68,0-.77Z"/>
  </g>
</svg>