<?xml version="1.0" encoding="UTF-8"?>
<svg id="Layer_2" data-name="Layer 2" xmlns="http://www.w3.org/2000/svg" viewBox="0 0 125.62 106.66">
  <defs>
    <style>
      .cls-1 {
        fill: #fff;
      }

      .cls-1, .cls-2 {
        stroke-width: 0px;
      }

      .cls-2 {
        fill: #e5e5e5;
      }
    </style>
  </defs>
  <g id="Layer_1-2" data-name="Layer 1">
    <g>
      <g>
        <path class="cls-2" d="m30.86,33c-.11,1.26-.28,3.25-.42,5.71-.24,3.95-.18,4.94-.42,7.61-.32,3.58-.48,5.37-1.06,7.19-1.22,3.83-3.32,6.39-4.23,7.4-.96,1.07-3.49,3.83-7.61,5.28-1.05.37-1.88.54-3.38.85-1.66.34-3.18.54-7.19.85C2.24,68.2,0,68.18,0,68.29c0,.11,2.18.21,6.55.42,3.53.17,4.98.21,7.19.63,1.31.25,2.2.42,3.38.85,3.19,1.15,5.22,2.98,6.34,4.02,2.14,1.97,3.36,3.9,3.8,4.65.56.93,1.65,2.93,2.32,5.71.28,1.14.4,2.38.63,4.86.05.56.19,2.03.42,6.34.1,1.77.17,3.23.21,4.23V33Z"/>
        <path class="cls-2" d="m30.86,33c.12,1.26.28,3.25.44,5.71.25,3.95.19,4.94.44,7.61.33,3.58.5,5.37,1.09,7.19,1.26,3.83,3.44,6.39,4.37,7.4.99,1.07,3.61,3.83,7.87,5.28,1.09.37,1.95.54,3.5.85,1.72.34,3.29.54,7.43.85,4.46.33,6.78.31,6.78.42,0,.11-2.26.21-6.78.42-3.65.17-5.15.21-7.43.63-1.35.25-2.27.42-3.5.85-3.3,1.15-5.4,2.98-6.56,4.02-2.21,1.97-3.47,3.9-3.93,4.65-.58.93-1.71,2.93-2.4,5.71-.29,1.14-.41,2.38-.66,4.86-.06.56-.2,2.03-.44,6.34-.1,1.77-.17,3.23-.22,4.23V33Z"/>
      </g>
      <g>
        <path class="cls-2" d="m60.86,31c-.05.62-.12,1.6-.19,2.81-.11,1.94-.08,2.43-.19,3.75-.14,1.76-.21,2.65-.47,3.54-.54,1.89-1.48,3.15-1.88,3.64-.42.53-1.55,1.89-3.38,2.6-.47.18-.84.27-1.5.42-.74.17-1.41.27-3.19.42-1.92.16-2.91.15-2.91.21,0,.05.97.1,2.91.21,1.57.08,2.21.1,3.19.31.58.12.98.21,1.5.42,1.42.57,2.32,1.47,2.81,1.98.95.97,1.49,1.92,1.69,2.29.25.46.73,1.45,1.03,2.81.12.56.18,1.17.28,2.39.02.28.08,1,.19,3.12.04.87.07,1.59.09,2.08V31Z"/>
        <path class="cls-2" d="m60.86,31c.05.62.13,1.6.19,2.81.11,1.94.08,2.43.19,3.75.15,1.76.22,2.65.49,3.54.56,1.89,1.53,3.15,1.94,3.64.44.53,1.6,1.89,3.49,2.6.48.18.86.27,1.55.42.76.17,1.46.27,3.3.42,1.98.16,3.01.15,3.01.21,0,.05-1,.1-3.01.21-1.62.08-2.29.1-3.3.31-.6.12-1.01.21-1.55.42-1.46.57-2.4,1.47-2.91,1.98-.98.97-1.54,1.92-1.75,2.29-.26.46-.76,1.45-1.07,2.81-.13.56-.18,1.17-.29,2.39-.02.28-.09,1-.19,3.12-.04.87-.08,1.59-.1,2.08V31Z"/>
      </g>
      <path class="cls-1" d="m72.43,0c23.97,2.51,43.91,18.35,50.67,41.65,8.77,29.89-5.78,57.48-36.92,63.8-16.68,3.4-34.26-.5-48.07-9.52l.5-.87c7.25,3.71,15.02,6.27,22.96,7.37,19.19,2.81,41.18-3.31,52.11-20.1,10.7-16.58,7.61-39.24-2.59-55.4-5.31-8.36-13.09-15.04-21.81-19.68-5.36-2.75-11.07-4.99-16.99-6.27,0,0,.14-.99.14-.99h0Z"/>
    </g>
  </g>
</svg>