<?xml version="1.0" encoding="UTF-8"?>
<svg id="Layer_2" data-name="Layer 2" xmlns="http://www.w3.org/2000/svg" viewBox="0 0 326.87 205.77">
  <defs>
    <style>
      .cls-1 {
        fill: #e5e5e5;
        stroke-width: 0px;
      }
    </style>
  </defs>
  <g id="Layer_1-2" data-name="Layer 1">
    <g>
      <path class="cls-1" d="m112.57,0c1.07,3.04,2.79,7.81,5.03,13.64,3.6,9.37,4.75,11.63,7.01,18.04,3.03,8.61,4.55,12.91,5.19,17.68,1.35,10.07-.57,18.06-1.49,21.28-.97,3.41-3.6,12.3-11.05,19.69-1.91,1.89-3.53,3.09-6.48,5.27-3.27,2.42-6.37,4.37-14.75,8.99-9.05,4.99-13.93,7.13-13.81,7.39.11.25,4.97-1.64,14.69-5.43,7.85-3.06,11.05-4.38,16.29-5.56,3.1-.7,5.22-1.18,8.24-1.35,8.14-.46,14.46,1.8,17.98,3.1,6.71,2.48,11.37,5.75,13.12,7.05,2.18,1.62,6.65,5.18,11.01,10.95,1.8,2.38,3.35,5.13,6.45,10.64.71,1.26,2.53,4.51,7.53,14.28,2.05,4.01,3.73,7.32,4.87,9.59L112.57,0Z"/>
      <path class="cls-1" d="m112.57,0c1.57,2.82,4.01,7.26,6.9,12.79,4.65,8.9,5.57,11.26,8.88,17.2,4.45,7.97,6.68,11.96,9.87,15.58,6.73,7.65,14.14,11.44,17.22,12.86,3.27,1.51,11.86,5.35,22.63,4.54,2.76-.21,4.8-.65,8.49-1.46,4.1-.9,7.73-1.97,17.05-5.32,10.06-3.61,15.07-5.91,15.18-5.65.11.25-4.69,2.7-14.3,7.61-7.76,3.96-10.98,5.53-15.51,8.74-2.68,1.9-4.51,3.2-6.73,5.38-5.98,5.89-8.64,12.19-10.08,15.72-2.76,6.74-3.49,12.43-3.71,14.62-.28,2.72-.66,8.47.72,15.57.57,2.93,1.59,5.92,3.64,11.9.47,1.36,1.69,4.89,5.66,15.12,1.63,4.2,2.99,7.65,3.93,10.01L112.57,0Z"/>
    </g>
    <path class="cls-1" d="m95,80.77c-.34-2.35-92.04-10.23-94.91,10.83-3.92,28.76,128.18,75.58,138.34,79.13,68.14,23.83,179.76,50.77,188.06,23.74,6.33-20.61-68.45-59.06-69.49-57.7-.8,1.04,58.15,33.2,53,45-2.71,6.21-25.85,7.36-40,5-45.2-7.54-85.42-19.94-102-26-3.13-1.14-32-9-69-25-47.75-20.65-52-26-52-26-4.32-2.64,0,0-14-11-21.86-17.18,62-18,62-18Z"/>
  </g>
</svg>