<?xml version="1.0" encoding="UTF-8"?><svg id="Layer_2" xmlns="http://www.w3.org/2000/svg" width="78.15" height="67.34" viewBox="0 0 78.15 67.34"><defs><style>.cls-1{fill:#000;}.cls-1,.cls-2,.cls-3{stroke-width:0px;}.cls-2{fill:#fff;}.cls-3{fill:#e5e5e5;}</style></defs><g id="Layer_1-2"><path class="cls-3" d="M39.53,16.75c-.06.58-.13,1.48-.2,2.59-.12,1.8-.09,2.25-.2,3.46-.16,1.63-.23,2.44-.51,3.27-.59,1.74-1.61,2.9-2.05,3.36-.46.48-1.69,1.74-3.69,2.4-.51.17-.91.24-1.64.38-.81.15-1.55.24-3.48.38-2.09.15-3.17.14-3.17.19,0,.05,1.06.1,3.17.19,1.71.08,2.41.1,3.48.29.63.12,1.07.19,1.64.38,1.55.52,2.53,1.36,3.07,1.83,1.04.9,1.63,1.77,1.85,2.11.27.42.8,1.33,1.13,2.59.13.52.19,1.08.31,2.21.03.26.09.92.2,2.88.05.8.08,1.47.1,1.92v-30.46h0Z"/><path class="cls-3" d="M39.53,16.75c.06.58.14,1.48.21,2.59.12,1.8.09,2.25.21,3.46.16,1.63.24,2.44.53,3.27.61,1.74,1.67,2.9,2.12,3.36.48.48,1.75,1.74,3.82,2.4.53.17.94.24,1.69.38.84.15,1.6.24,3.6.38,2.16.15,3.29.14,3.29.19,0,.05-1.09.1-3.29.19-1.77.08-2.5.1-3.6.29-.66.12-1.1.19-1.69.38-1.6.52-2.62,1.36-3.18,1.83-1.08.9-1.68,1.77-1.91,2.11-.28.42-.83,1.33-1.17,2.59-.14.52-.2,1.08-.32,2.21-.03.26-.1.92-.21,2.88-.05.8-.08,1.47-.11,1.92,0,0,0-30.46,0-30.46Z"/><path class="cls-1" d="M39.78,28.39c-.01.13-.03.35-.05.6-.03.42-.02.53-.05.81-.04.38-.06.57-.12.76-.14.41-.38.68-.48.78-.11.12-.4.41-.86.56-.12.04-.21.06-.38.09-.19.04-.36.06-.81.09-.49.04-.74.03-.74.05,0,0,.25.02.74.05.4.02.56.02.81.07.15.03.25.05.38.09.36.12.59.32.72.42.24.21.38.42.43.49.06.1.18.31.26.6.03.12.05.25.07.52,0,.06.02.22.05.67,0,.19.02.34.02.45v-7.12h0Z"/><path class="cls-1" d="M39.78,28.39c.01.13.03.35.05.6.03.42.02.53.05.81.04.38.06.57.12.76.14.41.39.68.49.78.11.12.41.41.89.56.12.04.22.06.4.09.19.04.37.06.84.09.51.04.77.03.77.05,0,0-.25.02-.77.05-.42.02-.58.02-.84.07-.15.03-.26.05-.4.09-.37.12-.61.32-.74.42-.25.21-.39.42-.45.49-.06.1-.19.31-.27.6-.03.12-.05.25-.07.52,0,.06-.02.22-.05.67,0,.19-.02.34-.02.45v-7.12h0Z"/><path class="cls-2" d="M35.39,7.38c12.98-3,26.91.61,35.46,11.14,7.92,9.63,10.22,22.86,2.75,33.45-5.74,8.26-15.37,13.23-25.19,14.63-4.89.68-9.88.54-14.67-.47l.08-.46c11.92,1.56,24.47-1.59,33.32-9.68,6.17-5.53,9.64-13.53,8.33-21.82-2.09-12.88-12.91-23.53-25.68-25.88-4.68-.98-9.57-1.14-14.32-.48l-.09-.45h0Z"/><path class="cls-2" d="M44.84,59.12c-12.75,3.9-26.88,1.28-36.15-8.64C.11,41.43-3.11,28.4,3.6,17.31,11.39,4.35,27.77-1.64,42.36.39l-.05.46c-9.65-.6-19.42,1.93-27.21,7.36C6.3,14.34.48,24.3,2.97,35.19c2.98,12.7,14.52,22.57,27.42,24.02,4.74.65,9.63.46,14.32-.53l.12.44h0Z"/></g></svg>