<?xml version="1.0" encoding="UTF-8"?><svg id="Layer_2" xmlns="http://www.w3.org/2000/svg" width="212.12" height="163.29" viewBox="0 0 212.12 163.29"><defs><style>.cls-1{fill:#e5e5e5;stroke-width:0px;}</style></defs><path class="cls-1" d="M171.07,109.78c-.68.61,35.69,30.29,30.63,37.73-2.66,3.92-18.71,1.73-28.13-1.71-30.09-10.99-56.13-24.68-66.75-30.98-2-1.19-20.83-10.3-44.2-26.05-30.16-20.33-32.39-24.55-32.39-24.55-2.63-2.37,0,0-8.21-9.36-12.81-14.61,44.92-4.4,44.92-4.4.07-1.66-61.93-18.86-66.61-4.76-6.39,19.26,78.36,68.41,84.89,72.15,43.76,25.13,116.99,57.99,126.17,40.49,7-13.35-39.44-49.38-40.33-48.58Z"/><path class="cls-1" d="M156.96,45.42c.04.15-3.04,1.07-9.21,2.85-.19.06-.4.12-.61.18-.18.05-.38.1-.57.16h0c-.2.06-.39.11-.57.17-5.93,1.73-8.38,2.39-11.97,3.97-2.11.94-3.57,1.58-5.4,2.76-4.97,3.19-7.69,7.02-9.19,9.18-2.86,4.11-4.17,7.77-4.64,9.19-.58,1.76-1.64,5.48-1.71,10.32-.03,1.99.26,4.07.83,8.24.13.95.48,3.42,1.77,10.59.52,2.82.95,5.17,1.26,6.82l.02.09s-.02-.05-.03-.09c-.46-1.61-1.12-3.91-1.94-6.65-2.07-6.98-2.88-9.34-3.19-10.25-1.37-3.98-2.05-5.96-2.95-7.73-2.2-4.29-4.78-7.14-6.06-8.46-1.04-1.06-3.79-3.75-8.08-6.14-2.25-1.26-6.3-3.47-11.99-4.11-2.11-.24-3.64-.16-5.88-.06-3.79.19-6.19.69-12.05,1.79-7.26,1.38-10.89,2.05-10.93,1.89-.04-.19,3.63-1.03,10.59-3.28,6.45-2.07,8.87-2.99,11.47-4.21,2.34-1.08,3.64-1.7,5.21-2.72,6.18-4,9.27-9.55,10.42-11.67,1.09-2.01,3.54-7.03,4.03-13.81.24-3.21-.2-6.21-1.08-12.22-.65-4.47-1.14-6.08-2.29-12.66-.71-4-1.21-7.29-1.53-9.4,0-.04,0-.08-.02-.13.69,2.03,1.74,5.23,2.96,9.19,1.95,6.39,2.25,8.05,3.7,12.33,1.96,5.76,2.94,8.63,4.63,11.37,3.57,5.81,8.16,9.14,10.08,10.43,2.05,1.36,7.44,4.88,15.01,5.59,1.93.18,3.4.13,6.07.02,2.97-.12,5.63-.41,12.55-1.54.21-.03.43-.07.63-.1.19-.03.38-.07.54-.1.2-.04.39-.06.56-.1,6.31-1.06,9.51-1.84,9.55-1.67Z"/></svg>