<?xml version="1.0" encoding="UTF-8"?>
<svg id="Layer_2" data-name="Layer 2" xmlns="http://www.w3.org/2000/svg" viewBox="0 0 169.37 145.26">
  <defs>
    <style>
      .cls-1, .cls-2, .cls-3 {
        stroke-width: 0px;
      }

      .cls-2 {
        fill: #fff;
      }

      .cls-3 {
        fill: #e5e5e5;
      }
    </style>
  </defs>
  <g id="Layer_1-2" data-name="Layer 1">
    <g>
      <g>
        <path class="cls-3" d="m85.67,36.3c-.12,1.25-.29,3.2-.44,5.62-.25,3.89-.19,4.87-.44,7.5-.34,3.53-.5,5.29-1.11,7.08-1.28,3.78-3.49,6.29-4.44,7.29-1,1.05-3.67,3.78-7.99,5.21-1.11.37-1.98.53-3.55.83-1.75.33-3.35.53-7.55.83-4.53.32-6.88.31-6.88.42,0,.1,2.29.21,6.88.42,3.71.17,5.23.21,7.55.62,1.37.25,2.31.41,3.55.83,3.35,1.13,5.48,2.94,6.66,3.96,2.25,1.94,3.53,3.84,4,4.58.58.92,1.73,2.89,2.44,5.62.29,1.13.42,2.35.67,4.79.06.56.2,2,.44,6.25.1,1.74.17,3.18.22,4.16V36.3Z"/>
        <path class="cls-3" d="m85.67,36.3c.12,1.25.3,3.2.46,5.62.26,3.89.2,4.87.46,7.5.35,3.53.52,5.29,1.15,7.08,1.32,3.78,3.61,6.29,4.59,7.29,1.04,1.05,3.8,3.78,8.27,5.21,1.14.37,2.04.53,3.67.83,1.81.33,3.46.53,7.81.83,4.69.32,7.12.31,7.12.42,0,.1-2.37.21-7.12.42-3.83.17-5.41.21-7.81.62-1.42.25-2.39.41-3.67.83-3.47,1.13-5.67,2.94-6.89,3.96-2.33,1.94-3.65,3.84-4.13,4.58-.6.92-1.79,2.89-2.53,5.62-.3,1.13-.43,2.35-.69,4.79-.06.56-.21,2-.46,6.25-.1,1.74-.18,3.18-.23,4.16V36.3Z"/>
      </g>
      <g>
        <path class="cls-1" d="m86.21,61.53c-.03.29-.07.75-.1,1.31-.06.91-.05,1.14-.1,1.75-.08.82-.12,1.24-.26,1.65-.3.88-.82,1.47-1.04,1.7-.23.25-.86.88-1.87,1.22-.26.09-.46.12-.83.19-.41.08-.78.12-1.76.19-1.06.08-1.61.07-1.61.1,0,.02.54.05,1.61.1.87.04,1.22.05,1.76.15.32.06.54.1.83.19.78.26,1.28.69,1.56.92.53.45.82.9.93,1.07.14.21.4.68.57,1.31.07.26.1.55.16,1.12.01.13.05.47.1,1.46.02.41.04.74.05.97v-15.42Z"/>
        <path class="cls-1" d="m86.21,61.53c.03.29.07.75.11,1.31.06.91.05,1.14.11,1.75.08.82.12,1.24.27,1.65.31.88.84,1.47,1.07,1.7.24.25.89.88,1.93,1.22.27.09.48.12.86.19.42.08.81.12,1.82.19,1.1.08,1.66.07,1.66.1,0,.02-.55.05-1.66.1-.9.04-1.26.05-1.82.15-.33.06-.56.1-.86.19-.81.26-1.32.69-1.61.92-.54.45-.85.9-.97,1.07-.14.21-.42.68-.59,1.31-.07.26-.1.55-.16,1.12-.01.13-.05.47-.11,1.46-.02.41-.04.74-.05.97v-15.42Z"/>
      </g>
      <path class="cls-2" d="m76.7,16c28.13-6.5,58.31,1.32,76.85,24.15,17.17,20.86,22.14,49.53,5.97,72.49-12.44,17.91-33.3,28.67-54.58,31.71-10.6,1.47-21.41,1.18-31.79-1.01,0,0,.17-.99.17-.99,25.83,3.37,53.03-3.45,72.21-20.98,13.37-11.98,20.9-29.33,18.06-47.29-4.52-27.92-27.98-50.99-55.65-56.08-10.15-2.13-20.74-2.46-31.04-1.04,0,0-.2-.98-.2-.98h0Z"/>
      <path class="cls-2" d="m97.17,128.13c-27.62,8.45-58.25,2.77-78.35-18.72C.23,89.79-6.73,61.54,7.8,37.51,24.69,9.42,60.19-3.56,91.81.84c0,0-.1,1-.1,1-20.92-1.3-42.09,4.19-58.97,15.96C13.65,31.08,1.04,52.66,6.43,76.25c6.46,27.53,31.47,48.91,59.43,52.05,10.27,1.41,20.86,1,31.04-1.14,0,0,.27.96.27.96h0Z"/>
    </g>
  </g>
</svg>