<svg width="346" height="141" viewBox="0 0 346 141" fill="none" xmlns="http://www.w3.org/2000/svg">
<g clip-path="url(#clip0_441_1580)">
<path d="M11.3744 139.607L11.3608 130.537L11.0611 0H0V139.607L346 141V130.1L10.8976 130.073" fill="#F54765"/>
<path d="M345.66 0.314209L333.74 0.628362L334.585 130.073H346L345.66 0.314209Z" fill="#F54765"/>
<path d="M11.0615 0H345.469L345.687 9.92996H12.4237H11.0888" fill="#F54765"/>
<path d="M14.3028 18.0706C17.6882 18.0706 20.4327 15.6245 20.4327 12.6071C20.4327 9.58966 17.6882 7.14355 14.3028 7.14355C10.9173 7.14355 8.17285 9.58966 8.17285 12.6071C8.17285 15.6245 10.9173 18.0706 14.3028 18.0706Z" fill="#F54765"/>
<path d="M11.5783 37.193C14.2114 37.193 16.346 35.0527 16.346 32.4124C16.346 29.7722 14.2114 27.6318 11.5783 27.6318C8.94513 27.6318 6.81055 29.7722 6.81055 32.4124C6.81055 35.0527 8.94513 37.193 11.5783 37.193Z" fill="#F54765"/>
<path d="M11.5783 56.3154C14.2114 56.3154 16.346 53.8693 16.346 50.8518C16.346 47.8344 14.2114 45.3883 11.5783 45.3883C8.94513 45.3883 6.81055 47.8344 6.81055 50.8518C6.81055 53.8693 8.94513 56.3154 11.5783 56.3154Z" fill="#F54765"/>
<path d="M11.5783 74.0718C14.2114 74.0718 16.346 71.9315 16.346 69.2912C16.346 66.651 14.2114 64.5106 11.5783 64.5106C8.94513 64.5106 6.81055 66.651 6.81055 69.2912C6.81055 71.9315 8.94513 74.0718 11.5783 74.0718Z" fill="#F54765"/>
<path d="M11.5783 91.8283C14.2114 91.8283 16.346 89.6879 16.346 87.0477C16.346 84.4074 14.2114 82.2671 11.5783 82.2671C8.94513 82.2671 6.81055 84.4074 6.81055 87.0477C6.81055 89.6879 8.94513 91.8283 11.5783 91.8283Z" fill="#F54765"/>
<path d="M12.2595 110.951C14.5164 110.951 16.3461 108.81 16.3461 106.17C16.3461 103.53 14.5164 101.389 12.2595 101.389C10.0025 101.389 8.17285 103.53 8.17285 106.17C8.17285 108.81 10.0025 110.951 12.2595 110.951Z" fill="#F54765"/>
<path d="M14.3027 135.537C18.4405 135.537 21.7948 132.479 21.7948 128.707C21.7948 124.935 18.4405 121.878 14.3027 121.878C10.1649 121.878 6.81055 124.935 6.81055 128.707C6.81055 132.479 10.1649 135.537 14.3027 135.537Z" fill="#F54765"/>
<path d="M330.335 16.7048C333.72 16.7048 336.465 14.2587 336.465 11.2412C336.465 8.22381 333.72 5.77771 330.335 5.77771C326.95 5.77771 324.205 8.22381 324.205 11.2412C324.205 14.2587 326.95 16.7048 330.335 16.7048Z" fill="#F54765"/>
<path d="M334.421 39.9247C337.806 39.9247 340.551 37.4786 340.551 34.4612C340.551 31.4438 337.806 28.9977 334.421 28.9977C331.035 28.9977 328.291 31.4438 328.291 34.4612C328.291 37.4786 331.035 39.9247 334.421 39.9247Z" fill="#F54765"/>
<path d="M336.464 57.6812C340.226 57.6812 343.275 55.2351 343.275 52.2177C343.275 49.2003 340.226 46.7542 336.464 46.7542C332.703 46.7542 329.653 49.2003 329.653 52.2177C329.653 55.2351 332.703 57.6812 336.464 57.6812Z" fill="#F54765"/>
<path d="M335.783 76.8035C339.169 76.8035 341.913 74.3574 341.913 71.34C341.913 68.3226 339.169 65.8765 335.783 65.8765C332.398 65.8765 329.653 68.3226 329.653 71.34C329.653 74.3574 332.398 76.8035 335.783 76.8035Z" fill="#F54765"/>
<path d="M335.783 94.56C339.169 94.56 341.913 92.1139 341.913 89.0965C341.913 86.079 339.169 83.6329 335.783 83.6329C332.398 83.6329 329.653 86.079 329.653 89.0965C329.653 92.1139 332.398 94.56 335.783 94.56Z" fill="#F54765"/>
<path d="M335.783 112.316C339.169 112.316 341.913 109.87 341.913 106.853C341.913 103.836 339.169 101.389 335.783 101.389C332.398 101.389 329.653 103.836 329.653 106.853C329.653 109.87 332.398 112.316 335.783 112.316Z" fill="#F54765"/>
<path d="M330.335 132.805C333.72 132.805 336.465 130.359 336.465 127.341C336.465 124.324 333.72 121.878 330.335 121.878C326.95 121.878 324.205 124.324 324.205 127.341C324.205 130.359 326.95 132.805 330.335 132.805Z" fill="#F54765"/>
<path d="M90.64 29.6C90.8747 29.6 91.0773 29.6853 91.248 29.856C91.4187 30.0267 91.504 30.2293 91.504 30.464V35.616C91.504 35.8507 91.4187 36.0533 91.248 36.224C91.0773 36.3947 90.8747 36.48 90.64 36.48H83.76V51.136C83.76 51.3707 83.6747 51.5733 83.504 51.744C83.3333 51.9147 83.1307 52 82.896 52H76.304C76.0693 52 75.8667 51.9147 75.696 51.744C75.5253 51.5733 75.44 51.3707 75.44 51.136V36.48H68.56C68.3253 36.48 68.1227 36.3947 67.952 36.224C67.7813 36.0533 67.696 35.8507 67.696 35.616V30.464C67.696 30.2293 67.7813 30.0267 67.952 29.856C68.1227 29.6853 68.3253 29.6 68.56 29.6H90.64ZM116.804 29.6C117.038 29.6 117.241 29.6853 117.412 29.856C117.582 30.0267 117.668 30.2293 117.668 30.464V51.136C117.668 51.3707 117.582 51.5733 117.412 51.744C117.241 51.9147 117.038 52 116.804 52H110.212C109.977 52 109.774 51.9147 109.604 51.744C109.433 51.5733 109.348 51.3707 109.348 51.136V44.32H102.948V51.136C102.948 51.3707 102.862 51.5733 102.692 51.744C102.521 51.9147 102.318 52 102.084 52H95.4915C95.2568 52 95.0542 51.9253 94.8835 51.776C94.7128 51.6053 94.6275 51.392 94.6275 51.136V30.464C94.6275 30.2293 94.7128 30.0267 94.8835 29.856C95.0542 29.6853 95.2568 29.6 95.4915 29.6H102.084C102.318 29.6 102.521 29.6853 102.692 29.856C102.862 30.0267 102.948 30.2293 102.948 30.464V37.024H109.348V30.464C109.348 30.2293 109.433 30.0267 109.604 29.856C109.774 29.6853 109.977 29.6 110.212 29.6H116.804ZM132.695 52.32C129.111 52.32 126.263 51.5413 124.151 49.984C122.06 48.4267 121.015 45.9947 121.015 42.688V30.464C121.015 30.2293 121.1 30.0267 121.271 29.856C121.442 29.6853 121.644 29.6 121.879 29.6H128.567C128.802 29.6 129.004 29.6853 129.175 29.856C129.346 30.0267 129.431 30.2293 129.431 30.464V43.2C129.431 44.0747 129.719 44.7467 130.295 45.216C130.892 45.6853 131.692 45.92 132.695 45.92C133.698 45.92 134.487 45.6853 135.063 45.216C135.66 44.7467 135.959 44.0747 135.959 43.2V30.464C135.959 30.2293 136.044 30.0267 136.215 29.856C136.386 29.6853 136.588 29.6 136.823 29.6H143.511C143.746 29.6 143.948 29.6853 144.119 29.856C144.29 30.0267 144.375 30.2293 144.375 30.464V42.688C144.375 45.9947 143.319 48.4267 141.207 49.984C139.116 51.5413 136.279 52.32 132.695 52.32ZM171.947 51.008C171.989 51.0933 172.011 51.1893 172.011 51.296C172.011 51.488 171.936 51.6587 171.787 51.808C171.659 51.936 171.499 52 171.307 52H164.043C163.744 52 163.467 51.9253 163.211 51.776C162.976 51.6267 162.805 51.4347 162.699 51.2L159.883 44.864H157.195V51.136C157.195 51.3707 157.109 51.5733 156.939 51.744C156.768 51.9147 156.565 52 156.331 52H149.419C149.184 52 148.981 51.9147 148.811 51.744C148.64 51.5733 148.555 51.3707 148.555 51.136V30.464C148.555 30.2293 148.64 30.0267 148.811 29.856C148.981 29.6853 149.184 29.6 149.419 29.6H161.867C163.787 29.6 165.461 29.9093 166.891 30.528C168.341 31.1467 169.451 32.0427 170.219 33.216C170.987 34.3893 171.371 35.7653 171.371 37.344C171.371 40.2453 170.251 42.3467 168.011 43.648L171.947 51.008ZM161.195 38.944C161.664 38.944 162.027 38.7947 162.283 38.496C162.539 38.176 162.667 37.7813 162.667 37.312C162.667 36.8427 162.539 36.4373 162.283 36.096C162.048 35.7333 161.685 35.552 161.195 35.552H157.195V38.944H161.195ZM187.55 37.728C189.897 37.984 191.774 38.4 193.182 38.976C194.611 39.552 195.646 40.3093 196.286 41.248C196.926 42.1867 197.246 43.36 197.246 44.768C197.246 46.304 196.745 47.648 195.742 48.8C194.761 49.9307 193.395 50.8053 191.646 51.424C189.897 52.0213 187.902 52.32 185.662 52.32C183.166 52.32 181.054 52.0107 179.326 51.392C177.598 50.7733 176.307 49.952 175.454 48.928C174.601 47.8827 174.174 46.7413 174.174 45.504C174.174 45.2907 174.238 45.12 174.366 44.992C174.515 44.864 174.697 44.8 174.91 44.8H181.47C181.918 44.8 182.281 44.9387 182.558 45.216C182.921 45.5573 183.326 45.792 183.774 45.92C184.222 46.0267 184.851 46.08 185.662 46.08C187.689 46.08 188.702 45.7707 188.702 45.152C188.702 44.896 188.563 44.6827 188.286 44.512C188.03 44.32 187.561 44.16 186.878 44.032C186.217 43.8827 185.235 43.7333 183.934 43.584C181.011 43.2427 178.771 42.5173 177.214 41.408C175.657 40.2773 174.878 38.688 174.878 36.64C174.878 35.1893 175.315 33.9093 176.19 32.8C177.065 31.6907 178.302 30.8267 179.902 30.208C181.523 29.5893 183.401 29.28 185.534 29.28C187.753 29.28 189.694 29.632 191.358 30.336C193.022 31.0187 194.291 31.872 195.166 32.896C196.041 33.92 196.478 34.9227 196.478 35.904C196.478 36.1173 196.403 36.288 196.254 36.416C196.126 36.544 195.945 36.608 195.71 36.608H188.83C188.467 36.608 188.137 36.48 187.838 36.224C187.603 36.0107 187.326 35.84 187.006 35.712C186.686 35.584 186.195 35.52 185.534 35.52C184.105 35.52 183.39 35.8187 183.39 36.416C183.39 36.736 183.667 36.992 184.222 37.184C184.777 37.3547 185.886 37.536 187.55 37.728ZM212.242 29.6C215.847 29.6 218.727 30.3787 220.882 31.936C223.058 33.4933 224.146 35.904 224.146 39.168V42.432C224.146 45.76 223.068 48.192 220.914 49.728C218.78 51.2427 215.89 52 212.242 52H202.034C201.799 52 201.596 51.9147 201.426 51.744C201.255 51.5733 201.17 51.3707 201.17 51.136V30.464C201.17 30.2293 201.255 30.0267 201.426 29.856C201.596 29.6853 201.799 29.6 202.034 29.6H212.242ZM212.402 45.76C213.404 45.76 214.194 45.5253 214.77 45.056C215.367 44.5653 215.666 43.8827 215.666 43.008V38.592C215.666 37.7173 215.367 37.0453 214.77 36.576C214.194 36.0853 213.404 35.84 212.402 35.84H209.49V45.76H212.402ZM234.277 50.912C234 51.6373 233.52 52 232.837 52H226.789C226.597 52 226.426 51.936 226.277 51.808C226.149 51.6587 226.085 51.488 226.085 51.296L226.117 51.104L233.093 30.656C233.178 30.3787 233.338 30.1333 233.573 29.92C233.808 29.7067 234.128 29.6 234.533 29.6H243.429C243.834 29.6 244.154 29.7067 244.389 29.92C244.624 30.1333 244.784 30.3787 244.869 30.656L251.845 51.104L251.877 51.296C251.877 51.488 251.802 51.6587 251.653 51.808C251.525 51.936 251.365 52 251.173 52H245.125C244.442 52 243.962 51.6373 243.685 50.912L242.885 48.672H235.077L234.277 50.912ZM238.981 35.776L236.709 42.432H241.253L238.981 35.776ZM277.145 29.6C277.337 29.6 277.497 29.6747 277.625 29.824C277.774 29.952 277.849 30.1013 277.849 30.272C277.849 30.4 277.817 30.528 277.753 30.656L269.689 44V51.136C269.689 51.3707 269.603 51.5733 269.433 51.744C269.262 51.9147 269.059 52 268.825 52H262.009C261.774 52 261.571 51.9147 261.401 51.744C261.23 51.5733 261.145 51.3707 261.145 51.136V44L253.113 30.656C253.049 30.528 253.017 30.4107 253.017 30.304C253.017 30.112 253.081 29.952 253.209 29.824C253.358 29.6747 253.529 29.6 253.721 29.6H260.473C261.07 29.6 261.507 29.8453 261.785 30.336L265.401 36.672L269.113 30.4C269.433 29.8667 269.881 29.6 270.457 29.6H277.145Z" fill="white"/>
</g>
<defs>
<clipPath id="clip0_441_1580">
<rect width="346" height="141" fill="white"/>
</clipPath>
</defs>
</svg>
