<?xml version="1.0" encoding="UTF-8"?><svg id="Layer_1" xmlns="http://www.w3.org/2000/svg" width="650.78" height="264.55" xmlns:xlink="http://www.w3.org/1999/xlink" viewBox="0 0 650.78 264.55"><defs><style>.cls-1{clip-path:url(#clippath);}.cls-2{fill:none;}.cls-2,.cls-3,.cls-4{stroke-width:0px;}.cls-3{fill:#f54765;}.cls-4{fill:#fff;}</style><clipPath id="clippath"><rect class="cls-2" width="650.78" height="264.55"/></clipPath></defs><g class="cls-1"><path class="cls-3" d="M21.39,261.94l-.03-17.02L20.8,0H0v261.94l650.78,2.61v-20.45l-630.28-.05"/><path class="cls-3" d="M650.14.59l-22.42.59,1.59,242.87h21.47l-.64-243.46Z"/><path class="cls-3" d="M20.8,0h628.98l.41,18.63H20.86"/><path class="cls-3" d="M26.9,33.9c6.37,0,11.53-4.59,11.53-10.25s-5.16-10.25-11.53-10.25-11.53,4.59-11.53,10.25,5.16,10.25,11.53,10.25Z"/><path class="cls-3" d="M21.78,69.78c4.95,0,8.97-4.02,8.97-8.97s-4.01-8.97-8.97-8.97-8.97,4.02-8.97,8.97,4.01,8.97,8.97,8.97Z"/><path class="cls-3" d="M21.78,105.66c4.95,0,8.97-4.59,8.97-10.25s-4.01-10.25-8.97-10.25-8.97,4.59-8.97,10.25,4.01,10.25,8.97,10.25Z"/><path class="cls-3" d="M21.78,138.98c4.95,0,8.97-4.02,8.97-8.97s-4.01-8.97-8.97-8.97-8.97,4.02-8.97,8.97,4.01,8.97,8.97,8.97Z"/><path class="cls-3" d="M21.78,172.29c4.95,0,8.97-4.02,8.97-8.97s-4.01-8.97-8.97-8.97-8.97,4.02-8.97,8.97,4.01,8.97,8.97,8.97Z"/><path class="cls-3" d="M23.06,208.17c4.25,0,7.69-4.02,7.69-8.97s-3.44-8.97-7.69-8.97-7.69,4.02-7.69,8.97,3.44,8.97,7.69,8.97Z"/><path class="cls-3" d="M26.9,254.3c7.78,0,14.09-5.74,14.09-12.81s-6.31-12.81-14.09-12.81-14.09,5.74-14.09,12.81,6.31,12.81,14.09,12.81Z"/><path class="cls-3" d="M621.32,31.34c6.37,0,11.53-4.59,11.53-10.25s-5.16-10.25-11.53-10.25-11.53,4.59-11.53,10.25,5.16,10.25,11.53,10.25Z"/><path class="cls-3" d="M629.01,74.91c6.36,0,11.53-4.59,11.53-10.25s-5.16-10.25-11.53-10.25-11.53,4.59-11.53,10.25,5.16,10.25,11.53,10.25Z"/><path class="cls-3" d="M632.84,108.22c7.08,0,12.82-4.59,12.82-10.25s-5.74-10.25-12.82-10.25-12.81,4.59-12.81,10.25,5.74,10.25,12.81,10.25Z"/><path class="cls-3" d="M631.57,144.1c6.37,0,11.53-4.59,11.53-10.25s-5.16-10.25-11.53-10.25-11.53,4.59-11.53,10.25,5.16,10.25,11.53,10.25Z"/><path class="cls-3" d="M631.57,177.42c6.37,0,11.53-4.59,11.53-10.25s-5.16-10.25-11.53-10.25-11.53,4.59-11.53,10.25,5.16,10.25,11.53,10.25Z"/><path class="cls-3" d="M631.57,210.73c6.37,0,11.53-4.59,11.53-10.25s-5.16-10.25-11.53-10.25-11.53,4.59-11.53,10.25,5.16,10.25,11.53,10.25Z"/><path class="cls-3" d="M621.32,249.17c6.37,0,11.53-4.59,11.53-10.25s-5.16-10.25-11.53-10.25-11.53,4.59-11.53,10.25,5.16,10.25,11.53,10.25Z"/><path class="cls-4" d="M126.19,56.49c5.01,1.18,7.52,3.9,7.52,8.15,0,1.78-.59,3.36-1.77,4.72-1.15,1.36-2.77,2.43-4.84,3.19-2.07.73-4.42,1.1-7.04,1.1-3.12,0-5.71-.43-7.75-1.3-2.02-.89-3.5-1.97-4.45-3.23-.92-1.26-1.38-2.48-1.38-3.66,0-.26.08-.47.24-.63.18-.16.39-.24.63-.24h8.62c.29,0,.59.16.91.47.37.34.73.59,1.1.75.37.13,1.08.2,2.12.2s1.74-.2,2.24-.59c.5-.39.75-.89.75-1.5,0-1.15-1.01-1.73-3.03-1.73h-5.23c-.29,0-.54-.1-.75-.31s-.31-.46-.31-.75v-3.19c0-.37.08-.68.24-.94.16-.29.35-.5.59-.63l5.78-2.99h-11.02c-.29,0-.54-.1-.75-.31s-.31-.46-.31-.75v-5.55c0-.29.1-.54.31-.75.21-.21.46-.31.75-.31h21.48c.29,0,.54.1.75.31.21.21.31.46.31.75v5c0,.6-.28,1.13-.83,1.57l-4.88,3.15ZM185.11,45.71c4.43,0,7.98.96,10.62,2.87,2.68,1.91,4.01,4.88,4.01,8.89v4.01c0,4.09-1.32,7.08-3.97,8.97-2.62,1.86-6.18,2.79-10.66,2.79h-12.55c-.29,0-.54-.1-.75-.31-.21-.21-.31-.46-.31-.75v-25.42c0-.29.11-.54.31-.75.21-.21.46-.31.75-.31h12.55ZM185.3,65.58c1.23,0,2.2-.29,2.91-.87.73-.6,1.1-1.44,1.1-2.52v-5.43c0-1.08-.37-1.9-1.1-2.48-.71-.6-1.68-.91-2.91-.91h-3.58v12.2h3.58ZM212.2,71.91c-.34.89-.93,1.34-1.77,1.34h-7.44c-.24,0-.45-.08-.63-.24-.16-.18-.24-.39-.24-.63l.04-.24,8.58-25.14c.1-.34.3-.64.59-.91.29-.26.68-.39,1.18-.39h10.94c.5,0,.89.13,1.18.39.29.26.49.56.59.91l8.58,25.14.04.24c0,.24-.09.45-.28.63-.16.16-.35.24-.59.24h-7.44c-.84,0-1.43-.45-1.77-1.34l-.98-2.75h-9.6l-.98,2.75ZM217.99,53.3l-2.79,8.18h5.59l-2.79-8.18ZM264.91,45.71c.24,0,.43.09.59.28.18.16.28.34.28.55,0,.16-.04.31-.12.47l-9.92,16.41v8.77c0,.29-.1.54-.31.75-.21.21-.46.31-.75.31h-8.38c-.29,0-.54-.1-.75-.31-.21-.21-.31-.46-.31-.75v-8.77l-9.88-16.41c-.08-.16-.12-.3-.12-.43,0-.24.08-.43.24-.59.18-.18.39-.28.63-.28h8.3c.73,0,1.27.3,1.61.91l4.45,7.79,4.56-7.71c.39-.66.94-.98,1.65-.98h8.22ZM285.32,55.7c2.89.31,5.19.83,6.93,1.53,1.76.71,3.03,1.64,3.82,2.79.79,1.15,1.18,2.6,1.18,4.33,0,1.89-.62,3.54-1.85,4.96-1.21,1.39-2.89,2.47-5.04,3.23-2.15.73-4.6,1.1-7.36,1.1-3.07,0-5.67-.38-7.79-1.14-2.12-.76-3.71-1.77-4.76-3.03-1.05-1.29-1.57-2.69-1.57-4.21,0-.26.08-.47.24-.63.18-.16.41-.24.67-.24h8.07c.55,0,1,.17,1.34.51.45.42.94.71,1.5.87.55.13,1.32.2,2.32.2,2.49,0,3.74-.38,3.74-1.14,0-.31-.17-.58-.51-.79-.31-.24-.89-.43-1.73-.59-.81-.18-2.02-.37-3.62-.55-3.59-.42-6.35-1.31-8.26-2.68-1.91-1.39-2.87-3.34-2.87-5.86,0-1.78.54-3.36,1.61-4.72s2.6-2.43,4.56-3.19c1.99-.76,4.3-1.14,6.93-1.14s5.12.43,7.16,1.3c2.05.84,3.61,1.89,4.68,3.15,1.08,1.26,1.61,2.49,1.61,3.7,0,.26-.09.47-.28.63-.16.16-.38.24-.67.24h-8.46c-.45,0-.85-.16-1.22-.47-.29-.26-.63-.47-1.02-.63s-1-.24-1.81-.24c-1.76,0-2.64.37-2.64,1.1,0,.39.34.71,1.02.94.68.21,2.05.43,4.09.67ZM362.02,45.71c.29,0,.54.1.75.31.21.21.31.46.31.75v6.34c0,.29-.1.54-.31.75-.21.21-.46.31-.75.31h-8.46v18.02c0,.29-.1.54-.31.75-.21.21-.46.31-.75.31h-8.11c-.29,0-.54-.1-.75-.31-.21-.21-.31-.46-.31-.75v-18.02h-8.46c-.29,0-.54-.1-.75-.31-.21-.21-.31-.46-.31-.75v-6.34c0-.29.11-.54.31-.75.21-.21.46-.31.75-.31h27.15ZM386.44,65.18h7.12c.29,0,.54.1.75.31s.31.46.31.75v5.94c0,.29-.1.54-.31.75s-.46.31-.75.31h-24.95c-.29,0-.54-.1-.75-.31s-.31-.46-.31-.75v-5.94c0-.29.1-.54.31-.75s.46-.31.75-.31h7.2v-11.41h-7.2c-.29,0-.54-.1-.75-.31s-.31-.46-.31-.75v-5.94c0-.29.1-.54.31-.75.21-.21.46-.31.75-.31h24.95c.29,0,.54.1.75.31.21.21.31.46.31.75v5.94c0,.29-.1.54-.31.75s-.46.31-.75.31h-7.12v11.41ZM410.12,62.63c0,1.08.35,1.9,1.06,2.48.73.58,1.72.87,2.95.87,1.1,0,1.91-.18,2.44-.55.52-.37.97-.92,1.34-1.65.34-.68.8-1.02,1.38-1.02h8.5c.24,0,.43.09.59.28.18.16.28.35.28.59,0,1.6-.54,3.17-1.61,4.72-1.08,1.52-2.72,2.79-4.92,3.82-2.18,1-4.84,1.5-7.99,1.5-2.81,0-5.31-.42-7.52-1.26-2.18-.87-3.91-2.18-5.19-3.93-1.29-1.78-1.93-4-1.93-6.65v-4.64c0-2.65.64-4.85,1.93-6.61,1.29-1.78,3.02-3.1,5.19-3.93,2.2-.87,4.71-1.3,7.52-1.3,3.15,0,5.81.51,7.99,1.53,2.2,1,3.84,2.27,4.92,3.82,1.08,1.52,1.61,3.08,1.61,4.68,0,.24-.09.45-.28.63-.16.16-.35.24-.59.24h-8.5c-.58,0-1.04-.34-1.38-1.02-.37-.73-.81-1.29-1.34-1.65-.52-.37-1.34-.55-2.44-.55-1.23,0-2.22.29-2.95.87-.71.58-1.06,1.4-1.06,2.48v6.3ZM462.63,71.87c.1.16.16.33.16.51,0,.24-.09.45-.28.63-.16.16-.35.24-.59.24h-10.15c-.6,0-1.08-.21-1.42-.63l-6.85-8.46v8.03c0,.29-.1.54-.31.75s-.46.31-.75.31h-8.11c-.29,0-.54-.1-.75-.31-.21-.21-.31-.46-.31-.75v-25.42c0-.29.1-.54.31-.75.21-.21.46-.31.75-.31h8.11c.29,0,.54.1.75.31.21.21.31.46.31.75v7.4l6.22-7.79c.39-.45.88-.67,1.46-.67h9.48c.24,0,.43.09.59.28.18.16.28.35.28.59,0,.21-.07.39-.2.55l-9.33,11.37,10.62,13.38ZM491.78,65.58c.29,0,.54.1.75.31.21.21.31.46.31.75v5.55c0,.29-.11.54-.31.75-.21.21-.46.31-.75.31h-24.87c-.29,0-.54-.1-.75-.31-.21-.21-.31-.46-.31-.75v-25.42c0-.29.1-.54.31-.75.21-.21.46-.31.75-.31h24.48c.29,0,.54.1.75.31.21.21.31.46.31.75v5.55c0,.29-.11.54-.31.75-.21.21-.46.31-.75.31h-15.31v2.48h13.14c.29,0,.54.1.75.31.21.21.31.46.31.75v5.12c0,.29-.11.54-.31.75-.21.21-.46.31-.75.31h-13.14v2.48h15.7ZM525.25,45.71c.29,0,.54.1.75.31.21.21.31.46.31.75v6.34c0,.29-.1.54-.31.75-.21.21-.46.31-.75.31h-8.46v18.02c0,.29-.1.54-.31.75-.21.21-.46.31-.75.31h-8.11c-.29,0-.54-.1-.75-.31-.21-.21-.31-.46-.31-.75v-18.02h-8.46c-.29,0-.54-.1-.75-.31-.21-.21-.31-.46-.31-.75v-6.34c0-.29.11-.54.31-.75.21-.21.46-.31.75-.31h27.15Z"/><path class="cls-4" d="M56.31,97.78v1.27h-3.9v9.92h-1.36v-9.92h-3.9v-1.27h9.15ZM58.09,108.97v-12.37h1.36v5.17c.29-.51.68-.88,1.17-1.1.49-.23,1.02-.34,1.59-.34.61,0,1.16.12,1.66.36.5.23.89.58,1.19,1.05.31.47.46,1.08.46,1.81v5.42h-1.36v-4.95c0-.94-.2-1.59-.61-1.95-.4-.37-.89-.56-1.47-.56-.41,0-.81.1-1.22.29-.41.19-.75.51-1.02.95-.26.43-.39,1.01-.39,1.73v4.49h-1.36ZM72.13,109.14c-.8,0-1.52-.17-2.15-.53-.62-.35-1.11-.85-1.46-1.51-.35-.67-.53-1.46-.53-2.37s.17-1.7.53-2.36c.35-.67.83-1.18,1.44-1.53.61-.35,1.31-.53,2.08-.53s1.46.17,2.02.51c.56.34.99.8,1.29,1.39.29.58.44,1.23.44,1.95,0,.19,0,.37-.02.53-.01.16-.03.3-.05.42h-6.85v-1.2h6.25l-.69.14c0-.81-.23-1.44-.68-1.88-.44-.44-1.02-.66-1.75-.66-.55,0-1.03.13-1.44.39-.4.25-.71.62-.93,1.1-.21.47-.32,1.05-.32,1.73s.11,1.24.34,1.73c.23.49.54.86.95,1.12.42.25.92.37,1.49.37.62,0,1.12-.12,1.51-.36.4-.24.71-.56.95-.97l1.07.63c-.21.38-.49.72-.83,1-.33.28-.72.5-1.17.66-.44.15-.94.22-1.49.22ZM92.23,99.05h-6.48v3.61h5.05v1.27h-5.05v5.03h-1.36v-11.19h7.83v1.27ZM97.11,109.14c-.8,0-1.52-.17-2.15-.53-.62-.35-1.11-.85-1.46-1.51-.35-.67-.53-1.46-.53-2.37s.18-1.7.53-2.36c.35-.67.83-1.18,1.44-1.53.61-.35,1.31-.53,2.08-.53s1.46.17,2.02.51c.57.34.99.8,1.29,1.39.29.58.44,1.23.44,1.95,0,.19,0,.37-.02.53-.01.16-.03.3-.05.42h-6.85v-1.2h6.25l-.69.14c0-.81-.23-1.44-.68-1.88-.44-.44-1.02-.66-1.75-.66-.55,0-1.03.13-1.44.39-.4.25-.71.62-.93,1.1-.21.47-.32,1.05-.32,1.73s.11,1.24.34,1.73c.23.49.54.86.95,1.12.42.25.92.37,1.49.37.62,0,1.12-.12,1.51-.36.4-.24.71-.56.95-.97l1.07.63c-.21.38-.49.72-.83,1-.33.28-.72.5-1.17.66-.44.15-.94.22-1.49.22ZM106.4,109.14c-.82,0-1.59-.17-2.29-.53-.69-.35-1.22-.85-1.59-1.49l1.15-.83c.25.52.61.93,1.08,1.22.49.29,1.07.44,1.75.44.6,0,1.07-.11,1.41-.34.34-.24.51-.54.51-.92,0-.24-.08-.45-.24-.64-.15-.2-.43-.35-.86-.44l-2.03-.42c-.82-.17-1.42-.45-1.78-.85-.35-.4-.53-.89-.53-1.47,0-.46.13-.89.39-1.27.27-.38.65-.69,1.14-.92.5-.24,1.08-.36,1.75-.36.84,0,1.54.16,2.12.49.58.33,1.01.79,1.29,1.39l-1.14.75c-.19-.5-.5-.86-.93-1.08-.43-.24-.88-.36-1.34-.36-.41,0-.76.06-1.05.17-.28.11-.5.27-.66.47-.15.19-.22.41-.22.66s.08.48.25.69c.17.2.49.35.95.44l2.12.44c.79.16,1.35.42,1.66.78.32.36.47.8.47,1.32s-.14,1-.42,1.41c-.28.4-.68.7-1.19.92-.51.21-1.1.32-1.76.32ZM114.28,98.09v8.54c0,.42.12.73.36.93s.54.31.92.31c.33,0,.61-.06.85-.17.24-.11.45-.27.64-.46l.47,1.14c-.26.24-.57.42-.93.56-.35.14-.76.2-1.22.2-.43,0-.83-.07-1.2-.22-.37-.16-.67-.4-.9-.73-.21-.34-.33-.78-.34-1.32v-8.41l1.36-.37ZM117.37,100.49v1.17h-6.14v-1.17h6.14ZM120.06,98.87c-.31,0-.55-.09-.75-.27-.18-.19-.27-.44-.27-.75s.09-.55.27-.73c.19-.19.44-.29.75-.29s.55.1.73.29c.19.18.29.42.29.73s-.1.55-.29.75c-.18.18-.42.27-.73.27ZM120.74,100.49v8.48h-1.36v-8.48h1.36ZM129.5,100.49h1.42l-3.53,8.48h-1.36l-3.53-8.48h1.54l2.68,7.1,2.76-7.1ZM137.43,103.49c0-.63-.17-1.12-.51-1.46-.34-.35-.82-.53-1.44-.53-.59,0-1.08.13-1.49.39-.41.25-.71.66-.9,1.22l-1.1-.68c.23-.63.64-1.14,1.25-1.53.61-.4,1.37-.59,2.27-.59.61,0,1.16.11,1.66.32.5.2.89.52,1.17.95.29.42.44.96.44,1.63v4.1c0,.41.21.61.64.61.21,0,.42-.03.63-.08l-.07,1.07c-.23.11-.52.17-.88.17-.33,0-.62-.06-.88-.19-.26-.12-.46-.31-.61-.56-.15-.26-.22-.58-.22-.97v-.17l.34.05c-.14.44-.37.8-.69,1.08-.33.27-.69.47-1.1.61-.41.12-.81.19-1.2.19-.5,0-.96-.08-1.39-.25-.43-.17-.77-.42-1.03-.76-.25-.35-.37-.78-.37-1.29,0-.63.21-1.15.63-1.56.43-.42,1.02-.7,1.78-.85l3.36-.66v1.12l-2.73.56c-.55.11-.97.27-1.24.47-.27.2-.41.49-.41.85s.14.64.41.86c.28.21.68.32,1.19.32.33,0,.64-.04.93-.12.31-.09.58-.22.81-.39.24-.18.42-.4.56-.66.14-.27.2-.59.2-.95v-2.34ZM143.37,96.59v10.22c0,.43.08.73.24.9.16.16.41.24.76.24.23,0,.41-.02.56-.05.15-.03.34-.1.59-.19l-.22,1.19c-.18.08-.38.14-.59.17-.21.05-.44.07-.66.07-.69,0-1.2-.19-1.54-.56-.33-.37-.49-.94-.49-1.71v-10.27h1.36ZM156.65,97.78c.76,0,1.41.14,1.97.42.56.27,1.01.66,1.32,1.17.32.51.47,1.11.47,1.81s-.16,1.31-.47,1.81c-.32.51-.76.9-1.32,1.19-.55.27-1.21.41-1.97.41h-2.59v4.37h-1.36v-11.19h3.95ZM156.44,103.32c.88,0,1.53-.18,1.93-.54.41-.37.61-.9.61-1.59s-.2-1.23-.61-1.59-1.05-.54-1.93-.54h-2.39v4.27h2.39ZM167.74,103.49c0-.63-.17-1.12-.51-1.46-.34-.35-.82-.53-1.44-.53-.59,0-1.08.13-1.49.39-.41.25-.71.66-.9,1.22l-1.1-.68c.23-.63.64-1.14,1.25-1.53.61-.4,1.37-.59,2.27-.59.61,0,1.16.11,1.66.32.5.2.89.52,1.17.95.29.42.44.96.44,1.63v4.1c0,.41.21.61.64.61.21,0,.42-.03.63-.08l-.07,1.07c-.23.11-.52.17-.88.17-.33,0-.62-.06-.88-.19-.26-.12-.46-.31-.61-.56-.15-.26-.22-.58-.22-.97v-.17l.34.05c-.14.44-.37.8-.69,1.08-.33.27-.69.47-1.1.61-.41.12-.81.19-1.2.19-.5,0-.96-.08-1.39-.25-.43-.17-.77-.42-1.03-.76-.25-.35-.37-.78-.37-1.29,0-.63.21-1.15.63-1.56.43-.42,1.02-.7,1.78-.85l3.36-.66v1.12l-2.73.56c-.55.11-.97.27-1.24.47-.27.2-.41.49-.41.85s.14.64.41.86c.28.21.68.32,1.19.32.33,0,.64-.04.93-.12.31-.09.58-.22.81-.39.24-.18.42-.4.56-.66.14-.27.2-.59.2-.95v-2.34ZM175.44,109.14c-.83,0-1.59-.17-2.29-.53-.69-.35-1.22-.85-1.59-1.49l1.15-.83c.25.52.61.93,1.08,1.22.49.29,1.07.44,1.75.44.6,0,1.07-.11,1.41-.34.34-.24.51-.54.51-.92,0-.24-.08-.45-.24-.64-.15-.2-.44-.35-.86-.44l-2.03-.42c-.83-.17-1.42-.45-1.78-.85-.35-.4-.53-.89-.53-1.47,0-.46.13-.89.39-1.27.27-.38.65-.69,1.14-.92.5-.24,1.08-.36,1.75-.36.84,0,1.54.16,2.12.49s1.01.79,1.29,1.39l-1.14.75c-.19-.5-.5-.86-.93-1.08-.43-.24-.88-.36-1.34-.36-.41,0-.76.06-1.05.17-.28.11-.5.27-.66.47-.15.19-.22.41-.22.66s.08.48.25.69c.17.2.49.35.95.44l2.12.44c.79.16,1.34.42,1.66.78.32.36.47.8.47,1.32s-.14,1-.42,1.41c-.28.4-.68.7-1.19.92s-1.1.32-1.76.32ZM184.38,109.14c-.83,0-1.59-.17-2.29-.53-.69-.35-1.22-.85-1.59-1.49l1.15-.83c.25.52.61.93,1.08,1.22.49.29,1.07.44,1.75.44.6,0,1.07-.11,1.41-.34.34-.24.51-.54.51-.92,0-.24-.08-.45-.24-.64-.15-.2-.44-.35-.86-.44l-2.03-.42c-.83-.17-1.42-.45-1.78-.85-.35-.4-.53-.89-.53-1.47,0-.46.13-.89.39-1.27.27-.38.65-.69,1.14-.92.5-.24,1.08-.36,1.75-.36.84,0,1.54.16,2.12.49s1.01.79,1.29,1.39l-1.14.75c-.19-.5-.5-.86-.93-1.08-.43-.24-.88-.36-1.34-.36-.41,0-.76.06-1.05.17-.28.11-.5.27-.66.47-.15.19-.22.41-.22.66s.08.48.25.69c.17.2.49.35.95.44l2.12.44c.79.16,1.34.42,1.66.78.32.36.47.8.47,1.32s-.14,1-.42,1.41c-.28.4-.68.7-1.19.92s-1.1.32-1.76.32ZM48.19,132.5v-12.03h1.19l.12,2.07-.19-.24c.15-.4.37-.74.66-1.03.29-.31.65-.54,1.07-.71.42-.17.87-.25,1.36-.25.69,0,1.32.17,1.9.53.59.35,1.06.85,1.41,1.51.35.66.53,1.45.53,2.37s-.18,1.71-.54,2.37c-.35.66-.82,1.16-1.41,1.51-.59.35-1.23.53-1.93.53s-1.32-.17-1.85-.51c-.52-.35-.89-.79-1.12-1.32l.17-.25v5.48h-1.36ZM52.21,127.93c.84,0,1.49-.29,1.95-.88.47-.59.71-1.37.71-2.34s-.23-1.75-.69-2.34c-.45-.59-1.09-.88-1.92-.88-.54,0-1.02.14-1.42.41-.41.26-.72.63-.95,1.12-.23.47-.34,1.04-.34,1.7s.11,1.21.32,1.7c.23.49.54.86.93,1.14.41.26.88.39,1.41.39ZM58.82,128.95v-8.48h1.1l.19,1.39c.24-.52.58-.91,1.03-1.17.46-.26,1.02-.39,1.68-.39.15,0,.31.01.47.03.18.02.33.07.46.14l-.24,1.24c-.12-.05-.26-.08-.41-.1-.15-.02-.36-.03-.63-.03-.35,0-.71.1-1.07.31-.35.2-.64.51-.88.93-.24.41-.36.93-.36,1.56v4.58h-1.36ZM68.98,120.3c.8,0,1.51.17,2.12.53.62.35,1.11.86,1.46,1.53.35.66.53,1.44.53,2.36s-.17,1.71-.53,2.37c-.35.66-.84,1.16-1.46,1.51-.61.35-1.32.53-2.12.53s-1.5-.17-2.12-.53c-.62-.35-1.11-.85-1.46-1.51-.35-.67-.53-1.46-.53-2.37s.17-1.7.53-2.36c.35-.67.84-1.18,1.46-1.53.62-.35,1.33-.53,2.12-.53ZM68.98,121.47c-.58,0-1.07.13-1.47.39-.41.26-.72.63-.95,1.12-.21.47-.32,1.05-.32,1.73s.11,1.24.32,1.73c.23.49.54.86.95,1.12.41.26.9.39,1.47.39s1.07-.13,1.47-.39c.41-.26.72-.63.93-1.12.23-.49.34-1.06.34-1.73s-.11-1.25-.34-1.73c-.21-.49-.53-.86-.93-1.12-.41-.26-.9-.39-1.47-.39ZM81.25,120.47h1.42l-3.53,8.48h-1.36l-3.53-8.48h1.54l2.68,7.1,2.76-7.1ZM85.12,118.84c-.31,0-.55-.09-.75-.27-.18-.19-.27-.44-.27-.75s.09-.55.27-.73c.19-.19.44-.29.75-.29s.55.1.73.29c.19.18.29.42.29.73s-.1.55-.29.75c-.18.18-.42.27-.73.27ZM85.8,120.47v8.48h-1.36v-8.48h1.36ZM92.25,129.11c-.7,0-1.34-.17-1.93-.53-.59-.35-1.06-.85-1.41-1.51-.35-.67-.53-1.46-.53-2.37s.19-1.73.56-2.39c.37-.66.86-1.15,1.47-1.49.61-.35,1.27-.53,1.97-.53s1.31.18,1.81.54c.52.36.86.84,1.03,1.44l-.17.12v-5.83h1.36v12.37h-1.19l-.12-2.05.19-.1c-.08.5-.27.92-.58,1.27-.29.34-.66.6-1.1.78-.43.18-.89.27-1.37.27ZM92.39,127.93c.54,0,1.01-.14,1.41-.41.41-.27.72-.66.93-1.15.23-.51.34-1.1.34-1.78s-.11-1.2-.34-1.66c-.21-.46-.52-.82-.92-1.07-.38-.25-.84-.37-1.36-.37-.86,0-1.53.29-2,.88-.47.59-.71,1.37-.71,2.34s.23,1.75.69,2.34c.46.59,1.11.88,1.95.88ZM103.11,129.11c-.8,0-1.52-.17-2.15-.53-.62-.35-1.11-.85-1.46-1.51-.35-.67-.53-1.46-.53-2.37s.17-1.7.53-2.36c.35-.67.83-1.18,1.44-1.53.61-.35,1.31-.53,2.08-.53s1.46.17,2.02.51c.56.34.99.8,1.29,1.39.29.58.44,1.23.44,1.95,0,.19,0,.37-.02.53s-.03.3-.05.42h-6.85v-1.2h6.25l-.69.14c0-.81-.23-1.44-.68-1.88-.44-.44-1.02-.66-1.75-.66-.55,0-1.03.13-1.44.39-.4.25-.71.62-.93,1.1-.21.47-.32,1.05-.32,1.73s.11,1.24.34,1.73c.23.49.54.86.95,1.12.42.25.92.37,1.49.37.62,0,1.12-.12,1.51-.36.4-.24.71-.56.95-.97l1.07.63c-.21.38-.49.72-.83,1-.33.28-.72.5-1.17.66-.44.15-.94.22-1.49.22ZM112.41,129.11c-.83,0-1.59-.17-2.29-.53-.69-.35-1.22-.85-1.59-1.49l1.15-.83c.25.52.61.93,1.08,1.22.49.29,1.07.44,1.75.44.6,0,1.07-.11,1.41-.34.34-.24.51-.54.51-.92,0-.24-.08-.45-.24-.64-.15-.2-.44-.35-.86-.44l-2.03-.42c-.83-.17-1.42-.45-1.78-.85-.35-.4-.53-.89-.53-1.47,0-.46.13-.89.39-1.27.27-.38.65-.69,1.14-.92.5-.24,1.08-.36,1.75-.36.84,0,1.54.16,2.12.49s1.01.79,1.29,1.39l-1.14.75c-.19-.5-.5-.86-.93-1.08-.43-.24-.88-.36-1.34-.36-.41,0-.76.06-1.05.17-.28.11-.5.27-.66.47-.15.19-.22.41-.22.66s.08.48.25.69c.17.2.49.35.95.44l2.12.44c.79.16,1.34.42,1.66.78.32.36.47.8.47,1.32s-.14,1-.42,1.41c-.28.4-.68.7-1.19.92s-1.1.32-1.76.32ZM129.02,123.47c0-.63-.17-1.12-.51-1.46-.34-.35-.82-.53-1.44-.53-.59,0-1.08.13-1.49.39-.41.25-.71.66-.9,1.22l-1.1-.68c.23-.63.64-1.14,1.25-1.53.61-.4,1.37-.59,2.27-.59.61,0,1.16.11,1.66.32.5.2.89.52,1.17.95.29.42.44.96.44,1.63v4.1c0,.41.21.61.64.61.21,0,.42-.03.63-.08l-.07,1.07c-.23.11-.52.17-.88.17-.33,0-.62-.06-.88-.19-.26-.12-.46-.31-.61-.56-.15-.26-.22-.58-.22-.97v-.17l.34.05c-.14.44-.37.8-.69,1.08-.33.27-.69.47-1.1.61-.41.12-.81.19-1.2.19-.5,0-.96-.08-1.39-.25-.43-.17-.77-.42-1.03-.76-.25-.35-.37-.78-.37-1.29,0-.63.21-1.15.63-1.56.43-.42,1.02-.7,1.78-.85l3.36-.66v1.12l-2.73.56c-.55.11-.97.27-1.24.47-.27.2-.41.49-.41.85s.14.64.41.86c.28.21.68.32,1.19.32.33,0,.64-.04.93-.12.31-.09.58-.22.81-.39.24-.18.42-.4.56-.66.14-.27.2-.59.2-.95v-2.34ZM137.18,120.3c.59,0,1.1.09,1.54.27.45.18.84.44,1.17.78.33.34.59.74.8,1.2l-1.29.61c-.18-.54-.46-.95-.83-1.24-.36-.29-.84-.44-1.42-.44s-1.05.13-1.46.39c-.41.25-.72.62-.93,1.1-.21.47-.32,1.05-.32,1.73s.11,1.24.32,1.73c.21.49.53.86.93,1.12.41.25.89.37,1.46.37.44,0,.82-.07,1.14-.2.33-.14.59-.33.8-.59.21-.26.36-.58.44-.95l1.25.44c-.19.52-.46.97-.8,1.34-.33.37-.73.66-1.2.86-.46.19-.99.29-1.59.29-.79,0-1.5-.17-2.12-.53-.62-.35-1.11-.85-1.46-1.51-.35-.67-.53-1.46-.53-2.37s.17-1.7.53-2.36c.35-.67.84-1.18,1.46-1.53.62-.35,1.33-.53,2.12-.53ZM146.67,120.3c.59,0,1.1.09,1.54.27.45.18.84.44,1.17.78.33.34.59.74.8,1.2l-1.29.61c-.18-.54-.46-.95-.83-1.24-.36-.29-.84-.44-1.42-.44s-1.05.13-1.46.39c-.41.25-.72.62-.93,1.1-.21.47-.32,1.05-.32,1.73s.11,1.24.32,1.73c.21.49.53.86.93,1.12.41.25.89.37,1.46.37.44,0,.82-.07,1.14-.2.33-.14.59-.33.8-.59.21-.26.36-.58.44-.95l1.25.44c-.19.52-.46.97-.8,1.34-.33.37-.73.66-1.2.86-.46.19-.99.29-1.59.29-.79,0-1.5-.17-2.12-.53-.62-.35-1.11-.85-1.46-1.51-.35-.67-.53-1.46-.53-2.37s.17-1.7.53-2.36c.35-.67.84-1.18,1.46-1.53.62-.35,1.33-.53,2.12-.53ZM156.18,129.11c-.8,0-1.52-.17-2.15-.53-.62-.35-1.11-.85-1.46-1.51-.35-.67-.53-1.46-.53-2.37s.17-1.7.53-2.36c.35-.67.83-1.18,1.44-1.53.61-.35,1.31-.53,2.08-.53s1.46.17,2.02.51c.56.34.99.8,1.29,1.39.29.58.44,1.23.44,1.95,0,.19,0,.37-.02.53-.01.16-.03.3-.05.42h-6.85v-1.2h6.25l-.69.14c0-.81-.23-1.44-.68-1.88-.44-.44-1.02-.66-1.75-.66-.55,0-1.03.13-1.44.39-.4.25-.71.62-.93,1.1-.21.47-.32,1.05-.32,1.73s.11,1.24.34,1.73c.23.49.54.86.95,1.12.42.25.92.37,1.49.37.62,0,1.12-.12,1.51-.36.4-.24.71-.56.95-.97l1.07.63c-.21.38-.49.72-.83,1-.33.28-.72.5-1.17.66-.44.15-.94.22-1.49.22ZM165.48,129.11c-.82,0-1.59-.17-2.29-.53-.69-.35-1.22-.85-1.59-1.49l1.15-.83c.25.52.61.93,1.08,1.22.49.29,1.07.44,1.75.44.6,0,1.07-.11,1.41-.34.34-.24.51-.54.51-.92,0-.24-.08-.45-.24-.64-.15-.2-.43-.35-.86-.44l-2.03-.42c-.82-.17-1.42-.45-1.78-.85-.35-.4-.53-.89-.53-1.47,0-.46.13-.89.39-1.27.27-.38.65-.69,1.14-.92.5-.24,1.08-.36,1.75-.36.84,0,1.54.16,2.12.49s1.01.79,1.29,1.39l-1.14.75c-.19-.5-.5-.86-.93-1.08-.43-.24-.88-.36-1.34-.36-.41,0-.76.06-1.05.17-.28.11-.5.27-.66.47-.15.19-.22.41-.22.66s.08.48.25.69c.17.2.49.35.95.44l2.12.44c.79.16,1.35.42,1.66.78.32.36.47.8.47,1.32s-.14,1-.42,1.41c-.28.4-.68.7-1.19.92s-1.1.32-1.76.32ZM174.41,129.11c-.83,0-1.59-.17-2.29-.53-.69-.35-1.22-.85-1.59-1.49l1.15-.83c.25.52.61.93,1.08,1.22.49.29,1.07.44,1.75.44.6,0,1.07-.11,1.41-.34.34-.24.51-.54.51-.92,0-.24-.08-.45-.24-.64-.15-.2-.44-.35-.86-.44l-2.03-.42c-.83-.17-1.42-.45-1.78-.85-.35-.4-.53-.89-.53-1.47,0-.46.13-.89.39-1.27.27-.38.65-.69,1.14-.92.5-.24,1.08-.36,1.75-.36.84,0,1.54.16,2.12.49s1.01.79,1.29,1.39l-1.14.75c-.19-.5-.5-.86-.93-1.08-.43-.24-.88-.36-1.34-.36-.41,0-.76.06-1.05.17-.28.11-.5.27-.66.47-.15.19-.22.41-.22.66s.08.48.25.69c.17.2.49.35.95.44l2.12.44c.79.16,1.34.42,1.66.78s.47.8.47,1.32-.14,1-.42,1.41c-.28.4-.68.7-1.19.92s-1.1.32-1.76.32ZM187.75,118.06v8.54c0,.42.12.73.36.93s.54.31.92.31c.33,0,.61-.06.85-.17.24-.11.45-.27.64-.46l.47,1.14c-.26.24-.57.42-.93.56-.35.14-.76.2-1.22.2-.43,0-.83-.07-1.2-.22-.37-.16-.67-.4-.9-.73-.21-.34-.33-.78-.34-1.32v-8.41l1.36-.37ZM190.83,120.47v1.17h-6.14v-1.17h6.14ZM196.36,120.3c.8,0,1.51.17,2.12.53.62.35,1.11.86,1.46,1.53.35.66.53,1.44.53,2.36s-.17,1.71-.53,2.37c-.35.66-.84,1.16-1.46,1.51-.61.35-1.32.53-2.12.53s-1.5-.17-2.12-.53c-.62-.35-1.11-.85-1.46-1.51-.35-.67-.53-1.46-.53-2.37s.17-1.7.53-2.36c.35-.67.84-1.18,1.46-1.53.62-.35,1.33-.53,2.12-.53ZM196.36,121.47c-.58,0-1.07.13-1.47.39s-.72.63-.95,1.12c-.21.47-.32,1.05-.32,1.73s.11,1.24.32,1.73c.23.49.54.86.95,1.12s.9.39,1.47.39,1.07-.13,1.47-.39.72-.63.93-1.12c.23-.49.34-1.06.34-1.73s-.11-1.25-.34-1.73c-.21-.49-.53-.86-.93-1.12s-.9-.39-1.47-.39ZM213.74,123.47c0-.63-.17-1.12-.51-1.46-.34-.35-.82-.53-1.44-.53-.59,0-1.08.13-1.49.39-.41.25-.71.66-.9,1.22l-1.1-.68c.23-.63.64-1.14,1.25-1.53.61-.4,1.37-.59,2.27-.59.61,0,1.16.11,1.66.32.5.2.89.52,1.17.95.29.42.44.96.44,1.63v4.1c0,.41.21.61.64.61.21,0,.42-.03.63-.08l-.07,1.07c-.23.11-.52.17-.88.17-.33,0-.62-.06-.88-.19-.26-.12-.46-.31-.61-.56-.15-.26-.22-.58-.22-.97v-.17l.34.05c-.14.44-.37.8-.69,1.08-.33.27-.69.47-1.1.61-.41.12-.81.19-1.2.19-.5,0-.96-.08-1.39-.25-.43-.17-.77-.42-1.03-.76-.25-.35-.37-.78-.37-1.29,0-.63.21-1.15.63-1.56.43-.42,1.02-.7,1.78-.85l3.36-.66v1.12l-2.73.56c-.55.11-.97.27-1.24.47-.27.2-.41.49-.41.85s.14.64.41.86c.28.21.68.32,1.19.32.33,0,.64-.04.93-.12.31-.09.58-.22.81-.39.24-.18.42-.4.56-.66.14-.27.2-.59.2-.95v-2.34ZM219.68,116.57v10.22c0,.43.08.73.24.9.16.16.41.24.76.24.23,0,.41-.02.56-.05.15-.03.35-.1.59-.19l-.22,1.19c-.18.08-.38.14-.59.17-.21.05-.43.07-.66.07-.69,0-1.2-.19-1.54-.56-.33-.37-.49-.94-.49-1.71v-10.27h1.36ZM224.86,116.57v10.22c0,.43.08.73.24.9.16.16.41.24.76.24.23,0,.41-.02.56-.05.15-.03.34-.1.59-.19l-.22,1.19c-.18.08-.38.14-.59.17-.21.05-.44.07-.66.07-.69,0-1.2-.19-1.54-.56-.33-.37-.49-.94-.49-1.71v-10.27h1.36ZM237.27,129.11c-.99,0-1.88-.23-2.64-.69-.76-.47-1.27-1.12-1.54-1.95l1.36-.69c.14.42.32.79.56,1.1.24.31.55.54.93.71.4.17.89.25,1.47.25.5,0,.92-.09,1.25-.27.34-.18.6-.42.78-.73.18-.32.27-.68.27-1.08s-.08-.75-.24-1.02c-.15-.27-.38-.47-.71-.59-.33-.14-.76-.2-1.29-.2-.12,0-.26,0-.41.02-.15,0-.3.01-.46.03v-1.36c.1.01.2.02.29.02h.27c.83,0,1.41-.16,1.76-.47.35-.33.53-.84.53-1.53,0-.59-.18-1.03-.54-1.34-.36-.31-.88-.46-1.54-.46-.71,0-1.25.16-1.63.47-.37.31-.67.72-.88,1.25l-1.29-.61c.18-.47.45-.89.81-1.25.36-.36.8-.64,1.31-.85.52-.2,1.09-.31,1.71-.31.78,0,1.42.14,1.93.41.51.26.89.61,1.14,1.05.26.44.39.93.39,1.46,0,.41-.06.77-.17,1.1-.11.32-.27.59-.47.83-.19.24-.41.43-.66.58-.25.14-.51.23-.8.27v.03c.37.01.7.08.98.22.29.14.54.32.75.54s.36.49.46.78c.11.28.17.58.17.9,0,.66-.16,1.24-.49,1.75-.32.51-.76.91-1.34,1.2-.58.28-1.25.42-2.02.42ZM51.5,149.09c-.7,0-1.34-.17-1.93-.53-.59-.35-1.06-.85-1.41-1.51-.35-.67-.53-1.46-.53-2.37s.19-1.73.56-2.39c.37-.66.86-1.15,1.47-1.49.61-.35,1.27-.53,1.97-.53s1.31.18,1.81.54c.52.36.86.84,1.03,1.44l-.17.12v-5.83h1.36v12.37h-1.19l-.12-2.05.19-.1c-.08.5-.27.92-.58,1.27-.29.34-.66.6-1.1.78-.43.18-.89.27-1.37.27ZM51.63,147.91c.54,0,1.01-.14,1.41-.41.41-.27.72-.66.93-1.15.23-.51.34-1.1.34-1.78s-.11-1.2-.34-1.66c-.21-.46-.52-.82-.92-1.07-.38-.25-.84-.37-1.36-.37-.86,0-1.53.29-2,.88-.47.59-.71,1.37-.71,2.34s.23,1.75.69,2.34c.46.59,1.11.88,1.95.88ZM63.77,143.45c0-.63-.17-1.12-.51-1.46-.34-.35-.82-.53-1.44-.53-.59,0-1.08.13-1.49.39-.41.25-.71.66-.9,1.22l-1.1-.68c.23-.63.64-1.14,1.25-1.53.61-.4,1.37-.59,2.27-.59.61,0,1.16.11,1.66.32.5.2.89.52,1.17.95.29.42.44.96.44,1.63v4.1c0,.41.21.61.64.61.21,0,.42-.03.63-.08l-.07,1.07c-.23.11-.52.17-.88.17-.33,0-.62-.06-.88-.19-.26-.12-.46-.31-.61-.56-.15-.26-.22-.58-.22-.97v-.17l.34.05c-.14.44-.37.8-.69,1.08-.33.27-.69.47-1.1.61-.41.12-.81.19-1.2.19-.5,0-.96-.08-1.39-.25s-.77-.42-1.03-.76c-.25-.35-.37-.78-.37-1.29,0-.63.21-1.15.63-1.56.43-.42,1.02-.7,1.78-.85l3.36-.66v1.12l-2.73.56c-.55.11-.97.27-1.24.47-.27.2-.41.49-.41.85s.14.64.41.86c.28.21.68.32,1.19.32.33,0,.64-.04.93-.12.31-.09.58-.22.81-.39.24-.18.42-.4.56-.66.14-.27.2-.59.2-.95v-2.34ZM74.89,140.45l-3.98,9.9c-.21.55-.45.99-.71,1.31-.25.33-.53.56-.85.69-.31.15-.66.22-1.07.22-.38,0-.74-.06-1.07-.17-.32-.1-.6-.24-.85-.42l.37-1.19c.23.2.46.35.71.44.26.1.51.15.76.15.29,0,.57-.09.83-.27.26-.18.5-.55.71-1.1l.44-1.1-.85-2.02-2.7-6.44h1.54l2.12,5.53.53,1.51.61-1.68,1.98-5.36h1.46ZM79.5,149.09c-.83,0-1.59-.17-2.29-.53-.69-.35-1.22-.85-1.59-1.49l1.15-.83c.25.52.61.93,1.08,1.22.49.29,1.07.44,1.75.44.6,0,1.07-.11,1.41-.34.34-.24.51-.54.51-.92,0-.24-.08-.45-.24-.64-.15-.2-.44-.35-.86-.44l-2.03-.42c-.83-.17-1.42-.45-1.78-.85-.35-.4-.53-.89-.53-1.47,0-.46.13-.89.39-1.27.27-.38.65-.69,1.14-.92.5-.24,1.08-.36,1.75-.36.84,0,1.54.16,2.12.49.58.33,1.01.79,1.29,1.39l-1.14.75c-.19-.5-.5-.86-.93-1.08-.43-.24-.88-.36-1.34-.36-.41,0-.76.06-1.05.17-.28.11-.5.27-.66.47-.15.19-.22.41-.22.66s.08.48.25.69c.17.2.49.35.95.44l2.12.44c.79.16,1.34.42,1.66.78.32.36.47.8.47,1.32s-.14,1-.42,1.41c-.28.4-.68.7-1.19.92-.51.21-1.1.32-1.76.32ZM96.11,143.45c0-.63-.17-1.12-.51-1.46-.34-.35-.82-.53-1.44-.53-.59,0-1.08.13-1.49.39-.41.25-.71.66-.9,1.22l-1.1-.68c.23-.63.64-1.14,1.25-1.53.61-.4,1.37-.59,2.27-.59.61,0,1.16.11,1.66.32.5.2.89.52,1.17.95.29.42.44.96.44,1.63v4.1c0,.41.21.61.64.61.21,0,.42-.03.63-.08l-.07,1.07c-.23.11-.52.17-.88.17-.33,0-.62-.06-.88-.19-.26-.12-.46-.31-.61-.56-.15-.26-.22-.58-.22-.97v-.17l.34.05c-.14.44-.37.8-.69,1.08-.33.27-.69.47-1.1.61-.41.12-.81.19-1.2.19-.5,0-.96-.08-1.39-.25-.43-.17-.77-.42-1.03-.76-.25-.35-.37-.78-.37-1.29,0-.63.21-1.15.63-1.56.43-.42,1.02-.7,1.78-.85l3.36-.66v1.12l-2.73.56c-.55.11-.97.27-1.24.47-.27.2-.41.49-.41.85s.14.64.41.86c.28.21.68.32,1.19.32.33,0,.64-.04.93-.12.31-.09.58-.22.81-.39.24-.18.42-.4.56-.66.14-.27.2-.59.2-.95v-2.34ZM102.43,138.04v8.54c0,.42.12.73.36.93s.54.31.92.31c.33,0,.61-.06.85-.17.24-.11.45-.27.64-.46l.47,1.14c-.26.24-.57.42-.93.56-.35.14-.76.2-1.22.2-.43,0-.83-.07-1.2-.22-.37-.16-.67-.4-.9-.73-.21-.34-.33-.78-.34-1.32v-8.41l1.36-.37ZM105.52,140.45v1.17h-6.14v-1.17h6.14ZM122.33,137.74l-4.88,5-.2.22-3,3.07v-1.83l6.31-6.46h1.78ZM114.92,137.74v11.19h-1.36v-11.19h1.36ZM117.58,141.87l4.8,7.05h-1.63l-4.29-6.29,1.12-.76ZM129.15,143.45c0-.63-.17-1.12-.51-1.46-.34-.35-.82-.53-1.44-.53-.59,0-1.08.13-1.49.39-.41.25-.71.66-.9,1.22l-1.1-.68c.23-.63.64-1.14,1.25-1.53.61-.4,1.37-.59,2.27-.59.61,0,1.16.11,1.66.32.5.2.89.52,1.17.95.29.42.44.96.44,1.63v4.1c0,.41.21.61.64.61.21,0,.42-.03.63-.08l-.07,1.07c-.23.11-.52.17-.88.17-.33,0-.62-.06-.88-.19-.26-.12-.46-.31-.61-.56-.15-.26-.22-.58-.22-.97v-.17l.34.05c-.14.44-.37.8-.69,1.08-.33.27-.69.47-1.1.61-.41.12-.81.19-1.2.19-.5,0-.96-.08-1.39-.25-.43-.17-.77-.42-1.03-.76-.25-.35-.37-.78-.37-1.29,0-.63.21-1.15.63-1.56.43-.42,1.02-.7,1.78-.85l3.36-.66v1.12l-2.73.56c-.55.11-.97.27-1.24.47-.27.2-.41.49-.41.85s.14.64.41.86c.28.21.68.32,1.19.32.33,0,.64-.04.93-.12.31-.09.58-.22.81-.39.24-.18.42-.4.56-.66.14-.27.2-.59.2-.95v-2.34ZM133.8,148.92v-8.48h1.1l.19,1.39c.24-.52.58-.91,1.03-1.17.46-.26,1.02-.39,1.68-.39.15,0,.31.01.47.03.18.02.33.07.46.14l-.24,1.24c-.12-.05-.26-.08-.41-.1-.15-.02-.36-.03-.63-.03-.35,0-.71.1-1.07.31-.35.2-.64.51-.88.93-.24.41-.36.93-.36,1.56v4.58h-1.36ZM140.72,148.92v-8.48h1.1l.19,1.39c.24-.52.58-.91,1.03-1.17.46-.26,1.02-.39,1.68-.39.15,0,.31.01.47.03.18.02.33.07.46.14l-.24,1.24c-.12-.05-.26-.08-.41-.1-.15-.02-.36-.03-.63-.03-.35,0-.71.1-1.07.31-.35.2-.64.51-.88.93-.24.41-.36.93-.36,1.56v4.58h-1.36ZM150.71,149.09c-.54,0-1.06-.1-1.54-.31-.47-.2-.86-.53-1.17-.98-.29-.46-.44-1.06-.44-1.8v-5.56h1.36v5.2c0,.86.19,1.45.56,1.78.37.32.9.47,1.58.47.32,0,.63-.05.93-.15.31-.11.58-.28.81-.51.25-.24.44-.54.58-.9.15-.36.22-.79.22-1.29v-4.61h1.36v8.48h-1.19l-.08-1.29c-.29.51-.69.88-1.2,1.12-.5.23-1.08.34-1.76.34ZM161.16,149.09c-.83,0-1.59-.17-2.29-.53-.69-.35-1.22-.85-1.59-1.49l1.15-.83c.25.52.61.93,1.08,1.22.49.29,1.07.44,1.75.44.6,0,1.07-.11,1.41-.34.34-.24.51-.54.51-.92,0-.24-.08-.45-.24-.64-.15-.2-.44-.35-.86-.44l-2.03-.42c-.83-.17-1.42-.45-1.78-.85-.35-.4-.53-.89-.53-1.47,0-.46.13-.89.39-1.27.27-.38.65-.69,1.14-.92.5-.24,1.08-.36,1.75-.36.84,0,1.54.16,2.12.49.58.33,1.01.79,1.29,1.39l-1.14.75c-.19-.5-.5-.86-.93-1.08-.43-.24-.88-.36-1.34-.36-.41,0-.76.06-1.05.17-.28.11-.5.27-.66.47-.15.19-.22.41-.22.66s.08.48.25.69c.17.2.49.35.95.44l2.12.44c.79.16,1.34.42,1.66.78.32.36.47.8.47,1.32s-.14,1-.42,1.41c-.28.4-.68.7-1.19.92-.51.21-1.1.32-1.76.32ZM170.59,149.09c-.8,0-1.52-.17-2.15-.53-.62-.35-1.11-.85-1.46-1.51-.35-.67-.53-1.46-.53-2.37s.17-1.7.53-2.36c.35-.67.83-1.18,1.44-1.53.61-.35,1.31-.53,2.08-.53s1.46.17,2.02.51c.56.34.99.8,1.29,1.39.29.58.44,1.23.44,1.95,0,.19,0,.37-.02.53-.01.16-.03.3-.05.42h-6.85v-1.2h6.25l-.69.14c0-.81-.23-1.44-.68-1.88-.44-.44-1.02-.66-1.75-.66-.55,0-1.03.13-1.44.39-.4.25-.71.62-.93,1.1-.21.47-.32,1.05-.32,1.73s.11,1.24.34,1.73c.23.49.54.86.95,1.12.42.25.92.37,1.49.37.62,0,1.12-.12,1.51-.36.4-.24.71-.56.95-.97l1.07.63c-.21.38-.49.72-.83,1-.33.28-.72.5-1.17.66-.44.15-.94.22-1.49.22ZM178.11,136.55v10.22c0,.43.08.73.24.9.16.16.41.24.76.24.23,0,.41-.02.56-.05.15-.03.35-.1.59-.19l-.22,1.19c-.18.08-.38.14-.59.17-.21.05-.43.07-.66.07-.69,0-1.2-.19-1.54-.56-.33-.37-.49-.94-.49-1.71v-10.27h1.36ZM190.31,136.46c.29,0,.57.03.83.1.26.07.46.16.61.29l-.36,1.1c-.14-.09-.28-.15-.44-.19-.16-.05-.33-.07-.53-.07-.49,0-.86.12-1.14.36-.27.23-.41.59-.41,1.1v9.76h-1.36v-9.9c0-.37.06-.72.17-1.03.11-.32.28-.59.51-.81.24-.23.53-.4.88-.53s.76-.19,1.22-.19ZM191.72,140.45v1.17h-5.88v-1.17h5.88ZM193.53,148.92v-8.48h1.1l.19,1.39c.24-.52.58-.91,1.03-1.17.46-.26,1.02-.39,1.68-.39.15,0,.31.01.47.03.18.02.33.07.46.14l-.24,1.24c-.12-.05-.26-.08-.41-.1-.15-.02-.36-.03-.63-.03-.35,0-.71.1-1.07.31-.35.2-.64.51-.88.93-.24.41-.36.93-.36,1.56v4.58h-1.36ZM203.69,140.28c.8,0,1.51.17,2.12.53.62.35,1.11.86,1.46,1.53.35.66.53,1.44.53,2.36s-.17,1.71-.53,2.37c-.35.66-.84,1.16-1.46,1.51-.61.35-1.32.53-2.12.53s-1.5-.17-2.12-.53c-.62-.35-1.11-.85-1.46-1.51-.35-.67-.53-1.46-.53-2.37s.18-1.7.53-2.36c.35-.67.84-1.18,1.46-1.53.62-.35,1.33-.53,2.12-.53ZM203.69,141.45c-.58,0-1.07.13-1.47.39s-.72.63-.95,1.12c-.21.47-.32,1.05-.32,1.73s.11,1.24.32,1.73c.23.49.54.86.95,1.12s.9.39,1.47.39,1.07-.13,1.47-.39.72-.63.93-1.12c.23-.49.34-1.06.34-1.73s-.11-1.25-.34-1.73c-.21-.49-.53-.86-.93-1.12s-.9-.39-1.47-.39ZM210.35,148.92v-8.48h1.19l.08,1.32c.31-.52.7-.9,1.19-1.14.5-.24,1.01-.36,1.53-.36.6,0,1.16.14,1.7.41.53.27.94.69,1.22,1.25.18-.38.44-.69.76-.93.33-.25.68-.43,1.07-.54.4-.12.77-.19,1.12-.19.54,0,1.06.11,1.54.34.5.23.9.58,1.22,1.05.32.47.47,1.08.47,1.83v5.42h-1.36v-5.29c0-.77-.19-1.32-.58-1.66-.38-.34-.86-.51-1.42-.51-.44,0-.85.11-1.24.32-.38.21-.69.53-.93.95-.23.42-.34.93-.34,1.54v4.64h-1.36v-5.29c0-.77-.19-1.32-.58-1.66-.38-.34-.86-.51-1.42-.51-.37,0-.76.1-1.15.31-.38.19-.71.5-.97.93-.26.43-.39.99-.39,1.7v4.53h-1.36ZM47.87,168.9v-1.1c1.12-.83,2.05-1.55,2.8-2.17.76-.62,1.36-1.19,1.81-1.7.45-.51.77-.99.97-1.44.19-.46.29-.94.29-1.44,0-.67-.21-1.2-.64-1.61-.42-.42-.99-.63-1.73-.63s-1.38.25-1.85.76c-.46.5-.73,1.16-.81,2l-1.19-.71c.1-.66.31-1.23.63-1.73.33-.5.76-.89,1.31-1.17.55-.28,1.21-.42,1.97-.42.58,0,1.09.08,1.54.25.46.17.86.41,1.19.73.33.31.58.67.75,1.1.18.43.27.9.27,1.42,0,.7-.17,1.39-.51,2.07-.34.67-.9,1.37-1.68,2.1-.78.73-1.84,1.55-3.17,2.44v.02c.12-.01.29-.02.51-.02.23-.01.45-.02.66-.02.23-.01.4-.02.51-.02h3.92v1.27h-7.53ZM57.75,168.9v-1.1c1.12-.83,2.05-1.55,2.8-2.17.76-.62,1.36-1.19,1.81-1.7.45-.51.77-.99.97-1.44.19-.46.29-.94.29-1.44,0-.67-.21-1.2-.64-1.61-.42-.42-.99-.63-1.73-.63s-1.38.25-1.85.76c-.46.5-.73,1.16-.81,2l-1.19-.71c.1-.66.31-1.23.63-1.73.33-.5.76-.89,1.31-1.17.55-.28,1.21-.42,1.97-.42.58,0,1.09.08,1.54.25.46.17.86.41,1.19.73.33.31.58.67.75,1.1.18.43.27.9.27,1.42,0,.7-.17,1.39-.51,2.07-.34.67-.9,1.37-1.68,2.1-.78.73-1.84,1.55-3.17,2.44v.02c.12-.01.29-.02.51-.02.23-.01.45-.02.66-.02.23-.01.4-.02.51-.02h3.92v1.27h-7.53ZM75.91,163.83v1.27h-8.48v-1.27h8.48ZM77.88,168.9v-1.1c1.12-.83,2.05-1.55,2.8-2.17.76-.62,1.36-1.19,1.81-1.7.45-.51.77-.99.97-1.44.19-.46.29-.94.29-1.44,0-.67-.21-1.2-.64-1.61-.42-.42-.99-.63-1.73-.63s-1.38.25-1.85.76c-.46.5-.73,1.16-.81,2l-1.19-.71c.1-.66.31-1.23.63-1.73.33-.5.76-.89,1.31-1.17.55-.28,1.21-.42,1.97-.42.58,0,1.09.08,1.54.25.46.17.86.41,1.19.73.33.31.58.67.75,1.1.18.43.27.9.27,1.42,0,.7-.17,1.39-.51,2.07-.34.67-.9,1.37-1.68,2.1-.78.73-1.84,1.55-3.17,2.44v.02c.12-.01.29-.02.51-.02.23-.01.45-.02.66-.02.23-.01.4-.02.51-.02h3.92v1.27h-7.53ZM92.2,168.9v-2.93h-5.46v-1l5.1-7.25h1.71v7.09h1.98v1.17h-1.98v2.93h-1.36ZM88.18,164.8h4.02v-4.19c0-.29,0-.59.02-.9.02-.31.04-.6.05-.9h-.03c-.14.28-.31.6-.53.95-.21.35-.41.66-.59.92l-2.93,4.12ZM112.2,168.9h-1.44l-1.19-3.1h-5.07l-1.19,3.1h-1.42l4.36-11.19h1.61l4.34,11.19ZM105,164.53h4.09l-2.05-5.51-2.03,5.51ZM117.14,169.07c-.54,0-1.06-.1-1.54-.31-.47-.2-.86-.53-1.17-.98-.29-.46-.44-1.06-.44-1.8v-5.56h1.36v5.2c0,.86.19,1.45.56,1.78.37.32.9.47,1.58.47.32,0,.63-.05.93-.15.31-.11.58-.28.81-.51.25-.24.44-.54.58-.9.15-.36.22-.79.22-1.29v-4.61h1.36v8.48h-1.19l-.08-1.29c-.29.51-.69.88-1.2,1.12-.5.23-1.08.34-1.76.34ZM131.67,158.87l.31,1.2h-.12c-.55,0-.98.11-1.29.34-.29.21-.44.56-.44,1.05l-.83-.42c0-.44.1-.83.31-1.15.2-.33.48-.58.83-.75.35-.18.73-.27,1.15-.27h.08ZM129.09,167.82c.8,0,1.43.19,1.88.56.45.36.68.85.68,1.46,0,.55-.19,1.03-.56,1.44-.36.41-.85.72-1.47.93-.61.23-1.3.34-2.07.34-1.33,0-2.33-.23-3-.68-.66-.45-.98-.99-.98-1.63,0-.45.15-.86.44-1.22.31-.35.81-.55,1.53-.59l-.12.25c-.38-.1-.71-.27-.98-.51-.26-.25-.39-.6-.39-1.07s.17-.86.51-1.19c.35-.34.86-.55,1.54-.63l.9.46h-.17c-.55.06-.95.2-1.19.42-.23.21-.34.45-.34.71,0,.32.11.55.34.71.24.15.57.22.98.22h2.47ZM127.53,171.41c.66,0,1.19-.07,1.61-.2.43-.14.75-.31.95-.53s.31-.45.31-.69c0-.31-.12-.55-.37-.73-.24-.18-.67-.27-1.31-.27h-2.61c-.36,0-.67.09-.92.27-.25.19-.37.45-.37.78,0,.42.24.75.71,1,.49.25,1.15.37,2,.37ZM127.42,160.26c.68,0,1.28.12,1.8.37.53.24.94.57,1.24,1,.29.43.44.93.44,1.49s-.15,1.05-.44,1.49c-.29.43-.71.77-1.24,1.02-.52.24-1.12.36-1.8.36-1.12,0-1.98-.27-2.58-.8-.6-.54-.9-1.23-.9-2.07,0-.56.15-1.06.44-1.49.31-.43.72-.76,1.24-1,.52-.25,1.12-.37,1.8-.37ZM127.42,161.36c-.59,0-1.08.16-1.47.49-.4.32-.59.74-.59,1.27s.2.94.59,1.27c.4.33.89.49,1.47.49s1.08-.16,1.47-.49c.4-.33.59-.75.59-1.27s-.2-.95-.59-1.27c-.4-.33-.89-.49-1.47-.49ZM136.62,169.07c-.54,0-1.06-.1-1.54-.31-.47-.2-.86-.53-1.17-.98-.29-.46-.44-1.06-.44-1.8v-5.56h1.36v5.2c0,.86.19,1.45.56,1.78.37.32.9.47,1.58.47.32,0,.63-.05.93-.15.31-.11.58-.28.81-.51.25-.24.44-.54.58-.9.15-.36.22-.79.22-1.29v-4.61h1.36v8.48h-1.19l-.08-1.29c-.29.51-.69.88-1.2,1.12-.5.23-1.08.34-1.76.34ZM147.07,169.07c-.83,0-1.59-.17-2.29-.53-.69-.35-1.22-.85-1.59-1.49l1.15-.83c.25.52.61.93,1.08,1.22.49.29,1.07.44,1.75.44.6,0,1.07-.11,1.41-.34.34-.24.51-.54.51-.92,0-.24-.08-.45-.24-.64-.15-.2-.44-.35-.86-.44l-2.03-.42c-.83-.17-1.42-.45-1.78-.85-.35-.4-.53-.89-.53-1.47,0-.46.13-.89.39-1.27.27-.38.65-.69,1.14-.92.5-.24,1.08-.36,1.75-.36.84,0,1.54.16,2.12.49.58.33,1.01.79,1.29,1.39l-1.14.75c-.19-.5-.5-.86-.93-1.08-.43-.24-.88-.36-1.34-.36-.41,0-.76.06-1.05.17-.28.11-.5.27-.66.47-.15.19-.22.41-.22.66s.08.48.25.69c.17.2.49.35.95.44l2.12.44c.79.16,1.34.42,1.66.78.32.36.47.8.47,1.32s-.14,1-.42,1.41c-.28.4-.68.7-1.19.92-.51.21-1.1.32-1.76.32ZM154.96,158.02v8.54c0,.42.12.73.36.93s.54.31.92.31c.33,0,.61-.06.85-.17.24-.11.45-.27.64-.46l.47,1.14c-.26.24-.57.42-.93.56-.35.14-.76.2-1.22.2-.43,0-.83-.07-1.2-.22-.37-.16-.67-.4-.9-.73-.21-.34-.33-.78-.34-1.32v-8.41l1.36-.37ZM158.04,160.42v1.17h-6.14v-1.17h6.14ZM165.51,168.9v-1.1c1.12-.83,2.05-1.55,2.8-2.17.76-.62,1.36-1.19,1.81-1.7.45-.51.77-.99.97-1.44.19-.46.29-.94.29-1.44,0-.67-.21-1.2-.64-1.61-.42-.42-.99-.63-1.73-.63s-1.38.25-1.85.76c-.46.5-.73,1.16-.81,2l-1.19-.71c.1-.66.31-1.23.63-1.73.33-.5.76-.89,1.31-1.17.55-.28,1.21-.42,1.97-.42.58,0,1.09.08,1.54.25.46.17.86.41,1.19.73.33.31.58.67.75,1.1.18.43.27.9.27,1.42,0,.7-.17,1.39-.51,2.07-.34.67-.9,1.37-1.68,2.1-.78.73-1.84,1.55-3.17,2.44v.02c.12-.01.29-.02.51-.02.23-.01.45-.02.66-.02.23-.01.4-.02.51-.02h3.92v1.27h-7.53ZM179.41,169.07c-1.27,0-2.28-.49-3.03-1.47-.76-.98-1.14-2.41-1.14-4.29s.38-3.31,1.14-4.29c.76-.98,1.77-1.47,3.03-1.47s2.29.49,3.03,1.47c.76.98,1.14,2.41,1.14,4.29s-.38,3.31-1.14,4.29c-.75.98-1.76,1.47-3.03,1.47ZM179.41,167.85c.6,0,1.1-.17,1.51-.51.42-.35.73-.86.93-1.54.21-.68.32-1.51.32-2.49s-.11-1.81-.32-2.49c-.2-.68-.51-1.19-.93-1.53-.41-.35-.91-.53-1.51-.53s-1.11.17-1.53.53c-.41.34-.72.85-.93,1.53-.2.68-.31,1.51-.31,2.49s.1,1.81.31,2.49c.21.68.53,1.19.93,1.54.42.34.93.51,1.53.51ZM185.94,168.9v-1.1c1.12-.83,2.05-1.55,2.8-2.17.76-.62,1.36-1.19,1.81-1.7.45-.51.77-.99.97-1.44.19-.46.29-.94.29-1.44,0-.67-.21-1.2-.64-1.61-.42-.42-.99-.63-1.73-.63s-1.38.25-1.85.76c-.46.5-.73,1.16-.81,2l-1.19-.71c.1-.66.31-1.23.63-1.73.33-.5.76-.89,1.31-1.17.55-.28,1.21-.42,1.97-.42.58,0,1.09.08,1.54.25.46.17.86.41,1.19.73.33.31.58.67.75,1.1.18.43.27.9.27,1.42,0,.7-.17,1.39-.51,2.07-.34.67-.9,1.37-1.68,2.1-.78.73-1.84,1.55-3.17,2.44v.02c.12-.01.29-.02.51-.02.23-.01.45-.02.66-.02.23-.01.4-.02.51-.02h3.92v1.27h-7.53ZM200.26,168.9v-2.93h-5.46v-1l5.1-7.25h1.71v7.09h1.98v1.17h-1.98v2.93h-1.36ZM196.24,164.8h4.02v-4.19c0-.29,0-.59.02-.9.02-.31.04-.6.05-.9h-.03c-.14.28-.31.6-.53.95-.21.35-.41.66-.59.92l-2.93,4.12ZM206.49,166.87c.33,0,.59.1.8.31s.31.47.31.8-.1.59-.31.8-.47.31-.8.31-.59-.1-.8-.31-.31-.47-.31-.8.1-.59.31-.8.47-.31.8-.31Z"/><path class="cls-4" d="M56.31,202.51v1.27h-3.9v9.92h-1.36v-9.92h-3.9v-1.27h9.15ZM60.09,213.87c-.8,0-1.52-.17-2.15-.53-.62-.35-1.11-.85-1.46-1.51-.35-.67-.53-1.46-.53-2.37s.18-1.7.53-2.36c.35-.67.83-1.18,1.44-1.53.61-.35,1.31-.53,2.08-.53s1.46.17,2.02.51c.56.34.99.8,1.29,1.39.29.58.44,1.23.44,1.95,0,.19,0,.37-.02.53-.01.16-.03.3-.05.42h-6.85v-1.2h6.25l-.69.14c0-.81-.23-1.44-.68-1.88-.44-.44-1.02-.66-1.75-.66-.55,0-1.03.13-1.44.39-.4.25-.71.62-.93,1.1-.21.47-.32,1.05-.32,1.73s.11,1.24.34,1.73c.23.49.54.86.95,1.12.42.25.92.37,1.49.37.62,0,1.12-.12,1.51-.36.4-.24.71-.56.95-.97l1.07.63c-.21.38-.49.72-.83,1-.33.28-.72.5-1.17.66-.44.15-.94.22-1.49.22ZM66.33,213.7v-8.48h1.1l.19,1.39c.24-.52.58-.91,1.03-1.17.46-.26,1.02-.39,1.68-.39.15,0,.31.01.47.03.18.02.33.07.46.14l-.24,1.24c-.12-.05-.26-.08-.41-.1-.15-.02-.36-.03-.63-.03-.35,0-.71.1-1.07.31-.35.2-.64.51-.88.93-.24.41-.36.93-.36,1.56v4.58h-1.36ZM73.25,213.7v-8.48h1.19l.08,1.32c.31-.52.7-.9,1.19-1.14.5-.24,1.01-.36,1.53-.36.6,0,1.16.14,1.7.41.53.27.94.69,1.22,1.25.18-.38.44-.69.76-.93.33-.25.68-.43,1.07-.54.4-.12.77-.19,1.12-.19.54,0,1.06.11,1.54.34.5.23.9.58,1.22,1.05.32.47.47,1.08.47,1.83v5.42h-1.36v-5.29c0-.77-.19-1.32-.58-1.66-.38-.34-.86-.51-1.42-.51-.44,0-.85.11-1.24.32-.38.21-.69.53-.93.95-.23.42-.34.93-.34,1.54v4.64h-1.36v-5.29c0-.77-.19-1.32-.58-1.66-.38-.34-.86-.51-1.42-.51-.37,0-.76.1-1.15.31-.38.19-.71.5-.97.93-.26.43-.39.99-.39,1.7v4.53h-1.36ZM92.46,213.87c-.83,0-1.59-.17-2.29-.53-.69-.35-1.22-.85-1.59-1.49l1.15-.83c.25.52.61.93,1.08,1.22.49.29,1.07.44,1.75.44.6,0,1.07-.11,1.41-.34.34-.24.51-.54.51-.92,0-.24-.08-.45-.24-.64-.15-.2-.44-.35-.86-.44l-2.03-.42c-.83-.17-1.42-.45-1.78-.85-.35-.4-.53-.89-.53-1.47,0-.46.13-.89.39-1.27.27-.38.65-.69,1.14-.92.5-.24,1.08-.36,1.75-.36.84,0,1.54.16,2.12.49.58.33,1.01.79,1.29,1.39l-1.14.75c-.19-.5-.5-.86-.93-1.08-.43-.24-.88-.36-1.34-.36-.41,0-.76.06-1.05.17-.28.11-.5.27-.66.47-.15.19-.22.41-.22.66s.08.48.25.69c.17.2.49.35.95.44l2.12.44c.79.16,1.34.42,1.66.78.32.36.47.8.47,1.32s-.14,1-.42,1.41c-.28.4-.68.7-1.19.92-.51.21-1.1.32-1.76.32ZM99.28,205.05c.33,0,.59.1.8.31s.31.47.31.8-.1.59-.31.8-.47.31-.8.31-.59-.1-.8-.31c-.2-.2-.31-.47-.31-.8s.1-.59.31-.8c.2-.2.47-.31.8-.31ZM99.28,211.66c.33,0,.59.1.8.31s.31.47.31.8-.1.59-.31.8-.47.31-.8.31-.59-.1-.8-.31c-.2-.2-.31-.47-.31-.8s.1-.59.31-.8c.2-.2.47-.31.8-.31ZM117.63,213.7h-1.44l-1.19-3.1h-5.07l-1.19,3.1h-1.42l4.36-11.19h1.61l4.34,11.19ZM110.43,209.32h4.09l-2.05-5.51-2.03,5.51ZM126.79,203.66l.31,1.2h-.12c-.55,0-.98.11-1.29.34-.29.21-.44.56-.44,1.05l-.83-.42c0-.44.1-.83.31-1.15.2-.33.48-.58.83-.75.35-.18.73-.27,1.15-.27h.08ZM124.21,212.61c.8,0,1.43.19,1.88.56.45.36.68.85.68,1.46,0,.55-.19,1.03-.56,1.44-.36.41-.85.72-1.47.93-.61.23-1.3.34-2.07.34-1.33,0-2.33-.23-3-.68-.66-.45-.98-.99-.98-1.63,0-.45.15-.86.44-1.22.31-.35.81-.55,1.53-.59l-.12.25c-.38-.1-.71-.27-.98-.51-.26-.25-.39-.6-.39-1.07s.17-.86.51-1.19c.35-.34.86-.55,1.54-.63l.9.46h-.17c-.55.06-.95.2-1.19.42-.23.21-.34.45-.34.71,0,.32.11.55.34.71.24.15.56.22.98.22h2.47ZM122.65,216.21c.66,0,1.19-.07,1.61-.2.43-.14.75-.31.95-.53.2-.21.31-.45.31-.69,0-.31-.12-.55-.37-.73-.24-.18-.67-.27-1.31-.27h-2.61c-.36,0-.67.09-.92.27-.25.19-.37.45-.37.78,0,.42.24.75.71,1,.49.25,1.15.37,2,.37ZM122.53,205.05c.68,0,1.28.12,1.8.37.53.24.94.57,1.24,1,.29.43.44.93.44,1.49s-.15,1.05-.44,1.49c-.29.43-.71.77-1.24,1.02-.52.24-1.12.36-1.8.36-1.12,0-1.98-.27-2.58-.8-.6-.54-.9-1.23-.9-2.07,0-.56.15-1.06.44-1.49.31-.43.72-.76,1.24-1,.52-.25,1.12-.37,1.8-.37ZM122.53,206.16c-.59,0-1.08.16-1.47.49-.4.32-.59.74-.59,1.27s.2.94.59,1.27c.4.33.89.49,1.47.49s1.08-.16,1.47-.49c.4-.33.59-.75.59-1.27s-.2-.95-.59-1.27c-.4-.33-.89-.49-1.47-.49ZM132.21,213.87c-.8,0-1.52-.17-2.15-.53-.62-.35-1.11-.85-1.46-1.51-.35-.67-.53-1.46-.53-2.37s.18-1.7.53-2.36c.35-.67.83-1.18,1.44-1.53.61-.35,1.31-.53,2.08-.53s1.46.17,2.02.51c.57.34.99.8,1.29,1.39.29.58.44,1.23.44,1.95,0,.19,0,.37-.02.53-.01.16-.03.3-.05.42h-6.85v-1.2h6.25l-.69.14c0-.81-.23-1.44-.68-1.88-.44-.44-1.02-.66-1.75-.66-.55,0-1.03.13-1.44.39-.4.25-.71.62-.93,1.1-.21.47-.32,1.05-.32,1.73s.11,1.24.34,1.73c.23.49.54.86.95,1.12.42.25.92.37,1.49.37.62,0,1.12-.12,1.51-.36.4-.24.71-.56.95-.97l1.07.63c-.21.38-.49.72-.83,1-.33.28-.72.5-1.17.66-.44.15-.94.22-1.49.22ZM145.52,201.32v10.22c0,.43.08.73.24.9.16.16.41.24.76.24.23,0,.41-.02.56-.05.15-.03.35-.1.59-.19l-.22,1.19c-.18.08-.38.14-.59.17-.21.05-.43.07-.66.07-.69,0-1.2-.19-1.54-.56-.33-.37-.49-.94-.49-1.71v-10.27h1.36ZM150.09,203.6c-.31,0-.55-.09-.75-.27-.18-.19-.27-.44-.27-.75s.09-.55.27-.73c.19-.19.44-.29.75-.29s.55.1.73.29c.19.18.29.42.29.73s-.1.55-.29.75c-.18.18-.42.27-.73.27ZM150.77,205.22v8.48h-1.36v-8.48h1.36ZM153.92,213.7v-8.48h1.19l.08,1.32c.31-.52.7-.9,1.19-1.14.5-.24,1.01-.36,1.53-.36.6,0,1.16.14,1.7.41.53.27.94.69,1.22,1.25.18-.38.43-.69.76-.93.33-.25.68-.43,1.07-.54.4-.12.77-.19,1.12-.19.54,0,1.06.11,1.54.34.5.23.9.58,1.22,1.05.32.47.47,1.08.47,1.83v5.42h-1.36v-5.29c0-.77-.19-1.32-.58-1.66-.38-.34-.86-.51-1.42-.51-.44,0-.85.11-1.24.32-.38.21-.69.53-.93.95-.23.42-.34.93-.34,1.54v4.64h-1.36v-5.29c0-.77-.19-1.32-.58-1.66-.38-.34-.86-.51-1.42-.51-.37,0-.76.1-1.15.31-.38.19-.71.5-.97.93-.26.43-.39.99-.39,1.7v4.53h-1.36ZM170.75,203.6c-.31,0-.55-.09-.75-.27-.18-.19-.27-.44-.27-.75s.09-.55.27-.73c.19-.19.44-.29.75-.29s.55.1.73.29c.19.18.29.42.29.73s-.1.55-.29.75c-.18.18-.42.27-.73.27ZM171.43,205.22v8.48h-1.36v-8.48h1.36ZM176.58,202.82v8.54c0,.42.12.73.36.93s.54.31.92.31c.33,0,.61-.06.85-.17.24-.11.45-.27.64-.46l.47,1.14c-.26.24-.57.42-.93.56-.35.14-.76.2-1.22.2-.43,0-.83-.07-1.2-.22-.37-.16-.67-.4-.9-.73-.21-.34-.33-.78-.34-1.32v-8.41l1.36-.37ZM179.66,205.22v1.17h-6.14v-1.17h6.14ZM189.07,213.7v-8.81c.01-.23.02-.46.03-.69-.38.37-.83.7-1.34.98-.51.27-1.03.47-1.56.59l-.36-1.24c.2-.02.46-.1.76-.22.32-.14.64-.3.98-.49.35-.2.67-.42.97-.64.29-.23.52-.45.68-.66h1.19v11.19h-1.36ZM197.37,202.36c.72,0,1.35.12,1.88.36.53.24.94.58,1.24,1.02.29.43.44.95.44,1.56,0,.58-.14,1.08-.42,1.53-.27.43-.66.76-1.15.98v.02c.63.24,1.14.6,1.51,1.08.38.49.58,1.08.58,1.78,0,.66-.17,1.22-.51,1.7s-.81.84-1.42,1.1c-.6.26-1.31.39-2.14.39s-1.53-.13-2.14-.39c-.61-.26-1.08-.63-1.42-1.1s-.51-1.04-.51-1.7c0-.69.19-1.28.56-1.76.37-.5.89-.86,1.54-1.1v-.02c-.49-.21-.88-.54-1.17-.97-.28-.44-.42-.95-.42-1.54s.15-1.13.44-1.56c.29-.44.71-.78,1.24-1.02.54-.24,1.17-.36,1.88-.36ZM197.37,203.63c-.66,0-1.18.16-1.58.47-.38.32-.58.76-.58,1.32s.2.99.59,1.31c.4.32.92.47,1.56.47s1.16-.16,1.56-.47c.4-.32.59-.75.59-1.31s-.19-1.01-.58-1.32c-.38-.32-.91-.47-1.58-.47ZM197.37,212.6c.55,0,1.03-.08,1.42-.24.4-.17.7-.41.92-.71.21-.32.32-.68.32-1.1s-.11-.8-.34-1.1c-.21-.32-.52-.55-.92-.71-.4-.17-.86-.25-1.41-.25s-1,.08-1.41.25c-.4.16-.71.4-.93.71-.21.31-.32.67-.32,1.1s.11.79.32,1.1c.21.31.52.54.92.71.41.16.88.24,1.42.24ZM208.36,204.14v8.41h-1.27v-8.41h1.27ZM211.83,207.7v1.27h-8.24v-1.27h8.24Z"/><path class="cls-4" d="M367,117.96c2.73,0,5.04.38,6.93,1.14s3.31,1.77,4.25,3.03c.94,1.23,1.42,2.57,1.42,4.01,0,2.15-.92,3.88-2.75,5.19,1.23.66,2.16,1.51,2.79,2.56.66,1.02.98,2.19.98,3.5,0,1.55-.51,3-1.53,4.37-1.02,1.34-2.57,2.43-4.64,3.27-2.05.84-4.53,1.26-7.44,1.26s-5.43-.42-7.48-1.26c-2.02-.84-3.54-1.94-4.56-3.31-1-1.39-1.5-2.86-1.5-4.41,0-1.29.3-2.44.91-3.46.6-1.05,1.47-1.89,2.6-2.52-1.78-1.34-2.68-3.04-2.68-5.12,0-1.44.47-2.79,1.42-4.05.94-1.26,2.37-2.27,4.29-3.03,1.91-.79,4.25-1.18,7-1.18ZM369.92,126.77c0-.63-.29-1.14-.87-1.53s-1.26-.59-2.05-.59-1.47.2-2.05.59c-.55.37-.83.88-.83,1.53s.28,1.14.83,1.53c.58.37,1.26.55,2.05.55s1.47-.18,2.05-.55c.58-.39.87-.91.87-1.53ZM370.15,137.55c-.03-.71-.34-1.27-.94-1.69-.6-.42-1.34-.63-2.2-.63s-1.57.21-2.2.63c-.63.42-.94.98-.94,1.69s.3,1.21.91,1.57c.63.37,1.38.55,2.24.55s1.6-.17,2.2-.51c.63-.37.94-.91.94-1.61ZM412.83,135.7c0,3.49-1.22,6.13-3.66,7.91-2.41,1.78-5.59,2.68-9.52,2.68s-7.15-.89-9.56-2.68c-2.41-1.78-3.62-4.45-3.62-7.99v-7c0-2.36.59-4.34,1.77-5.94,1.18-1.6,2.75-2.78,4.72-3.54,1.99-.79,4.22-1.18,6.69-1.18s4.68.39,6.65,1.18c1.99.76,3.58,1.94,4.76,3.54,1.18,1.57,1.77,3.53,1.77,5.86v7.16ZM397.09,136.02c0,.73.25,1.35.75,1.85.5.47,1.1.71,1.81.71s1.31-.25,1.81-.75c.5-.5.75-1.1.75-1.81v-7.87c0-.73-.25-1.34-.75-1.81-.47-.5-1.08-.75-1.81-.75s-1.35.25-1.85.75c-.47.5-.71,1.1-.71,1.81v7.87ZM445.47,135.7c0,3.49-1.22,6.13-3.66,7.91-2.41,1.78-5.59,2.68-9.52,2.68s-7.15-.89-9.56-2.68c-2.41-1.78-3.62-4.45-3.62-7.99v-7c0-2.36.59-4.34,1.77-5.94,1.18-1.6,2.75-2.78,4.72-3.54,1.99-.79,4.22-1.18,6.69-1.18s4.68.39,6.65,1.18c1.99.76,3.58,1.94,4.76,3.54,1.18,1.57,1.77,3.53,1.77,5.86v7.16ZM429.73,136.02c0,.73.25,1.35.75,1.85.5.47,1.1.71,1.81.71s1.31-.25,1.81-.75.75-1.1.75-1.81v-7.87c0-.73-.25-1.34-.75-1.81-.47-.5-1.08-.75-1.81-.75s-1.35.25-1.85.75c-.47.5-.71,1.1-.71,1.81v7.87ZM497.46,118.35c4.43,0,7.98.96,10.62,2.87,2.68,1.91,4.01,4.88,4.01,8.89v4.01c0,4.09-1.32,7.08-3.97,8.97-2.62,1.86-6.18,2.79-10.66,2.79h-12.55c-.29,0-.54-.1-.75-.31-.21-.21-.31-.46-.31-.75v-25.42c0-.29.11-.54.31-.75.21-.21.46-.31.75-.31h12.55ZM497.66,138.22c1.23,0,2.2-.29,2.91-.87.73-.6,1.1-1.44,1.1-2.52v-5.43c0-1.08-.37-1.9-1.1-2.48-.71-.6-1.68-.91-2.91-.91h-3.58v12.2h3.58ZM546.48,144.52c.1.16.16.33.16.51,0,.24-.09.45-.28.63-.16.16-.35.24-.59.24h-10.15c-.6,0-1.08-.21-1.42-.63l-6.85-8.46v8.03c0,.29-.1.54-.31.75s-.46.31-.75.31h-8.11c-.29,0-.54-.1-.75-.31s-.31-.46-.31-.75v-25.42c0-.29.1-.54.31-.75s.46-.31.75-.31h8.11c.29,0,.54.1.75.31s.31.46.31.75v7.4l6.22-7.79c.39-.45.88-.67,1.46-.67h9.48c.24,0,.43.09.59.28.18.16.28.35.28.59,0,.21-.07.39-.2.55l-9.33,11.37,10.62,13.38ZM579.12,144.52c.1.16.16.33.16.51,0,.24-.09.45-.28.63-.16.16-.35.24-.59.24h-10.15c-.6,0-1.08-.21-1.42-.63l-6.85-8.46v8.03c0,.29-.11.54-.31.75-.21.21-.46.31-.75.31h-8.11c-.29,0-.54-.1-.75-.31-.21-.21-.31-.46-.31-.75v-25.42c0-.29.1-.54.31-.75.21-.21.46-.31.75-.31h8.11c.29,0,.54.1.75.31.21.21.31.46.31.75v7.4l6.22-7.79c.39-.45.88-.67,1.46-.67h9.48c.24,0,.43.09.59.28.18.16.28.35.28.59,0,.21-.07.39-.2.55l-9.33,11.37,10.62,13.38Z"/></g></svg>