<svg width="1075" height="437" viewBox="0 0 1075 437" fill="none" xmlns="http://www.w3.org/2000/svg">
<g clip-path="url(#clip0_441_1556)">
<path d="M35.3396 432.682L35.2972 404.573L34.3661 0H0V432.682L1075 437V403.219L33.8583 403.134" fill="#F54765"/>
<path d="M1073.94 0.973633L1036.91 1.94728L1039.53 403.134H1075L1073.94 0.973633Z" fill="#F54765"/>
<path d="M34.3662 0H1073.35L1074.03 30.7758H38.5985H34.4509" fill="#F54765"/>
<path d="M44.4388 56.0061C54.9572 56.0061 63.4841 48.4249 63.4841 39.073C63.4841 29.7211 54.9572 22.14 44.4388 22.14C33.9204 22.14 25.3936 29.7211 25.3936 39.073C25.3936 48.4249 33.9204 56.0061 44.4388 56.0061Z" fill="#F54765"/>
<path d="M35.9741 115.272C44.1551 115.272 50.7871 108.638 50.7871 100.455C50.7871 92.2725 44.1551 85.639 35.9741 85.639C27.7931 85.639 21.1611 92.2725 21.1611 100.455C21.1611 108.638 27.7931 115.272 35.9741 115.272Z" fill="#F54765"/>
<path d="M35.9741 174.538C44.1551 174.538 50.7871 166.956 50.7871 157.604C50.7871 148.253 44.1551 140.671 35.9741 140.671C27.7931 140.671 21.1611 148.253 21.1611 157.604C21.1611 166.956 27.7931 174.538 35.9741 174.538Z" fill="#F54765"/>
<path d="M35.9741 229.57C44.1551 229.57 50.7871 222.936 50.7871 214.754C50.7871 206.571 44.1551 199.937 35.9741 199.937C27.7931 199.937 21.1611 206.571 21.1611 214.754C21.1611 222.936 27.7931 229.57 35.9741 229.57Z" fill="#F54765"/>
<path d="M35.9741 284.602C44.1551 284.602 50.7871 277.969 50.7871 269.786C50.7871 261.603 44.1551 254.97 35.9741 254.97C27.7931 254.97 21.1611 261.603 21.1611 269.786C21.1611 277.969 27.7931 284.602 35.9741 284.602Z" fill="#F54765"/>
<path d="M38.0904 343.868C45.1027 343.868 50.7873 337.235 50.7873 329.052C50.7873 320.869 45.1027 314.235 38.0904 314.235C31.0781 314.235 25.3936 320.869 25.3936 329.052C25.3936 337.235 31.0781 343.868 38.0904 343.868Z" fill="#F54765"/>
<path d="M44.4387 420.067C57.2945 420.067 67.7163 410.59 67.7163 398.901C67.7163 387.211 57.2945 377.734 44.4387 377.734C31.5829 377.734 21.1611 387.211 21.1611 398.901C21.1611 410.59 31.5829 420.067 44.4387 420.067Z" fill="#F54765"/>
<path d="M1026.33 51.7729C1036.85 51.7729 1045.37 44.1917 1045.37 34.8398C1045.37 25.4879 1036.85 17.9067 1026.33 17.9067C1015.81 17.9067 1007.28 25.4879 1007.28 34.8398C1007.28 44.1917 1015.81 51.7729 1026.33 51.7729Z" fill="#F54765"/>
<path d="M1039.03 123.738C1049.54 123.738 1058.07 116.157 1058.07 106.805C1058.07 97.4534 1049.54 89.8722 1039.03 89.8722C1028.51 89.8722 1019.98 97.4534 1019.98 106.805C1019.98 116.157 1028.51 123.738 1039.03 123.738Z" fill="#F54765"/>
<path d="M1045.37 178.771C1057.06 178.771 1066.54 171.19 1066.54 161.838C1066.54 152.486 1057.06 144.905 1045.37 144.905C1033.69 144.905 1024.21 152.486 1024.21 161.838C1024.21 171.19 1033.69 178.771 1045.37 178.771Z" fill="#F54765"/>
<path d="M1043.26 238.037C1053.78 238.037 1062.3 230.455 1062.3 221.103C1062.3 211.752 1053.78 204.17 1043.26 204.17C1032.74 204.17 1024.21 211.752 1024.21 221.103C1024.21 230.455 1032.74 238.037 1043.26 238.037Z" fill="#F54765"/>
<path d="M1043.26 293.069C1053.78 293.069 1062.3 285.488 1062.3 276.136C1062.3 266.784 1053.78 259.203 1043.26 259.203C1032.74 259.203 1024.21 266.784 1024.21 276.136C1024.21 285.488 1032.74 293.069 1043.26 293.069Z" fill="#F54765"/>
<path d="M1043.26 348.101C1053.78 348.101 1062.3 340.52 1062.3 331.168C1062.3 321.817 1053.78 314.235 1043.26 314.235C1032.74 314.235 1024.21 321.817 1024.21 331.168C1024.21 340.52 1032.74 348.101 1043.26 348.101Z" fill="#F54765"/>
<path d="M1026.33 411.6C1036.85 411.6 1045.37 404.019 1045.37 394.667C1045.37 385.315 1036.85 377.734 1026.33 377.734C1015.81 377.734 1007.28 385.315 1007.28 394.667C1007.28 404.019 1015.81 411.6 1026.33 411.6Z" fill="#F54765"/>
<path d="M208.45 93.31C216.727 95.26 220.865 99.745 220.865 106.765C220.865 109.712 219.89 112.312 217.94 114.565C216.033 116.818 213.368 118.573 209.945 119.83C206.522 121.043 202.643 121.65 198.31 121.65C193.153 121.65 188.885 120.935 185.505 119.505C182.168 118.032 179.72 116.255 178.16 114.175C176.643 112.095 175.885 110.08 175.885 108.13C175.885 107.697 176.015 107.35 176.275 107.09C176.578 106.83 176.925 106.7 177.315 106.7H191.55C192.027 106.7 192.525 106.96 193.045 107.48C193.652 108.043 194.258 108.455 194.865 108.715C195.472 108.932 196.642 109.04 198.375 109.04C200.022 109.04 201.257 108.715 202.08 108.065C202.903 107.415 203.315 106.592 203.315 105.595C203.315 103.688 201.647 102.735 198.31 102.735H189.665C189.188 102.735 188.777 102.562 188.43 102.215C188.083 101.868 187.91 101.457 187.91 100.98V95.715C187.91 95.1083 188.04 94.5883 188.3 94.155C188.56 93.6783 188.885 93.3317 189.275 93.115L198.83 88.175H180.63C180.153 88.175 179.742 88.0017 179.395 87.655C179.048 87.3083 178.875 86.8967 178.875 86.42V77.255C178.875 76.7783 179.048 76.3667 179.395 76.02C179.742 75.6733 180.153 75.5 180.63 75.5H216.12C216.597 75.5 217.008 75.6733 217.355 76.02C217.702 76.3667 217.875 76.7783 217.875 77.255V85.51C217.875 86.5067 217.42 87.3733 216.51 88.11L208.45 93.31ZM305.769 75.5C313.093 75.5 318.943 77.0817 323.319 80.245C327.739 83.4083 329.949 88.305 329.949 94.935V101.565C329.949 108.325 327.761 113.265 323.384 116.385C319.051 119.462 313.179 121 305.769 121H285.034C284.558 121 284.146 120.827 283.799 120.48C283.453 120.133 283.279 119.722 283.279 119.245V77.255C283.279 76.7783 283.453 76.3667 283.799 76.02C284.146 75.6733 284.558 75.5 285.034 75.5H305.769ZM306.094 108.325C308.131 108.325 309.734 107.848 310.904 106.895C312.118 105.898 312.724 104.512 312.724 102.735V93.765C312.724 91.9883 312.118 90.6233 310.904 89.67C309.734 88.6733 308.131 88.175 306.094 88.175H300.179V108.325H306.094ZM350.529 118.79C349.966 120.263 348.991 121 347.604 121H335.319C334.929 121 334.582 120.87 334.279 120.61C334.019 120.307 333.889 119.96 333.889 119.57L333.954 119.18L348.124 77.645C348.297 77.0817 348.622 76.5833 349.099 76.15C349.576 75.7167 350.226 75.5 351.049 75.5H369.119C369.942 75.5 370.592 75.7167 371.069 76.15C371.546 76.5833 371.871 77.0817 372.044 77.645L386.214 119.18L386.279 119.57C386.279 119.96 386.127 120.307 385.824 120.61C385.564 120.87 385.239 121 384.849 121H372.564C371.177 121 370.202 120.263 369.639 118.79L368.014 114.24H352.154L350.529 118.79ZM360.084 88.045L355.469 101.565H364.699L360.084 88.045ZM437.603 75.5C437.993 75.5 438.318 75.6517 438.578 75.955C438.882 76.215 439.033 76.5183 439.033 76.865C439.033 77.125 438.968 77.385 438.838 77.645L422.458 104.75V119.245C422.458 119.722 422.285 120.133 421.938 120.48C421.592 120.827 421.18 121 420.703 121H406.858C406.382 121 405.97 120.827 405.623 120.48C405.277 120.133 405.103 119.722 405.103 119.245V104.75L388.788 77.645C388.658 77.385 388.593 77.1467 388.593 76.93C388.593 76.54 388.723 76.215 388.983 75.955C389.287 75.6517 389.633 75.5 390.023 75.5H403.738C404.952 75.5 405.84 75.9983 406.403 76.995L413.748 89.865L421.288 77.125C421.938 76.0417 422.848 75.5 424.018 75.5H437.603ZM471.313 92.01C476.08 92.53 479.893 93.375 482.753 94.545C485.656 95.715 487.758 97.2533 489.058 99.16C490.358 101.067 491.008 103.45 491.008 106.31C491.008 109.43 489.99 112.16 487.953 114.5C485.96 116.797 483.186 118.573 479.633 119.83C476.08 121.043 472.028 121.65 467.478 121.65C462.408 121.65 458.118 121.022 454.608 119.765C451.098 118.508 448.476 116.84 446.743 114.76C445.01 112.637 444.143 110.318 444.143 107.805C444.143 107.372 444.273 107.025 444.533 106.765C444.836 106.505 445.205 106.375 445.638 106.375H458.963C459.873 106.375 460.61 106.657 461.173 107.22C461.91 107.913 462.733 108.39 463.643 108.65C464.553 108.867 465.831 108.975 467.478 108.975C471.595 108.975 473.653 108.347 473.653 107.09C473.653 106.57 473.371 106.137 472.808 105.79C472.288 105.4 471.335 105.075 469.948 104.815C468.605 104.512 466.611 104.208 463.968 103.905C458.031 103.212 453.481 101.738 450.318 99.485C447.155 97.1883 445.573 93.96 445.573 89.8C445.573 86.8533 446.461 84.2533 448.238 82C450.015 79.7467 452.528 77.9917 455.778 76.735C459.071 75.4783 462.885 74.85 467.218 74.85C471.725 74.85 475.668 75.565 479.048 76.995C482.428 78.3817 485.006 80.115 486.783 82.195C488.56 84.275 489.448 86.3117 489.448 88.305C489.448 88.7383 489.296 89.085 488.993 89.345C488.733 89.605 488.365 89.735 487.888 89.735H473.913C473.176 89.735 472.505 89.475 471.898 88.955C471.421 88.5217 470.858 88.175 470.208 87.915C469.558 87.655 468.561 87.525 467.218 87.525C464.315 87.525 462.863 88.1317 462.863 89.345C462.863 89.995 463.426 90.515 464.553 90.905C465.68 91.2517 467.933 91.62 471.313 92.01ZM598.012 75.5C598.489 75.5 598.901 75.6733 599.247 76.02C599.594 76.3667 599.767 76.7783 599.767 77.255V87.72C599.767 88.1967 599.594 88.6083 599.247 88.955C598.901 89.3017 598.489 89.475 598.012 89.475H584.037V119.245C584.037 119.722 583.864 120.133 583.517 120.48C583.171 120.827 582.759 121 582.282 121H568.892C568.416 121 568.004 120.827 567.657 120.48C567.311 120.133 567.137 119.722 567.137 119.245V89.475H553.162C552.686 89.475 552.274 89.3017 551.927 88.955C551.581 88.6083 551.407 88.1967 551.407 87.72V77.255C551.407 76.7783 551.581 76.3667 551.927 76.02C552.274 75.6733 552.686 75.5 553.162 75.5H598.012ZM638.352 107.675H650.117C650.594 107.675 651.005 107.848 651.352 108.195C651.699 108.542 651.872 108.953 651.872 109.43V119.245C651.872 119.722 651.699 120.133 651.352 120.48C651.005 120.827 650.594 121 650.117 121H608.907C608.43 121 608.019 120.827 607.672 120.48C607.325 120.133 607.152 119.722 607.152 119.245V109.43C607.152 108.953 607.325 108.542 607.672 108.195C608.019 107.848 608.43 107.675 608.907 107.675H620.802V88.825H608.907C608.43 88.825 608.019 88.6517 607.672 88.305C607.325 87.9583 607.152 87.5467 607.152 87.07V77.255C607.152 76.7783 607.325 76.3667 607.672 76.02C608.019 75.6733 608.43 75.5 608.907 75.5H650.117C650.594 75.5 651.005 75.6733 651.352 76.02C651.699 76.3667 651.872 76.7783 651.872 77.255V87.07C651.872 87.5467 651.699 87.9583 651.352 88.305C651.005 88.6517 650.594 88.825 650.117 88.825H638.352V107.675ZM677.457 103.45C677.457 105.227 678.042 106.592 679.212 107.545C680.425 108.498 682.05 108.975 684.087 108.975C685.907 108.975 687.25 108.672 688.117 108.065C688.983 107.458 689.72 106.548 690.327 105.335C690.89 104.208 691.648 103.645 692.602 103.645H706.642C707.032 103.645 707.357 103.797 707.617 104.1C707.92 104.36 708.072 104.685 708.072 105.075C708.072 107.718 707.183 110.318 705.407 112.875C703.63 115.388 700.922 117.49 697.282 119.18C693.685 120.827 689.287 121.65 684.087 121.65C679.45 121.65 675.312 120.957 671.672 119.57C668.075 118.14 665.215 115.973 663.092 113.07C660.968 110.123 659.907 106.462 659.907 102.085V94.415C659.907 90.0383 660.968 86.3983 663.092 83.495C665.215 80.5483 668.075 78.3817 671.672 76.995C675.312 75.565 679.45 74.85 684.087 74.85C689.287 74.85 693.685 75.695 697.282 77.385C700.922 79.0317 703.63 81.1333 705.407 83.69C707.183 86.2033 708.072 88.7817 708.072 91.425C708.072 91.815 707.92 92.1617 707.617 92.465C707.357 92.725 707.032 92.855 706.642 92.855H692.602C691.648 92.855 690.89 92.2917 690.327 91.165C689.72 89.9517 688.983 89.0417 688.117 88.435C687.25 87.8283 685.907 87.525 684.087 87.525C682.05 87.525 680.425 88.0017 679.212 88.955C678.042 89.9083 677.457 91.2733 677.457 93.05V103.45ZM764.206 118.725C764.379 118.985 764.466 119.267 764.466 119.57C764.466 119.96 764.314 120.307 764.011 120.61C763.751 120.87 763.426 121 763.036 121H746.266C745.269 121 744.489 120.653 743.926 119.96L732.616 105.985V119.245C732.616 119.722 732.443 120.133 732.096 120.48C731.749 120.827 731.338 121 730.861 121H717.471C716.994 121 716.583 120.827 716.236 120.48C715.889 120.133 715.716 119.722 715.716 119.245V77.255C715.716 76.7783 715.889 76.3667 716.236 76.02C716.583 75.6733 716.994 75.5 717.471 75.5H730.861C731.338 75.5 731.749 75.6733 732.096 76.02C732.443 76.3667 732.616 76.7783 732.616 77.255V89.475L742.886 76.605C743.536 75.8683 744.338 75.5 745.291 75.5H760.956C761.346 75.5 761.671 75.6517 761.931 75.955C762.234 76.215 762.386 76.54 762.386 76.93C762.386 77.2767 762.278 77.58 762.061 77.84L746.656 96.625L764.206 118.725ZM812.346 108.325C812.822 108.325 813.234 108.498 813.581 108.845C813.927 109.192 814.101 109.603 814.101 110.08V119.245C814.101 119.722 813.927 120.133 813.581 120.48C813.234 120.827 812.822 121 812.346 121H771.266C770.789 121 770.377 120.827 770.031 120.48C769.684 120.133 769.511 119.722 769.511 119.245V77.255C769.511 76.7783 769.684 76.3667 770.031 76.02C770.377 75.6733 770.789 75.5 771.266 75.5H811.696C812.172 75.5 812.584 75.6733 812.931 76.02C813.277 76.3667 813.451 76.7783 813.451 77.255V86.42C813.451 86.8967 813.277 87.3083 812.931 87.655C812.584 88.0017 812.172 88.175 811.696 88.175H786.411V92.27H808.121C808.597 92.27 809.009 92.4433 809.356 92.79C809.702 93.1367 809.876 93.5483 809.876 94.025V102.475C809.876 102.952 809.702 103.363 809.356 103.71C809.009 104.057 808.597 104.23 808.121 104.23H786.411V108.325H812.346ZM867.635 75.5C868.112 75.5 868.524 75.6733 868.87 76.02C869.217 76.3667 869.39 76.7783 869.39 77.255V87.72C869.39 88.1967 869.217 88.6083 868.87 88.955C868.524 89.3017 868.112 89.475 867.635 89.475H853.66V119.245C853.66 119.722 853.487 120.133 853.14 120.48C852.794 120.827 852.382 121 851.905 121H838.515C838.039 121 837.627 120.827 837.28 120.48C836.934 120.133 836.76 119.722 836.76 119.245V89.475H822.785C822.309 89.475 821.897 89.3017 821.55 88.955C821.204 88.6083 821.03 88.1967 821.03 87.72V77.255C821.03 76.7783 821.204 76.3667 821.55 76.02C821.897 75.6733 822.309 75.5 822.785 75.5H867.635Z" fill="white"/>
<path d="M93.016 161.52V163.62H86.576V180H84.336V163.62H77.896V161.52H93.016ZM95.9556 180V159.56H98.1956V168.1C98.6809 167.26 99.3249 166.653 100.128 166.28C100.93 165.907 101.808 165.72 102.76 165.72C103.768 165.72 104.682 165.916 105.504 166.308C106.325 166.681 106.978 167.26 107.464 168.044C107.968 168.828 108.22 169.827 108.22 171.04V180H105.98V171.824C105.98 170.275 105.644 169.201 104.972 168.604C104.318 167.988 103.506 167.68 102.536 167.68C101.864 167.68 101.192 167.839 100.52 168.156C99.8476 168.473 99.2876 168.996 98.8396 169.724C98.4102 170.433 98.1956 171.385 98.1956 172.58V180H95.9556ZM119.144 180.28C117.818 180.28 116.633 179.991 115.588 179.412C114.561 178.833 113.758 178.003 113.18 176.92C112.601 175.819 112.312 174.512 112.312 173C112.312 171.488 112.601 170.191 113.18 169.108C113.758 168.007 114.552 167.167 115.56 166.588C116.568 166.009 117.716 165.72 119.004 165.72C120.31 165.72 121.421 166 122.336 166.56C123.269 167.12 123.978 167.885 124.464 168.856C124.949 169.808 125.192 170.881 125.192 172.076C125.192 172.393 125.182 172.683 125.164 172.944C125.145 173.205 125.117 173.439 125.079 173.644H113.768V171.656H124.1L122.952 171.88C122.952 170.536 122.578 169.5 121.832 168.772C121.104 168.044 120.142 167.68 118.948 167.68C118.033 167.68 117.24 167.895 116.568 168.324C115.914 168.735 115.401 169.341 115.028 170.144C114.673 170.928 114.496 171.88 114.496 173C114.496 174.101 114.682 175.053 115.056 175.856C115.429 176.659 115.952 177.275 116.624 177.704C117.314 178.115 118.136 178.32 119.088 178.32C120.114 178.32 120.945 178.124 121.58 177.732C122.233 177.34 122.756 176.808 123.148 176.136L124.912 177.172C124.557 177.807 124.1 178.357 123.54 178.824C122.998 179.291 122.354 179.655 121.608 179.916C120.88 180.159 120.058 180.28 119.144 180.28ZM152.351 163.62H141.655V169.584H149.999V171.684H141.655V180H139.415V161.52H152.351V163.62ZM160.405 180.28C159.08 180.28 157.895 179.991 156.849 179.412C155.823 178.833 155.02 178.003 154.441 176.92C153.863 175.819 153.573 174.512 153.573 173C153.573 171.488 153.863 170.191 154.441 169.108C155.02 168.007 155.813 167.167 156.821 166.588C157.829 166.009 158.977 165.72 160.265 165.72C161.572 165.72 162.683 166 163.597 166.56C164.531 167.12 165.24 167.885 165.725 168.856C166.211 169.808 166.453 170.881 166.453 172.076C166.453 172.393 166.444 172.683 166.425 172.944C166.407 173.205 166.379 173.439 166.341 173.644H155.029V171.656H165.361L164.213 171.88C164.213 170.536 163.84 169.5 163.093 168.772C162.365 168.044 161.404 167.68 160.209 167.68C159.295 167.68 158.501 167.895 157.829 168.324C157.176 168.735 156.663 169.341 156.289 170.144C155.935 170.928 155.757 171.88 155.757 173C155.757 174.101 155.944 175.053 156.317 175.856C156.691 176.659 157.213 177.275 157.885 177.704C158.576 178.115 159.397 178.32 160.349 178.32C161.376 178.32 162.207 178.124 162.841 177.732C163.495 177.34 164.017 176.808 164.409 176.136L166.173 177.172C165.819 177.807 165.361 178.357 164.801 178.824C164.26 179.291 163.616 179.655 162.869 179.916C162.141 180.159 161.32 180.28 160.405 180.28ZM175.753 180.28C174.391 180.28 173.131 179.991 171.973 179.412C170.835 178.833 169.957 178.012 169.341 176.948L171.245 175.576C171.656 176.435 172.253 177.107 173.037 177.592C173.84 178.077 174.801 178.32 175.921 178.32C176.911 178.32 177.685 178.133 178.245 177.76C178.805 177.368 179.085 176.864 179.085 176.248C179.085 175.856 178.955 175.501 178.693 175.184C178.451 174.848 177.975 174.605 177.265 174.456L173.905 173.756C172.543 173.476 171.563 173.009 170.965 172.356C170.387 171.703 170.097 170.891 170.097 169.92C170.097 169.155 170.312 168.455 170.741 167.82C171.189 167.185 171.815 166.681 172.617 166.308C173.439 165.916 174.4 165.72 175.501 165.72C176.883 165.72 178.049 165.991 179.001 166.532C179.953 167.073 180.663 167.839 181.129 168.828L179.253 170.06C178.936 169.239 178.423 168.641 177.713 168.268C177.004 167.876 176.267 167.68 175.501 167.68C174.829 167.68 174.251 167.773 173.765 167.96C173.299 168.147 172.935 168.408 172.673 168.744C172.431 169.061 172.309 169.425 172.309 169.836C172.309 170.247 172.449 170.629 172.729 170.984C173.009 171.32 173.532 171.563 174.297 171.712L177.797 172.44C179.104 172.701 180.019 173.131 180.541 173.728C181.064 174.325 181.325 175.053 181.325 175.912C181.325 176.789 181.092 177.564 180.625 178.236C180.159 178.889 179.505 179.393 178.665 179.748C177.825 180.103 176.855 180.28 175.753 180.28ZM188.783 162.024V176.136C188.783 176.827 188.979 177.34 189.371 177.676C189.763 178.012 190.267 178.18 190.883 178.18C191.424 178.18 191.891 178.087 192.283 177.9C192.675 177.713 193.03 177.461 193.347 177.144L194.131 179.02C193.702 179.412 193.188 179.72 192.591 179.944C192.012 180.168 191.34 180.28 190.575 180.28C189.866 180.28 189.203 180.159 188.587 179.916C187.971 179.655 187.476 179.253 187.103 178.712C186.748 178.152 186.562 177.424 186.543 176.528V162.64L188.783 162.024ZM193.879 166V167.932H183.743V166H193.879ZM198.329 163.312C197.825 163.312 197.415 163.163 197.097 162.864C196.799 162.547 196.649 162.136 196.649 161.632C196.649 161.128 196.799 160.727 197.097 160.428C197.415 160.111 197.825 159.952 198.329 159.952C198.833 159.952 199.235 160.111 199.533 160.428C199.851 160.727 200.009 161.128 200.009 161.632C200.009 162.136 199.851 162.547 199.533 162.864C199.235 163.163 198.833 163.312 198.329 163.312ZM199.449 166V180H197.209V166H199.449ZM213.915 166H216.267L210.443 180H208.203L202.379 166H204.927L209.351 177.732L213.915 166ZM227.014 170.956C227.014 169.911 226.734 169.108 226.174 168.548C225.614 167.969 224.821 167.68 223.794 167.68C222.824 167.68 222.002 167.895 221.33 168.324C220.658 168.735 220.164 169.407 219.846 170.34L218.026 169.22C218.4 168.175 219.09 167.335 220.098 166.7C221.106 166.047 222.357 165.72 223.85 165.72C224.858 165.72 225.773 165.897 226.594 166.252C227.416 166.588 228.06 167.111 228.526 167.82C229.012 168.511 229.254 169.407 229.254 170.508V177.284C229.254 177.956 229.609 178.292 230.318 178.292C230.673 178.292 231.018 178.245 231.354 178.152L231.242 179.916C230.869 180.103 230.384 180.196 229.786 180.196C229.245 180.196 228.76 180.093 228.33 179.888C227.901 179.683 227.565 179.375 227.322 178.964C227.08 178.535 226.958 178.003 226.958 177.368V177.088L227.518 177.172C227.294 177.9 226.912 178.497 226.37 178.964C225.829 179.412 225.222 179.748 224.55 179.972C223.878 180.177 223.216 180.28 222.562 180.28C221.741 180.28 220.976 180.14 220.266 179.86C219.557 179.58 218.988 179.16 218.558 178.6C218.148 178.021 217.942 177.312 217.942 176.472C217.942 175.427 218.288 174.568 218.978 173.896C219.688 173.205 220.668 172.739 221.918 172.496L227.462 171.404V173.252L222.954 174.176C222.04 174.363 221.358 174.624 220.91 174.96C220.462 175.296 220.238 175.763 220.238 176.36C220.238 176.939 220.462 177.415 220.91 177.788C221.377 178.143 222.03 178.32 222.87 178.32C223.412 178.32 223.925 178.255 224.41 178.124C224.914 177.975 225.362 177.76 225.754 177.48C226.146 177.181 226.454 176.817 226.678 176.388C226.902 175.94 227.014 175.417 227.014 174.82V170.956ZM236.826 159.56V176.444C236.826 177.153 236.956 177.648 237.218 177.928C237.479 178.189 237.899 178.32 238.478 178.32C238.851 178.32 239.159 178.292 239.402 178.236C239.644 178.18 239.971 178.077 240.382 177.928L240.018 179.888C239.719 180.019 239.392 180.112 239.038 180.168C238.683 180.243 238.319 180.28 237.946 180.28C236.807 180.28 235.958 179.972 235.398 179.356C234.856 178.74 234.586 177.797 234.586 176.528V159.56H236.826ZM258.759 161.52C260.01 161.52 261.092 161.753 262.007 162.22C262.94 162.668 263.668 163.312 264.191 164.152C264.714 164.992 264.975 165.991 264.975 167.148C264.975 168.305 264.714 169.304 264.191 170.144C263.668 170.984 262.94 171.637 262.007 172.104C261.092 172.552 260.01 172.776 258.759 172.776H254.475V180H252.235V161.52H258.759ZM258.423 170.676C259.879 170.676 260.943 170.377 261.615 169.78C262.287 169.164 262.623 168.287 262.623 167.148C262.623 165.991 262.287 165.113 261.615 164.516C260.943 163.919 259.879 163.62 258.423 163.62H254.475V170.676H258.423ZM277.081 170.956C277.081 169.911 276.801 169.108 276.241 168.548C275.681 167.969 274.887 167.68 273.861 167.68C272.89 167.68 272.069 167.895 271.397 168.324C270.725 168.735 270.23 169.407 269.913 170.34L268.093 169.22C268.466 168.175 269.157 167.335 270.165 166.7C271.173 166.047 272.423 165.72 273.917 165.72C274.925 165.72 275.839 165.897 276.661 166.252C277.482 166.588 278.126 167.111 278.593 167.82C279.078 168.511 279.321 169.407 279.321 170.508V177.284C279.321 177.956 279.675 178.292 280.385 178.292C280.739 178.292 281.085 178.245 281.421 178.152L281.309 179.916C280.935 180.103 280.45 180.196 279.853 180.196C279.311 180.196 278.826 180.093 278.397 179.888C277.967 179.683 277.631 179.375 277.389 178.964C277.146 178.535 277.025 178.003 277.025 177.368V177.088L277.585 177.172C277.361 177.9 276.978 178.497 276.437 178.964C275.895 179.412 275.289 179.748 274.617 179.972C273.945 180.177 273.282 180.28 272.629 180.28C271.807 180.28 271.042 180.14 270.333 179.86C269.623 179.58 269.054 179.16 268.625 178.6C268.214 178.021 268.009 177.312 268.009 176.472C268.009 175.427 268.354 174.568 269.045 173.896C269.754 173.205 270.734 172.739 271.985 172.496L277.529 171.404V173.252L273.021 174.176C272.106 174.363 271.425 174.624 270.977 174.96C270.529 175.296 270.305 175.763 270.305 176.36C270.305 176.939 270.529 177.415 270.977 177.788C271.443 178.143 272.097 178.32 272.937 178.32C273.478 178.32 273.991 178.255 274.477 178.124C274.981 177.975 275.429 177.76 275.821 177.48C276.213 177.181 276.521 176.817 276.745 176.388C276.969 175.94 277.081 175.417 277.081 174.82V170.956ZM289.804 180.28C288.441 180.28 287.181 179.991 286.024 179.412C284.885 178.833 284.008 178.012 283.392 176.948L285.296 175.576C285.707 176.435 286.304 177.107 287.088 177.592C287.891 178.077 288.852 178.32 289.972 178.32C290.961 178.32 291.736 178.133 292.296 177.76C292.856 177.368 293.136 176.864 293.136 176.248C293.136 175.856 293.005 175.501 292.744 175.184C292.501 174.848 292.025 174.605 291.316 174.456L287.956 173.756C286.593 173.476 285.613 173.009 285.016 172.356C284.437 171.703 284.148 170.891 284.148 169.92C284.148 169.155 284.363 168.455 284.792 167.82C285.24 167.185 285.865 166.681 286.668 166.308C287.489 165.916 288.451 165.72 289.552 165.72C290.933 165.72 292.1 165.991 293.052 166.532C294.004 167.073 294.713 167.839 295.18 168.828L293.304 170.06C292.987 169.239 292.473 168.641 291.764 168.268C291.055 167.876 290.317 167.68 289.552 167.68C288.88 167.68 288.301 167.773 287.816 167.96C287.349 168.147 286.985 168.408 286.724 168.744C286.481 169.061 286.36 169.425 286.36 169.836C286.36 170.247 286.5 170.629 286.78 170.984C287.06 171.32 287.583 171.563 288.348 171.712L291.848 172.44C293.155 172.701 294.069 173.131 294.592 173.728C295.115 174.325 295.376 175.053 295.376 175.912C295.376 176.789 295.143 177.564 294.676 178.236C294.209 178.889 293.556 179.393 292.716 179.748C291.876 180.103 290.905 180.28 289.804 180.28ZM304.57 180.28C303.207 180.28 301.947 179.991 300.79 179.412C299.651 178.833 298.774 178.012 298.158 176.948L300.062 175.576C300.472 176.435 301.07 177.107 301.854 177.592C302.656 178.077 303.618 178.32 304.738 178.32C305.727 178.32 306.502 178.133 307.062 177.76C307.622 177.368 307.902 176.864 307.902 176.248C307.902 175.856 307.771 175.501 307.51 175.184C307.267 174.848 306.791 174.605 306.082 174.456L302.722 173.756C301.359 173.476 300.379 173.009 299.782 172.356C299.203 171.703 298.914 170.891 298.914 169.92C298.914 169.155 299.128 168.455 299.558 167.82C300.006 167.185 300.631 166.681 301.434 166.308C302.255 165.916 303.216 165.72 304.318 165.72C305.699 165.72 306.866 165.991 307.818 166.532C308.77 167.073 309.479 167.839 309.946 168.828L308.07 170.06C307.752 169.239 307.239 168.641 306.53 168.268C305.82 167.876 305.083 167.68 304.318 167.68C303.646 167.68 303.067 167.773 302.582 167.96C302.115 168.147 301.751 168.408 301.49 168.744C301.247 169.061 301.126 169.425 301.126 169.836C301.126 170.247 301.266 170.629 301.546 170.984C301.826 171.32 302.348 171.563 303.114 171.712L306.614 172.44C307.92 172.701 308.835 173.131 309.358 173.728C309.88 174.325 310.142 175.053 310.142 175.912C310.142 176.789 309.908 177.564 309.442 178.236C308.975 178.889 308.322 179.393 307.482 179.748C306.642 180.103 305.671 180.28 304.57 180.28ZM79.604 218.88V199H81.564L81.76 202.416L81.452 202.024C81.6947 201.371 82.0587 200.801 82.544 200.316C83.0293 199.812 83.6173 199.42 84.308 199.14C84.9987 198.86 85.7453 198.72 86.548 198.72C87.6867 198.72 88.732 199.009 89.684 199.588C90.6547 200.167 91.4293 200.997 92.008 202.08C92.5867 203.163 92.876 204.469 92.876 206C92.876 207.512 92.5773 208.819 91.98 209.92C91.4013 211.003 90.6267 211.833 89.656 212.412C88.6853 212.991 87.6213 213.28 86.464 213.28C85.3067 213.28 84.2893 213 83.412 212.44C82.5533 211.861 81.9373 211.133 81.564 210.256L81.844 209.836V218.88H79.604ZM86.24 211.32C87.6213 211.32 88.6947 210.835 89.46 209.864C90.244 208.893 90.636 207.605 90.636 206C90.636 204.395 90.2533 203.107 89.488 202.136C88.7413 201.165 87.6867 200.68 86.324 200.68C85.428 200.68 84.644 200.904 83.972 201.352C83.3 201.781 82.7773 202.397 82.404 203.2C82.0307 203.984 81.844 204.917 81.844 206C81.844 207.064 82.0213 207.997 82.376 208.8C82.7493 209.603 83.2627 210.228 83.916 210.676C84.588 211.105 85.3627 211.32 86.24 211.32ZM97.1587 213V199H98.9787L99.2867 201.296C99.6787 200.437 100.248 199.793 100.995 199.364C101.76 198.935 102.684 198.72 103.767 198.72C104.009 198.72 104.271 198.739 104.551 198.776C104.849 198.813 105.101 198.888 105.307 199L104.915 201.044C104.709 200.969 104.485 200.913 104.243 200.876C104 200.839 103.655 200.82 103.207 200.82C102.628 200.82 102.04 200.988 101.443 201.324C100.864 201.66 100.379 202.173 99.9867 202.864C99.5947 203.536 99.3987 204.395 99.3987 205.44V213H97.1587ZM113.947 198.72C115.272 198.72 116.439 199.009 117.447 199.588C118.474 200.167 119.276 201.007 119.855 202.108C120.434 203.191 120.723 204.488 120.723 206C120.723 207.512 120.434 208.819 119.855 209.92C119.276 211.003 118.474 211.833 117.447 212.412C116.439 212.991 115.272 213.28 113.947 213.28C112.64 213.28 111.474 212.991 110.447 212.412C109.42 211.833 108.618 211.003 108.039 209.92C107.46 208.819 107.171 207.512 107.171 206C107.171 204.488 107.46 203.191 108.039 202.108C108.618 201.007 109.42 200.167 110.447 199.588C111.474 199.009 112.64 198.72 113.947 198.72ZM113.947 200.652C112.995 200.652 112.183 200.867 111.511 201.296C110.839 201.725 110.316 202.341 109.943 203.144C109.588 203.928 109.411 204.88 109.411 206C109.411 207.101 109.588 208.053 109.943 208.856C110.316 209.659 110.839 210.275 111.511 210.704C112.183 211.133 112.995 211.348 113.947 211.348C114.899 211.348 115.711 211.133 116.383 210.704C117.055 210.275 117.568 209.659 117.923 208.856C118.296 208.053 118.483 207.101 118.483 206C118.483 204.88 118.296 203.928 117.923 203.144C117.568 202.341 117.055 201.725 116.383 201.296C115.711 200.867 114.899 200.652 113.947 200.652ZM134.208 199H136.56L130.736 213H128.496L122.672 199H125.22L129.644 210.732L134.208 199ZM140.607 196.312C140.103 196.312 139.692 196.163 139.375 195.864C139.076 195.547 138.927 195.136 138.927 194.632C138.927 194.128 139.076 193.727 139.375 193.428C139.692 193.111 140.103 192.952 140.607 192.952C141.111 192.952 141.512 193.111 141.811 193.428C142.128 193.727 142.287 194.128 142.287 194.632C142.287 195.136 142.128 195.547 141.811 195.864C141.512 196.163 141.111 196.312 140.607 196.312ZM141.727 199V213H139.487V199H141.727ZM152.384 213.28C151.227 213.28 150.163 212.991 149.192 212.412C148.222 211.833 147.447 211.003 146.868 209.92C146.29 208.819 146 207.512 146 206C146 204.451 146.308 203.135 146.924 202.052C147.54 200.969 148.352 200.148 149.36 199.588C150.368 199.009 151.451 198.72 152.608 198.72C153.766 198.72 154.764 199.019 155.604 199.616C156.463 200.213 157.032 201.007 157.312 201.996L157.032 202.192V192.56H159.272V213H157.312L157.116 209.612L157.424 209.444C157.294 210.265 156.976 210.965 156.472 211.544C155.987 212.104 155.38 212.533 154.652 212.832C153.943 213.131 153.187 213.28 152.384 213.28ZM152.608 211.32C153.504 211.32 154.279 211.096 154.932 210.648C155.604 210.2 156.118 209.565 156.472 208.744C156.846 207.904 157.032 206.924 157.032 205.804C157.032 204.74 156.846 203.825 156.472 203.06C156.118 202.295 155.614 201.707 154.96 201.296C154.326 200.885 153.579 200.68 152.72 200.68C151.302 200.68 150.2 201.165 149.416 202.136C148.632 203.107 148.24 204.395 148.24 206C148.24 207.605 148.623 208.893 149.388 209.864C150.154 210.835 151.227 211.32 152.608 211.32ZM170.331 213.28C169.006 213.28 167.82 212.991 166.775 212.412C165.748 211.833 164.946 211.003 164.367 209.92C163.788 208.819 163.499 207.512 163.499 206C163.499 204.488 163.788 203.191 164.367 202.108C164.946 201.007 165.739 200.167 166.747 199.588C167.755 199.009 168.903 198.72 170.191 198.72C171.498 198.72 172.608 199 173.523 199.56C174.456 200.12 175.166 200.885 175.651 201.856C176.136 202.808 176.379 203.881 176.379 205.076C176.379 205.393 176.37 205.683 176.351 205.944C176.332 206.205 176.304 206.439 176.267 206.644H164.955V204.656H175.287L174.139 204.88C174.139 203.536 173.766 202.5 173.019 201.772C172.291 201.044 171.33 200.68 170.135 200.68C169.22 200.68 168.427 200.895 167.755 201.324C167.102 201.735 166.588 202.341 166.215 203.144C165.86 203.928 165.683 204.88 165.683 206C165.683 207.101 165.87 208.053 166.243 208.856C166.616 209.659 167.139 210.275 167.811 210.704C168.502 211.115 169.323 211.32 170.275 211.32C171.302 211.32 172.132 211.124 172.767 210.732C173.42 210.34 173.943 209.808 174.335 209.136L176.099 210.172C175.744 210.807 175.287 211.357 174.727 211.824C174.186 212.291 173.542 212.655 172.795 212.916C172.067 213.159 171.246 213.28 170.331 213.28ZM185.679 213.28C184.316 213.28 183.056 212.991 181.899 212.412C180.76 211.833 179.883 211.012 179.267 209.948L181.171 208.576C181.582 209.435 182.179 210.107 182.963 210.592C183.766 211.077 184.727 211.32 185.847 211.32C186.836 211.32 187.611 211.133 188.171 210.76C188.731 210.368 189.011 209.864 189.011 209.248C189.011 208.856 188.88 208.501 188.619 208.184C188.376 207.848 187.9 207.605 187.191 207.456L183.831 206.756C182.468 206.476 181.488 206.009 180.891 205.356C180.312 204.703 180.023 203.891 180.023 202.92C180.023 202.155 180.238 201.455 180.667 200.82C181.115 200.185 181.74 199.681 182.543 199.308C183.364 198.916 184.326 198.72 185.427 198.72C186.808 198.72 187.975 198.991 188.927 199.532C189.879 200.073 190.588 200.839 191.055 201.828L189.179 203.06C188.862 202.239 188.348 201.641 187.639 201.268C186.93 200.876 186.192 200.68 185.427 200.68C184.755 200.68 184.176 200.773 183.691 200.96C183.224 201.147 182.86 201.408 182.599 201.744C182.356 202.061 182.235 202.425 182.235 202.836C182.235 203.247 182.375 203.629 182.655 203.984C182.935 204.32 183.458 204.563 184.223 204.712L187.723 205.44C189.03 205.701 189.944 206.131 190.467 206.728C190.99 207.325 191.251 208.053 191.251 208.912C191.251 209.789 191.018 210.564 190.551 211.236C190.084 211.889 189.431 212.393 188.591 212.748C187.751 213.103 186.78 213.28 185.679 213.28ZM213.124 203.956C213.124 202.911 212.844 202.108 212.284 201.548C211.724 200.969 210.93 200.68 209.904 200.68C208.933 200.68 208.112 200.895 207.44 201.324C206.768 201.735 206.273 202.407 205.956 203.34L204.136 202.22C204.509 201.175 205.2 200.335 206.208 199.7C207.216 199.047 208.466 198.72 209.96 198.72C210.968 198.72 211.882 198.897 212.704 199.252C213.525 199.588 214.169 200.111 214.636 200.82C215.121 201.511 215.364 202.407 215.364 203.508V210.284C215.364 210.956 215.718 211.292 216.428 211.292C216.782 211.292 217.128 211.245 217.464 211.152L217.352 212.916C216.978 213.103 216.493 213.196 215.896 213.196C215.354 213.196 214.869 213.093 214.44 212.888C214.01 212.683 213.674 212.375 213.432 211.964C213.189 211.535 213.068 211.003 213.068 210.368V210.088L213.628 210.172C213.404 210.9 213.021 211.497 212.48 211.964C211.938 212.412 211.332 212.748 210.66 212.972C209.988 213.177 209.325 213.28 208.672 213.28C207.85 213.28 207.085 213.14 206.376 212.86C205.666 212.58 205.097 212.16 204.668 211.6C204.257 211.021 204.052 210.312 204.052 209.472C204.052 208.427 204.397 207.568 205.088 206.896C205.797 206.205 206.777 205.739 208.028 205.496L213.572 204.404V206.252L209.064 207.176C208.149 207.363 207.468 207.624 207.02 207.96C206.572 208.296 206.348 208.763 206.348 209.36C206.348 209.939 206.572 210.415 207.02 210.788C207.486 211.143 208.14 211.32 208.98 211.32C209.521 211.32 210.034 211.255 210.52 211.124C211.024 210.975 211.472 210.76 211.864 210.48C212.256 210.181 212.564 209.817 212.788 209.388C213.012 208.94 213.124 208.417 213.124 207.82V203.956ZM226.603 198.72C227.574 198.72 228.423 198.869 229.151 199.168C229.898 199.467 230.542 199.896 231.083 200.456C231.624 201.016 232.063 201.679 232.399 202.444L230.271 203.452C229.972 202.556 229.515 201.875 228.899 201.408C228.302 200.923 227.518 200.68 226.547 200.68C225.614 200.68 224.811 200.895 224.139 201.324C223.467 201.735 222.954 202.341 222.599 203.144C222.244 203.928 222.067 204.88 222.067 206C222.067 207.101 222.244 208.053 222.599 208.856C222.954 209.659 223.467 210.275 224.139 210.704C224.811 211.115 225.614 211.32 226.547 211.32C227.275 211.32 227.9 211.208 228.423 210.984C228.964 210.76 229.403 210.433 229.739 210.004C230.094 209.575 230.336 209.052 230.467 208.436L232.539 209.164C232.222 210.023 231.783 210.76 231.223 211.376C230.682 211.992 230.019 212.468 229.235 212.804C228.47 213.121 227.592 213.28 226.603 213.28C225.296 213.28 224.13 212.991 223.103 212.412C222.076 211.833 221.274 211.003 220.695 209.92C220.116 208.819 219.827 207.512 219.827 206C219.827 204.488 220.116 203.191 220.695 202.108C221.274 201.007 222.076 200.167 223.103 199.588C224.13 199.009 225.296 198.72 226.603 198.72ZM242.271 198.72C243.242 198.72 244.091 198.869 244.819 199.168C245.566 199.467 246.21 199.896 246.751 200.456C247.292 201.016 247.731 201.679 248.067 202.444L245.939 203.452C245.64 202.556 245.183 201.875 244.567 201.408C243.97 200.923 243.186 200.68 242.215 200.68C241.282 200.68 240.479 200.895 239.807 201.324C239.135 201.735 238.622 202.341 238.267 203.144C237.912 203.928 237.735 204.88 237.735 206C237.735 207.101 237.912 208.053 238.267 208.856C238.622 209.659 239.135 210.275 239.807 210.704C240.479 211.115 241.282 211.32 242.215 211.32C242.943 211.32 243.568 211.208 244.091 210.984C244.632 210.76 245.071 210.433 245.407 210.004C245.762 209.575 246.004 209.052 246.135 208.436L248.207 209.164C247.89 210.023 247.451 210.76 246.891 211.376C246.35 211.992 245.687 212.468 244.903 212.804C244.138 213.121 243.26 213.28 242.271 213.28C240.964 213.28 239.798 212.991 238.771 212.412C237.744 211.833 236.942 211.003 236.363 209.92C235.784 208.819 235.495 207.512 235.495 206C235.495 204.488 235.784 203.191 236.363 202.108C236.942 201.007 237.744 200.167 238.771 199.588C239.798 199.009 240.964 198.72 242.271 198.72ZM257.995 213.28C256.67 213.28 255.484 212.991 254.439 212.412C253.412 211.833 252.61 211.003 252.031 209.92C251.452 208.819 251.163 207.512 251.163 206C251.163 204.488 251.452 203.191 252.031 202.108C252.61 201.007 253.403 200.167 254.411 199.588C255.419 199.009 256.567 198.72 257.855 198.72C259.162 198.72 260.272 199 261.187 199.56C262.12 200.12 262.83 200.885 263.315 201.856C263.8 202.808 264.043 203.881 264.043 205.076C264.043 205.393 264.034 205.683 264.015 205.944C263.996 206.205 263.968 206.439 263.931 206.644H252.619V204.656H262.951L261.803 204.88C261.803 203.536 261.43 202.5 260.683 201.772C259.955 201.044 258.994 200.68 257.799 200.68C256.884 200.68 256.091 200.895 255.419 201.324C254.766 201.735 254.252 202.341 253.879 203.144C253.524 203.928 253.347 204.88 253.347 206C253.347 207.101 253.534 208.053 253.907 208.856C254.28 209.659 254.803 210.275 255.475 210.704C256.166 211.115 256.987 211.32 257.939 211.32C258.966 211.32 259.796 211.124 260.431 210.732C261.084 210.34 261.607 209.808 261.999 209.136L263.763 210.172C263.408 210.807 262.951 211.357 262.391 211.824C261.85 212.291 261.206 212.655 260.459 212.916C259.731 213.159 258.91 213.28 257.995 213.28ZM273.343 213.28C271.981 213.28 270.721 212.991 269.563 212.412C268.425 211.833 267.547 211.012 266.931 209.948L268.835 208.576C269.246 209.435 269.843 210.107 270.627 210.592C271.43 211.077 272.391 211.32 273.511 211.32C274.501 211.32 275.275 211.133 275.835 210.76C276.395 210.368 276.675 209.864 276.675 209.248C276.675 208.856 276.545 208.501 276.283 208.184C276.041 207.848 275.565 207.605 274.855 207.456L271.495 206.756C270.133 206.476 269.153 206.009 268.555 205.356C267.977 204.703 267.687 203.891 267.687 202.92C267.687 202.155 267.902 201.455 268.331 200.82C268.779 200.185 269.405 199.681 270.207 199.308C271.029 198.916 271.99 198.72 273.091 198.72C274.473 198.72 275.639 198.991 276.591 199.532C277.543 200.073 278.253 200.839 278.719 201.828L276.843 203.06C276.526 202.239 276.013 201.641 275.303 201.268C274.594 200.876 273.857 200.68 273.091 200.68C272.419 200.68 271.841 200.773 271.355 200.96C270.889 201.147 270.525 201.408 270.263 201.744C270.021 202.061 269.899 202.425 269.899 202.836C269.899 203.247 270.039 203.629 270.319 203.984C270.599 204.32 271.122 204.563 271.887 204.712L275.387 205.44C276.694 205.701 277.609 206.131 278.131 206.728C278.654 207.325 278.915 208.053 278.915 208.912C278.915 209.789 278.682 210.564 278.215 211.236C277.749 211.889 277.095 212.393 276.255 212.748C275.415 213.103 274.445 213.28 273.343 213.28ZM288.109 213.28C286.746 213.28 285.486 212.991 284.329 212.412C283.19 211.833 282.313 211.012 281.697 209.948L283.601 208.576C284.012 209.435 284.609 210.107 285.393 210.592C286.196 211.077 287.157 211.32 288.277 211.32C289.266 211.32 290.041 211.133 290.601 210.76C291.161 210.368 291.441 209.864 291.441 209.248C291.441 208.856 291.31 208.501 291.049 208.184C290.806 207.848 290.33 207.605 289.621 207.456L286.261 206.756C284.898 206.476 283.918 206.009 283.321 205.356C282.742 204.703 282.453 203.891 282.453 202.92C282.453 202.155 282.668 201.455 283.097 200.82C283.545 200.185 284.17 199.681 284.973 199.308C285.794 198.916 286.756 198.72 287.857 198.72C289.238 198.72 290.405 198.991 291.357 199.532C292.309 200.073 293.018 200.839 293.485 201.828L291.609 203.06C291.292 202.239 290.778 201.641 290.069 201.268C289.36 200.876 288.622 200.68 287.857 200.68C287.185 200.68 286.606 200.773 286.121 200.96C285.654 201.147 285.29 201.408 285.029 201.744C284.786 202.061 284.665 202.425 284.665 202.836C284.665 203.247 284.805 203.629 285.085 203.984C285.365 204.32 285.888 204.563 286.653 204.712L290.153 205.44C291.46 205.701 292.374 206.131 292.897 206.728C293.42 207.325 293.681 208.053 293.681 208.912C293.681 209.789 293.448 210.564 292.981 211.236C292.514 211.889 291.861 212.393 291.021 212.748C290.181 213.103 289.21 213.28 288.109 213.28ZM310.135 195.024V209.136C310.135 209.827 310.331 210.34 310.723 210.676C311.115 211.012 311.619 211.18 312.235 211.18C312.776 211.18 313.243 211.087 313.635 210.9C314.027 210.713 314.381 210.461 314.699 210.144L315.483 212.02C315.053 212.412 314.54 212.72 313.943 212.944C313.364 213.168 312.692 213.28 311.927 213.28C311.217 213.28 310.555 213.159 309.939 212.916C309.323 212.655 308.828 212.253 308.455 211.712C308.1 211.152 307.913 210.424 307.895 209.528V195.64L310.135 195.024ZM315.231 199V200.932H305.095V199H315.231ZM324.357 198.72C325.682 198.72 326.849 199.009 327.857 199.588C328.884 200.167 329.686 201.007 330.265 202.108C330.844 203.191 331.133 204.488 331.133 206C331.133 207.512 330.844 208.819 330.265 209.92C329.686 211.003 328.884 211.833 327.857 212.412C326.849 212.991 325.682 213.28 324.357 213.28C323.05 213.28 321.884 212.991 320.857 212.412C319.83 211.833 319.028 211.003 318.449 209.92C317.87 208.819 317.581 207.512 317.581 206C317.581 204.488 317.87 203.191 318.449 202.108C319.028 201.007 319.83 200.167 320.857 199.588C321.884 199.009 323.05 198.72 324.357 198.72ZM324.357 200.652C323.405 200.652 322.593 200.867 321.921 201.296C321.249 201.725 320.726 202.341 320.353 203.144C319.998 203.928 319.821 204.88 319.821 206C319.821 207.101 319.998 208.053 320.353 208.856C320.726 209.659 321.249 210.275 321.921 210.704C322.593 211.133 323.405 211.348 324.357 211.348C325.309 211.348 326.121 211.133 326.793 210.704C327.465 210.275 327.978 209.659 328.333 208.856C328.706 208.053 328.893 207.101 328.893 206C328.893 204.88 328.706 203.928 328.333 203.144C327.978 202.341 327.465 201.725 326.793 201.296C326.121 200.867 325.309 200.652 324.357 200.652ZM353.069 203.956C353.069 202.911 352.789 202.108 352.229 201.548C351.669 200.969 350.876 200.68 349.849 200.68C348.878 200.68 348.057 200.895 347.385 201.324C346.713 201.735 346.218 202.407 345.901 203.34L344.081 202.22C344.454 201.175 345.145 200.335 346.153 199.7C347.161 199.047 348.412 198.72 349.905 198.72C350.913 198.72 351.828 198.897 352.649 199.252C353.47 199.588 354.114 200.111 354.581 200.82C355.066 201.511 355.309 202.407 355.309 203.508V210.284C355.309 210.956 355.664 211.292 356.373 211.292C356.728 211.292 357.073 211.245 357.409 211.152L357.297 212.916C356.924 213.103 356.438 213.196 355.841 213.196C355.3 213.196 354.814 213.093 354.385 212.888C353.956 212.683 353.62 212.375 353.377 211.964C353.134 211.535 353.013 211.003 353.013 210.368V210.088L353.573 210.172C353.349 210.9 352.966 211.497 352.425 211.964C351.884 212.412 351.277 212.748 350.605 212.972C349.933 213.177 349.27 213.28 348.617 213.28C347.796 213.28 347.03 213.14 346.321 212.86C345.612 212.58 345.042 212.16 344.613 211.6C344.202 211.021 343.997 210.312 343.997 209.472C343.997 208.427 344.342 207.568 345.033 206.896C345.742 206.205 346.722 205.739 347.973 205.496L353.517 204.404V206.252L349.009 207.176C348.094 207.363 347.413 207.624 346.965 207.96C346.517 208.296 346.293 208.763 346.293 209.36C346.293 209.939 346.517 210.415 346.965 210.788C347.432 211.143 348.085 211.32 348.925 211.32C349.466 211.32 349.98 211.255 350.465 211.124C350.969 210.975 351.417 210.76 351.809 210.48C352.201 210.181 352.509 209.817 352.733 209.388C352.957 208.94 353.069 208.417 353.069 207.82V203.956ZM362.88 192.56V209.444C362.88 210.153 363.011 210.648 363.272 210.928C363.534 211.189 363.954 211.32 364.532 211.32C364.906 211.32 365.214 211.292 365.456 211.236C365.699 211.18 366.026 211.077 366.436 210.928L366.072 212.888C365.774 213.019 365.447 213.112 365.092 213.168C364.738 213.243 364.374 213.28 364 213.28C362.862 213.28 362.012 212.972 361.452 212.356C360.911 211.74 360.64 210.797 360.64 209.528V192.56H362.88ZM371.439 192.56V209.444C371.439 210.153 371.57 210.648 371.831 210.928C372.092 211.189 372.512 211.32 373.091 211.32C373.464 211.32 373.772 211.292 374.015 211.236C374.258 211.18 374.584 211.077 374.995 210.928L374.631 212.888C374.332 213.019 374.006 213.112 373.651 213.168C373.296 213.243 372.932 213.28 372.559 213.28C371.42 213.28 370.571 212.972 370.011 212.356C369.47 211.74 369.199 210.797 369.199 209.528V192.56H371.439ZM391.944 213.28C390.302 213.28 388.846 212.897 387.576 212.132C386.326 211.348 385.476 210.275 385.028 208.912L387.268 207.764C387.492 208.455 387.8 209.061 388.192 209.584C388.584 210.088 389.098 210.48 389.732 210.76C390.386 211.04 391.198 211.18 392.168 211.18C392.99 211.18 393.68 211.031 394.24 210.732C394.8 210.433 395.23 210.032 395.528 209.528C395.827 209.005 395.976 208.408 395.976 207.736C395.976 207.064 395.846 206.504 395.584 206.056C395.342 205.608 394.95 205.281 394.408 205.076C393.867 204.852 393.158 204.74 392.28 204.74C392.075 204.74 391.851 204.749 391.608 204.768C391.366 204.768 391.114 204.787 390.852 204.824V202.584C391.02 202.603 391.179 202.612 391.328 202.612C391.496 202.612 391.646 202.612 391.776 202.612C393.139 202.612 394.11 202.351 394.688 201.828C395.267 201.287 395.556 200.447 395.556 199.308C395.556 198.337 395.258 197.6 394.66 197.096C394.063 196.592 393.214 196.34 392.112 196.34C390.936 196.34 390.04 196.601 389.424 197.124C388.808 197.628 388.323 198.319 387.968 199.196L385.84 198.188C386.139 197.404 386.587 196.713 387.184 196.116C387.782 195.519 388.5 195.052 389.34 194.716C390.199 194.38 391.142 194.212 392.168 194.212C393.456 194.212 394.52 194.436 395.36 194.884C396.2 195.313 396.826 195.892 397.236 196.62C397.666 197.348 397.88 198.151 397.88 199.028C397.88 199.7 397.787 200.307 397.6 200.848C397.414 201.371 397.152 201.828 396.816 202.22C396.499 202.612 396.135 202.929 395.724 203.172C395.314 203.396 394.875 203.545 394.408 203.62V203.676C395.024 203.695 395.566 203.816 396.032 204.04C396.518 204.264 396.928 204.563 397.264 204.936C397.6 205.309 397.852 205.739 398.02 206.224C398.207 206.691 398.3 207.185 398.3 207.708C398.3 208.791 398.03 209.752 397.488 210.592C396.966 211.432 396.228 212.095 395.276 212.58C394.324 213.047 393.214 213.28 391.944 213.28ZM85.064 246.28C83.9067 246.28 82.8427 245.991 81.872 245.412C80.9013 244.833 80.1267 244.003 79.548 242.92C78.9693 241.819 78.68 240.512 78.68 239C78.68 237.451 78.988 236.135 79.604 235.052C80.22 233.969 81.032 233.148 82.04 232.588C83.048 232.009 84.1307 231.72 85.288 231.72C86.4453 231.72 87.444 232.019 88.284 232.616C89.1427 233.213 89.712 234.007 89.992 234.996L89.712 235.192V225.56H91.952V246H89.992L89.796 242.612L90.104 242.444C89.9733 243.265 89.656 243.965 89.152 244.544C88.6667 245.104 88.06 245.533 87.332 245.832C86.6227 246.131 85.8667 246.28 85.064 246.28ZM85.288 244.32C86.184 244.32 86.9587 244.096 87.612 243.648C88.284 243.2 88.7973 242.565 89.152 241.744C89.5253 240.904 89.712 239.924 89.712 238.804C89.712 237.74 89.5253 236.825 89.152 236.06C88.7973 235.295 88.2933 234.707 87.64 234.296C87.0053 233.885 86.2587 233.68 85.4 233.68C83.9813 233.68 82.88 234.165 82.096 235.136C81.312 236.107 80.92 237.395 80.92 239C80.92 240.605 81.3027 241.893 82.068 242.864C82.8333 243.835 83.9067 244.32 85.288 244.32ZM105.335 236.956C105.335 235.911 105.055 235.108 104.495 234.548C103.935 233.969 103.141 233.68 102.115 233.68C101.144 233.68 100.323 233.895 99.6507 234.324C98.9787 234.735 98.484 235.407 98.1667 236.34L96.3467 235.22C96.72 234.175 97.4107 233.335 98.4187 232.7C99.4267 232.047 100.677 231.72 102.171 231.72C103.179 231.72 104.093 231.897 104.915 232.252C105.736 232.588 106.38 233.111 106.847 233.82C107.332 234.511 107.575 235.407 107.575 236.508V243.284C107.575 243.956 107.929 244.292 108.639 244.292C108.993 244.292 109.339 244.245 109.675 244.152L109.563 245.916C109.189 246.103 108.704 246.196 108.107 246.196C107.565 246.196 107.08 246.093 106.651 245.888C106.221 245.683 105.885 245.375 105.643 244.964C105.4 244.535 105.279 244.003 105.279 243.368V243.088L105.839 243.172C105.615 243.9 105.232 244.497 104.691 244.964C104.149 245.412 103.543 245.748 102.871 245.972C102.199 246.177 101.536 246.28 100.883 246.28C100.061 246.28 99.296 246.14 98.5867 245.86C97.8774 245.58 97.308 245.16 96.8787 244.6C96.468 244.021 96.2627 243.312 96.2627 242.472C96.2627 241.427 96.608 240.568 97.2987 239.896C98.008 239.205 98.988 238.739 100.239 238.496L105.783 237.404V239.252L101.275 240.176C100.36 240.363 99.6787 240.624 99.2307 240.96C98.7827 241.296 98.5587 241.763 98.5587 242.36C98.5587 242.939 98.7827 243.415 99.2307 243.788C99.6974 244.143 100.351 244.32 101.191 244.32C101.732 244.32 102.245 244.255 102.731 244.124C103.235 243.975 103.683 243.76 104.075 243.48C104.467 243.181 104.775 242.817 104.999 242.388C105.223 241.94 105.335 241.417 105.335 240.82V236.956ZM123.706 232L117.126 248.352C116.771 249.267 116.379 249.985 115.95 250.508C115.539 251.049 115.072 251.432 114.55 251.656C114.046 251.899 113.458 252.02 112.786 252.02C112.151 252.02 111.563 251.927 111.022 251.74C110.499 251.572 110.032 251.339 109.622 251.04L110.238 249.08C110.611 249.416 111.003 249.659 111.414 249.808C111.843 249.976 112.263 250.06 112.674 250.06C113.159 250.06 113.616 249.911 114.046 249.612C114.475 249.313 114.867 248.707 115.222 247.792L115.95 245.972L114.55 242.64L110.098 232H112.646L116.146 241.128L117.014 243.62L118.022 240.848L121.298 232H123.706ZM131.32 246.28C129.957 246.28 128.697 245.991 127.54 245.412C126.401 244.833 125.524 244.012 124.908 242.948L126.812 241.576C127.222 242.435 127.82 243.107 128.604 243.592C129.406 244.077 130.368 244.32 131.488 244.32C132.477 244.32 133.252 244.133 133.812 243.76C134.372 243.368 134.652 242.864 134.652 242.248C134.652 241.856 134.521 241.501 134.26 241.184C134.017 240.848 133.541 240.605 132.832 240.456L129.472 239.756C128.109 239.476 127.129 239.009 126.532 238.356C125.953 237.703 125.664 236.891 125.664 235.92C125.664 235.155 125.878 234.455 126.308 233.82C126.756 233.185 127.381 232.681 128.184 232.308C129.005 231.916 129.966 231.72 131.068 231.72C132.449 231.72 133.616 231.991 134.568 232.532C135.52 233.073 136.229 233.839 136.696 234.828L134.82 236.06C134.502 235.239 133.989 234.641 133.28 234.268C132.57 233.876 131.833 233.68 131.068 233.68C130.396 233.68 129.817 233.773 129.332 233.96C128.865 234.147 128.501 234.408 128.24 234.744C127.997 235.061 127.876 235.425 127.876 235.836C127.876 236.247 128.016 236.629 128.296 236.984C128.576 237.32 129.098 237.563 129.864 237.712L133.364 238.44C134.67 238.701 135.585 239.131 136.108 239.728C136.63 240.325 136.892 241.053 136.892 241.912C136.892 242.789 136.658 243.564 136.192 244.236C135.725 244.889 135.072 245.393 134.232 245.748C133.392 246.103 132.421 246.28 131.32 246.28ZM158.764 236.956C158.764 235.911 158.484 235.108 157.924 234.548C157.364 233.969 156.571 233.68 155.544 233.68C154.574 233.68 153.752 233.895 153.08 234.324C152.408 234.735 151.914 235.407 151.596 236.34L149.776 235.22C150.15 234.175 150.84 233.335 151.848 232.7C152.856 232.047 154.107 231.72 155.6 231.72C156.608 231.72 157.523 231.897 158.344 232.252C159.166 232.588 159.81 233.111 160.276 233.82C160.762 234.511 161.004 235.407 161.004 236.508V243.284C161.004 243.956 161.359 244.292 162.068 244.292C162.423 244.292 162.768 244.245 163.104 244.152L162.992 245.916C162.619 246.103 162.134 246.196 161.536 246.196C160.995 246.196 160.51 246.093 160.08 245.888C159.651 245.683 159.315 245.375 159.072 244.964C158.83 244.535 158.708 244.003 158.708 243.368V243.088L159.268 243.172C159.044 243.9 158.662 244.497 158.12 244.964C157.579 245.412 156.972 245.748 156.3 245.972C155.628 246.177 154.966 246.28 154.312 246.28C153.491 246.28 152.726 246.14 152.016 245.86C151.307 245.58 150.738 245.16 150.308 244.6C149.898 244.021 149.692 243.312 149.692 242.472C149.692 241.427 150.038 240.568 150.728 239.896C151.438 239.205 152.418 238.739 153.668 238.496L159.212 237.404V239.252L154.704 240.176C153.79 240.363 153.108 240.624 152.66 240.96C152.212 241.296 151.988 241.763 151.988 242.36C151.988 242.939 152.212 243.415 152.66 243.788C153.127 244.143 153.78 244.32 154.62 244.32C155.162 244.32 155.675 244.255 156.16 244.124C156.664 243.975 157.112 243.76 157.504 243.48C157.896 243.181 158.204 242.817 158.428 242.388C158.652 241.94 158.764 241.417 158.764 240.82V236.956ZM169.205 228.024V242.136C169.205 242.827 169.401 243.34 169.793 243.676C170.185 244.012 170.689 244.18 171.305 244.18C171.846 244.18 172.313 244.087 172.705 243.9C173.097 243.713 173.452 243.461 173.769 243.144L174.553 245.02C174.124 245.412 173.61 245.72 173.013 245.944C172.434 246.168 171.762 246.28 170.997 246.28C170.288 246.28 169.625 246.159 169.009 245.916C168.393 245.655 167.898 245.253 167.525 244.712C167.17 244.152 166.984 243.424 166.965 242.528V228.64L169.205 228.024ZM174.301 232V233.932H164.165V232H174.301ZM202.07 227.52L194.006 235.78L193.67 236.144L188.714 241.212V238.188L199.13 227.52H202.07ZM189.834 227.52V246H187.594V227.52H189.834ZM194.23 234.352L202.154 246H199.466L192.382 235.612L194.23 234.352ZM213.343 236.956C213.343 235.911 213.063 235.108 212.503 234.548C211.943 233.969 211.149 233.68 210.123 233.68C209.152 233.68 208.331 233.895 207.659 234.324C206.987 234.735 206.492 235.407 206.175 236.34L204.355 235.22C204.728 234.175 205.419 233.335 206.427 232.7C207.435 232.047 208.685 231.72 210.179 231.72C211.187 231.72 212.101 231.897 212.923 232.252C213.744 232.588 214.388 233.111 214.855 233.82C215.34 234.511 215.583 235.407 215.583 236.508V243.284C215.583 243.956 215.937 244.292 216.647 244.292C217.001 244.292 217.347 244.245 217.683 244.152L217.571 245.916C217.197 246.103 216.712 246.196 216.115 246.196C215.573 246.196 215.088 246.093 214.659 245.888C214.229 245.683 213.893 245.375 213.651 244.964C213.408 244.535 213.287 244.003 213.287 243.368V243.088L213.847 243.172C213.623 243.9 213.24 244.497 212.699 244.964C212.157 245.412 211.551 245.748 210.879 245.972C210.207 246.177 209.544 246.28 208.891 246.28C208.069 246.28 207.304 246.14 206.595 245.86C205.885 245.58 205.316 245.16 204.887 244.6C204.476 244.021 204.271 243.312 204.271 242.472C204.271 241.427 204.616 240.568 205.307 239.896C206.016 239.205 206.996 238.739 208.247 238.496L213.791 237.404V239.252L209.283 240.176C208.368 240.363 207.687 240.624 207.239 240.96C206.791 241.296 206.567 241.763 206.567 242.36C206.567 242.939 206.791 243.415 207.239 243.788C207.705 244.143 208.359 244.32 209.199 244.32C209.74 244.32 210.253 244.255 210.739 244.124C211.243 243.975 211.691 243.76 212.083 243.48C212.475 243.181 212.783 242.817 213.007 242.388C213.231 241.94 213.343 241.417 213.343 240.82V236.956ZM221.026 246V232H222.846L223.154 234.296C223.546 233.437 224.115 232.793 224.862 232.364C225.627 231.935 226.551 231.72 227.634 231.72C227.877 231.72 228.138 231.739 228.418 231.776C228.717 231.813 228.969 231.888 229.174 232L228.782 234.044C228.577 233.969 228.353 233.913 228.11 233.876C227.867 233.839 227.522 233.82 227.074 233.82C226.495 233.82 225.907 233.988 225.31 234.324C224.731 234.66 224.246 235.173 223.854 235.864C223.462 236.536 223.266 237.395 223.266 238.44V246H221.026ZM232.456 246V232H234.276L234.584 234.296C234.976 233.437 235.545 232.793 236.292 232.364C237.057 231.935 237.981 231.72 239.064 231.72C239.306 231.72 239.568 231.739 239.848 231.776C240.146 231.813 240.398 231.888 240.604 232L240.212 234.044C240.006 233.969 239.782 233.913 239.54 233.876C239.297 233.839 238.952 233.82 238.504 233.82C237.925 233.82 237.337 233.988 236.74 234.324C236.161 234.66 235.676 235.173 235.284 235.864C234.892 236.536 234.696 237.395 234.696 238.44V246H232.456ZM248.953 246.28C248.057 246.28 247.208 246.112 246.405 245.776C245.621 245.44 244.977 244.899 244.473 244.152C243.988 243.387 243.745 242.397 243.745 241.184V232H245.985V240.596C245.985 242.015 246.293 242.995 246.909 243.536C247.525 244.059 248.393 244.32 249.513 244.32C250.036 244.32 250.549 244.236 251.053 244.068C251.557 243.881 252.005 243.601 252.397 243.228C252.808 242.836 253.125 242.341 253.349 241.744C253.592 241.147 253.713 240.437 253.713 239.616V232H255.953V246H253.993L253.853 243.872C253.368 244.712 252.705 245.328 251.865 245.72C251.044 246.093 250.073 246.28 248.953 246.28ZM266.207 246.28C264.844 246.28 263.584 245.991 262.427 245.412C261.288 244.833 260.411 244.012 259.795 242.948L261.699 241.576C262.109 242.435 262.707 243.107 263.491 243.592C264.293 244.077 265.255 244.32 266.375 244.32C267.364 244.32 268.139 244.133 268.699 243.76C269.259 243.368 269.539 242.864 269.539 242.248C269.539 241.856 269.408 241.501 269.147 241.184C268.904 240.848 268.428 240.605 267.719 240.456L264.359 239.756C262.996 239.476 262.016 239.009 261.419 238.356C260.84 237.703 260.551 236.891 260.551 235.92C260.551 235.155 260.765 234.455 261.195 233.82C261.643 233.185 262.268 232.681 263.071 232.308C263.892 231.916 264.853 231.72 265.954 231.72C267.336 231.72 268.503 231.991 269.455 232.532C270.407 233.073 271.116 233.839 271.583 234.828L269.707 236.06C269.389 235.239 268.876 234.641 268.167 234.268C267.457 233.876 266.72 233.68 265.954 233.68C265.283 233.68 264.704 233.773 264.219 233.96C263.752 234.147 263.388 234.408 263.127 234.744C262.884 235.061 262.763 235.425 262.763 235.836C262.763 236.247 262.903 236.629 263.183 236.984C263.463 237.32 263.985 237.563 264.751 237.712L268.251 238.44C269.557 238.701 270.472 239.131 270.995 239.728C271.517 240.325 271.779 241.053 271.779 241.912C271.779 242.789 271.545 243.564 271.079 244.236C270.612 244.889 269.959 245.393 269.119 245.748C268.279 246.103 267.308 246.28 266.207 246.28ZM281.784 246.28C280.459 246.28 279.273 245.991 278.228 245.412C277.201 244.833 276.399 244.003 275.82 242.92C275.241 241.819 274.952 240.512 274.952 239C274.952 237.488 275.241 236.191 275.82 235.108C276.399 234.007 277.192 233.167 278.2 232.588C279.208 232.009 280.356 231.72 281.644 231.72C282.951 231.72 284.061 232 284.976 232.56C285.909 233.12 286.619 233.885 287.104 234.856C287.589 235.808 287.832 236.881 287.832 238.076C287.832 238.393 287.823 238.683 287.804 238.944C287.785 239.205 287.757 239.439 287.72 239.644H276.408V237.656H286.74L285.592 237.88C285.592 236.536 285.219 235.5 284.472 234.772C283.744 234.044 282.783 233.68 281.588 233.68C280.673 233.68 279.88 233.895 279.208 234.324C278.555 234.735 278.041 235.341 277.668 236.144C277.313 236.928 277.136 237.88 277.136 239C277.136 240.101 277.323 241.053 277.696 241.856C278.069 242.659 278.592 243.275 279.264 243.704C279.955 244.115 280.776 244.32 281.728 244.32C282.755 244.32 283.585 244.124 284.22 243.732C284.873 243.34 285.396 242.808 285.788 242.136L287.552 243.172C287.197 243.807 286.74 244.357 286.18 244.824C285.639 245.291 284.995 245.655 284.248 245.916C283.52 246.159 282.699 246.28 281.784 246.28ZM294.22 225.56V242.444C294.22 243.153 294.351 243.648 294.612 243.928C294.874 244.189 295.294 244.32 295.872 244.32C296.246 244.32 296.554 244.292 296.796 244.236C297.039 244.18 297.366 244.077 297.776 243.928L297.412 245.888C297.114 246.019 296.787 246.112 296.432 246.168C296.078 246.243 295.714 246.28 295.34 246.28C294.202 246.28 293.352 245.972 292.792 245.356C292.251 244.74 291.98 243.797 291.98 242.528V225.56H294.22ZM314.374 225.42C314.859 225.42 315.317 225.476 315.746 225.588C316.175 225.7 316.511 225.859 316.754 226.064L316.166 227.884C315.942 227.735 315.699 227.632 315.438 227.576C315.177 227.501 314.887 227.464 314.57 227.464C313.767 227.464 313.142 227.66 312.694 228.052C312.246 228.425 312.022 229.032 312.022 229.872V232V232.728V246H309.782V229.648C309.782 229.032 309.875 228.463 310.062 227.94C310.249 227.417 310.529 226.969 310.902 226.596C311.294 226.223 311.779 225.933 312.358 225.728C312.937 225.523 313.609 225.42 314.374 225.42ZM316.698 232V233.932H306.982V232H316.698ZM319.682 246V232H321.502L321.81 234.296C322.202 233.437 322.771 232.793 323.518 232.364C324.283 231.935 325.207 231.72 326.29 231.72C326.533 231.72 326.794 231.739 327.074 231.776C327.373 231.813 327.625 231.888 327.83 232L327.438 234.044C327.233 233.969 327.009 233.913 326.766 233.876C326.523 233.839 326.178 233.82 325.73 233.82C325.151 233.82 324.563 233.988 323.966 234.324C323.387 234.66 322.902 235.173 322.51 235.864C322.118 236.536 321.922 237.395 321.922 238.44V246H319.682ZM336.47 231.72C337.796 231.72 338.962 232.009 339.97 232.588C340.997 233.167 341.8 234.007 342.378 235.108C342.957 236.191 343.246 237.488 343.246 239C343.246 240.512 342.957 241.819 342.378 242.92C341.8 244.003 340.997 244.833 339.97 245.412C338.962 245.991 337.796 246.28 336.47 246.28C335.164 246.28 333.997 245.991 332.97 245.412C331.944 244.833 331.141 244.003 330.562 242.92C329.984 241.819 329.694 240.512 329.694 239C329.694 237.488 329.984 236.191 330.562 235.108C331.141 234.007 331.944 233.167 332.97 232.588C333.997 232.009 335.164 231.72 336.47 231.72ZM336.47 233.652C335.518 233.652 334.706 233.867 334.034 234.296C333.362 234.725 332.84 235.341 332.466 236.144C332.112 236.928 331.934 237.88 331.934 239C331.934 240.101 332.112 241.053 332.466 241.856C332.84 242.659 333.362 243.275 334.034 243.704C334.706 244.133 335.518 244.348 336.47 244.348C337.422 244.348 338.234 244.133 338.906 243.704C339.578 243.275 340.092 242.659 340.446 241.856C340.82 241.053 341.006 240.101 341.006 239C341.006 237.88 340.82 236.928 340.446 236.144C340.092 235.341 339.578 234.725 338.906 234.296C338.234 233.867 337.422 233.652 336.47 233.652ZM347.463 246V232H349.423L349.563 234.184C350.067 233.325 350.721 232.7 351.523 232.308C352.345 231.916 353.185 231.72 354.043 231.72C355.033 231.72 355.966 231.944 356.843 232.392C357.721 232.84 358.393 233.531 358.859 234.464C359.158 233.829 359.578 233.316 360.119 232.924C360.661 232.513 361.249 232.215 361.883 232.028C362.537 231.823 363.153 231.72 363.731 231.72C364.627 231.72 365.477 231.907 366.279 232.28C367.101 232.653 367.773 233.232 368.295 234.016C368.818 234.8 369.079 235.808 369.079 237.04V246H366.839V237.264C366.839 235.995 366.522 235.08 365.887 234.52C365.253 233.96 364.469 233.68 363.535 233.68C362.807 233.68 362.126 233.857 361.491 234.212C360.857 234.567 360.343 235.089 359.951 235.78C359.578 236.471 359.391 237.32 359.391 238.328V246H357.151V237.264C357.151 235.995 356.834 235.08 356.199 234.52C355.565 233.96 354.781 233.68 353.847 233.68C353.231 233.68 352.597 233.848 351.943 234.184C351.309 234.501 350.777 235.015 350.347 235.724C349.918 236.433 349.703 237.367 349.703 238.524V246H347.463ZM79.072 279V277.18C80.92 275.817 82.46 274.623 83.692 273.596C84.9427 272.569 85.9413 271.636 86.688 270.796C87.4347 269.956 87.9667 269.163 88.284 268.416C88.6013 267.651 88.76 266.857 88.76 266.036C88.76 264.935 88.4053 264.048 87.696 263.376C87.0053 262.685 86.0533 262.34 84.84 262.34C83.5707 262.34 82.5533 262.76 81.788 263.6C81.0227 264.421 80.5747 265.523 80.444 266.904L78.484 265.728C78.652 264.645 78.9973 263.693 79.52 262.872C80.0613 262.051 80.78 261.407 81.676 260.94C82.5907 260.473 83.6733 260.24 84.924 260.24C85.876 260.24 86.7253 260.38 87.472 260.66C88.2373 260.94 88.8907 261.341 89.432 261.864C89.9733 262.368 90.384 262.975 90.664 263.684C90.9627 264.393 91.112 265.177 91.112 266.036C91.112 267.193 90.832 268.332 90.272 269.452C89.712 270.553 88.788 271.711 87.5 272.924C86.212 274.137 84.4667 275.481 82.264 276.956V276.984C82.4693 276.965 82.7493 276.956 83.104 276.956C83.4773 276.937 83.8413 276.928 84.196 276.928C84.5693 276.909 84.8493 276.9 85.036 276.9H91.504V279H79.072ZM95.3962 279V277.18C97.2442 275.817 98.7842 274.623 100.016 273.596C101.267 272.569 102.266 271.636 103.012 270.796C103.759 269.956 104.291 269.163 104.608 268.416C104.926 267.651 105.084 266.857 105.084 266.036C105.084 264.935 104.73 264.048 104.02 263.376C103.33 262.685 102.378 262.34 101.164 262.34C99.8949 262.34 98.8776 262.76 98.1122 263.6C97.3469 264.421 96.8989 265.523 96.7682 266.904L94.8082 265.728C94.9762 264.645 95.3216 263.693 95.8442 262.872C96.3856 262.051 97.1042 261.407 98.0002 260.94C98.9149 260.473 99.9976 260.24 101.248 260.24C102.2 260.24 103.05 260.38 103.796 260.66C104.562 260.94 105.215 261.341 105.756 261.864C106.298 262.368 106.708 262.975 106.988 263.684C107.287 264.393 107.436 265.177 107.436 266.036C107.436 267.193 107.156 268.332 106.596 269.452C106.036 270.553 105.112 271.711 103.824 272.924C102.536 274.137 100.791 275.481 98.5882 276.956V276.984C98.7936 276.965 99.0736 276.956 99.4282 276.956C99.8016 276.937 100.166 276.928 100.52 276.928C100.894 276.909 101.174 276.9 101.36 276.9H107.828V279H95.3962ZM125.398 270.628V272.728H111.398V270.628H125.398ZM128.646 279V277.18C130.494 275.817 132.034 274.623 133.266 273.596C134.517 272.569 135.516 271.636 136.262 270.796C137.009 269.956 137.541 269.163 137.858 268.416C138.176 267.651 138.334 266.857 138.334 266.036C138.334 264.935 137.98 264.048 137.27 263.376C136.58 262.685 135.628 262.34 134.414 262.34C133.145 262.34 132.128 262.76 131.362 263.6C130.597 264.421 130.149 265.523 130.018 266.904L128.058 265.728C128.226 264.645 128.572 263.693 129.094 262.872C129.636 262.051 130.354 261.407 131.25 260.94C132.165 260.473 133.248 260.24 134.498 260.24C135.45 260.24 136.3 260.38 137.046 260.66C137.812 260.94 138.465 261.341 139.006 261.864C139.548 262.368 139.958 262.975 140.238 263.684C140.537 264.393 140.686 265.177 140.686 266.036C140.686 267.193 140.406 268.332 139.846 269.452C139.286 270.553 138.362 271.711 137.074 272.924C135.786 274.137 134.041 275.481 131.838 276.956V276.984C132.044 276.965 132.324 276.956 132.678 276.956C133.052 276.937 133.416 276.928 133.77 276.928C134.144 276.909 134.424 276.9 134.61 276.9H141.078V279H128.646ZM152.299 279V274.156H143.283V272.504L151.711 260.52H154.539V272.224H157.815V274.156H154.539V279H152.299ZM145.663 272.224H152.299V265.308C152.299 264.823 152.308 264.328 152.327 263.824C152.364 263.32 152.392 262.825 152.411 262.34H152.355C152.131 262.807 151.841 263.329 151.487 263.908C151.132 264.487 150.805 264.991 150.507 265.42L145.663 272.224ZM185.342 279H182.962L181.002 273.876H172.63L170.67 279H168.318L175.514 260.52H178.174L185.342 279ZM173.442 271.776H180.19L176.802 262.676L173.442 271.776ZM193.5 279.28C192.604 279.28 191.755 279.112 190.952 278.776C190.168 278.44 189.524 277.899 189.02 277.152C188.535 276.387 188.292 275.397 188.292 274.184V265H190.532V273.596C190.532 275.015 190.84 275.995 191.456 276.536C192.072 277.059 192.94 277.32 194.06 277.32C194.583 277.32 195.096 277.236 195.6 277.068C196.104 276.881 196.552 276.601 196.944 276.228C197.355 275.836 197.672 275.341 197.896 274.744C198.139 274.147 198.26 273.437 198.26 272.616V265H200.5V279H198.54L198.4 276.872C197.915 277.712 197.252 278.328 196.412 278.72C195.591 279.093 194.62 279.28 193.5 279.28ZM217.501 262.424L218.005 264.412C217.987 264.412 217.959 264.412 217.921 264.412C217.884 264.412 217.847 264.412 217.809 264.412C216.895 264.412 216.185 264.599 215.681 264.972C215.196 265.327 214.953 265.905 214.953 266.708L213.581 266.008C213.581 265.28 213.749 264.645 214.085 264.104C214.421 263.563 214.879 263.152 215.457 262.872C216.036 262.573 216.671 262.424 217.361 262.424C217.38 262.424 217.399 262.424 217.417 262.424C217.455 262.424 217.483 262.424 217.501 262.424ZM213.245 277.208C214.571 277.208 215.607 277.516 216.353 278.132C217.1 278.729 217.473 279.532 217.473 280.54C217.473 281.455 217.165 282.248 216.549 282.92C215.952 283.592 215.14 284.105 214.113 284.46C213.105 284.833 211.967 285.02 210.697 285.02C208.495 285.02 206.843 284.647 205.741 283.9C204.659 283.153 204.117 282.257 204.117 281.212C204.117 280.465 204.36 279.793 204.845 279.196C205.349 278.617 206.189 278.291 207.365 278.216L207.169 278.636C206.535 278.468 205.993 278.188 205.545 277.796C205.116 277.385 204.901 276.797 204.901 276.032C204.901 275.267 205.181 274.613 205.741 274.072C206.32 273.512 207.169 273.167 208.289 273.036L209.773 273.792H209.493C208.579 273.885 207.925 274.119 207.533 274.492C207.16 274.847 206.973 275.239 206.973 275.668C206.973 276.191 207.16 276.583 207.533 276.844C207.925 277.087 208.467 277.208 209.157 277.208H213.245ZM210.669 283.144C211.752 283.144 212.639 283.032 213.329 282.808C214.039 282.584 214.561 282.295 214.897 281.94C215.233 281.585 215.401 281.203 215.401 280.792C215.401 280.288 215.196 279.887 214.785 279.588C214.393 279.289 213.675 279.14 212.629 279.14H208.317C207.72 279.14 207.216 279.289 206.805 279.588C206.395 279.905 206.189 280.335 206.189 280.876C206.189 281.567 206.581 282.117 207.365 282.528C208.168 282.939 209.269 283.144 210.669 283.144ZM210.473 264.72C211.593 264.72 212.583 264.925 213.441 265.336C214.319 265.728 215 266.279 215.485 266.988C215.971 267.697 216.213 268.519 216.213 269.452C216.213 270.367 215.971 271.188 215.485 271.916C215 272.625 214.319 273.185 213.441 273.596C212.583 273.988 211.593 274.184 210.473 274.184C208.625 274.184 207.207 273.745 206.217 272.868C205.228 271.972 204.733 270.833 204.733 269.452C204.733 268.519 204.976 267.697 205.461 266.988C205.965 266.279 206.647 265.728 207.505 265.336C208.364 264.925 209.353 264.72 210.473 264.72ZM210.473 266.54C209.503 266.54 208.691 266.811 208.037 267.352C207.384 267.875 207.057 268.575 207.057 269.452C207.057 270.311 207.384 271.011 208.037 271.552C208.691 272.093 209.503 272.364 210.473 272.364C211.444 272.364 212.256 272.093 212.909 271.552C213.563 271.011 213.889 270.311 213.889 269.452C213.889 268.575 213.563 267.875 212.909 267.352C212.256 266.811 211.444 266.54 210.473 266.54ZM225.684 279.28C224.788 279.28 223.938 279.112 223.136 278.776C222.352 278.44 221.708 277.899 221.204 277.152C220.718 276.387 220.476 275.397 220.476 274.184V265H222.716V273.596C222.716 275.015 223.024 275.995 223.64 276.536C224.256 277.059 225.124 277.32 226.244 277.32C226.766 277.32 227.28 277.236 227.784 277.068C228.288 276.881 228.736 276.601 229.128 276.228C229.538 275.836 229.856 275.341 230.08 274.744C230.322 274.147 230.444 273.437 230.444 272.616V265H232.684V279H230.724L230.584 276.872C230.098 277.712 229.436 278.328 228.596 278.72C227.774 279.093 226.804 279.28 225.684 279.28ZM242.937 279.28C241.574 279.28 240.314 278.991 239.157 278.412C238.018 277.833 237.141 277.012 236.525 275.948L238.429 274.576C238.84 275.435 239.437 276.107 240.221 276.592C241.024 277.077 241.985 277.32 243.105 277.32C244.094 277.32 244.869 277.133 245.429 276.76C245.989 276.368 246.269 275.864 246.269 275.248C246.269 274.856 246.138 274.501 245.877 274.184C245.634 273.848 245.158 273.605 244.449 273.456L241.089 272.756C239.726 272.476 238.746 272.009 238.149 271.356C237.57 270.703 237.281 269.891 237.281 268.92C237.281 268.155 237.496 267.455 237.925 266.82C238.373 266.185 238.998 265.681 239.801 265.308C240.622 264.916 241.584 264.72 242.685 264.72C244.066 264.72 245.233 264.991 246.185 265.532C247.137 266.073 247.846 266.839 248.313 267.828L246.437 269.06C246.12 268.239 245.606 267.641 244.897 267.268C244.188 266.876 243.45 266.68 242.685 266.68C242.013 266.68 241.434 266.773 240.949 266.96C240.482 267.147 240.118 267.408 239.857 267.744C239.614 268.061 239.493 268.425 239.493 268.836C239.493 269.247 239.633 269.629 239.913 269.984C240.193 270.32 240.716 270.563 241.481 270.712L244.981 271.44C246.288 271.701 247.202 272.131 247.725 272.728C248.248 273.325 248.509 274.053 248.509 274.912C248.509 275.789 248.276 276.564 247.809 277.236C247.342 277.889 246.689 278.393 245.849 278.748C245.009 279.103 244.038 279.28 242.937 279.28ZM255.967 261.024V275.136C255.967 275.827 256.163 276.34 256.555 276.676C256.947 277.012 257.451 277.18 258.067 277.18C258.608 277.18 259.075 277.087 259.467 276.9C259.859 276.713 260.213 276.461 260.531 276.144L261.315 278.02C260.885 278.412 260.372 278.72 259.775 278.944C259.196 279.168 258.524 279.28 257.759 279.28C257.049 279.28 256.387 279.159 255.771 278.916C255.155 278.655 254.66 278.253 254.287 277.712C253.932 277.152 253.745 276.424 253.727 275.528V261.64L255.967 261.024ZM261.063 265V266.932H250.927V265H261.063ZM273.404 279V277.18C275.252 275.817 276.792 274.623 278.024 273.596C279.275 272.569 280.273 271.636 281.02 270.796C281.767 269.956 282.299 269.163 282.616 268.416C282.933 267.651 283.092 266.857 283.092 266.036C283.092 264.935 282.737 264.048 282.028 263.376C281.337 262.685 280.385 262.34 279.172 262.34C277.903 262.34 276.885 262.76 276.12 263.6C275.355 264.421 274.907 265.523 274.776 266.904L272.816 265.728C272.984 264.645 273.329 263.693 273.852 262.872C274.393 262.051 275.112 261.407 276.008 260.94C276.923 260.473 278.005 260.24 279.256 260.24C280.208 260.24 281.057 260.38 281.804 260.66C282.569 260.94 283.223 261.341 283.764 261.864C284.305 262.368 284.716 262.975 284.996 263.684C285.295 264.393 285.444 265.177 285.444 266.036C285.444 267.193 285.164 268.332 284.604 269.452C284.044 270.553 283.12 271.711 281.832 272.924C280.544 274.137 278.799 275.481 276.596 276.956V276.984C276.801 276.965 277.081 276.956 277.436 276.956C277.809 276.937 278.173 276.928 278.528 276.928C278.901 276.909 279.181 276.9 279.368 276.9H285.836V279H273.404ZM296.364 279.28C294.274 279.28 292.603 278.468 291.352 276.844C290.102 275.22 289.476 272.859 289.476 269.76C289.476 266.661 290.102 264.3 291.352 262.676C292.603 261.052 294.274 260.24 296.364 260.24C298.474 260.24 300.144 261.052 301.376 262.676C302.627 264.3 303.252 266.661 303.252 269.76C303.252 272.859 302.627 275.22 301.376 276.844C300.144 278.468 298.474 279.28 296.364 279.28ZM296.364 277.264C297.354 277.264 298.184 276.984 298.856 276.424C299.547 275.845 300.06 274.996 300.396 273.876C300.751 272.756 300.928 271.384 300.928 269.76C300.928 268.136 300.751 266.764 300.396 265.644C300.06 264.524 299.547 263.684 298.856 263.124C298.184 262.545 297.354 262.256 296.364 262.256C295.375 262.256 294.535 262.545 293.844 263.124C293.172 263.684 292.659 264.524 292.304 265.644C291.968 266.764 291.8 268.136 291.8 269.76C291.8 271.384 291.968 272.756 292.304 273.876C292.659 274.996 293.172 275.845 293.844 276.424C294.535 276.984 295.375 277.264 296.364 277.264ZM307.146 279V277.18C308.994 275.817 310.534 274.623 311.766 273.596C313.017 272.569 314.016 271.636 314.762 270.796C315.509 269.956 316.041 269.163 316.358 268.416C316.676 267.651 316.834 266.857 316.834 266.036C316.834 264.935 316.48 264.048 315.77 263.376C315.08 262.685 314.128 262.34 312.914 262.34C311.645 262.34 310.628 262.76 309.862 263.6C309.097 264.421 308.649 265.523 308.518 266.904L306.558 265.728C306.726 264.645 307.072 263.693 307.594 262.872C308.136 262.051 308.854 261.407 309.75 260.94C310.665 260.473 311.748 260.24 312.998 260.24C313.95 260.24 314.8 260.38 315.546 260.66C316.312 260.94 316.965 261.341 317.506 261.864C318.048 262.368 318.458 262.975 318.738 263.684C319.037 264.393 319.186 265.177 319.186 266.036C319.186 267.193 318.906 268.332 318.346 269.452C317.786 270.553 316.862 271.711 315.574 272.924C314.286 274.137 312.541 275.481 310.338 276.956V276.984C310.544 276.965 310.824 276.956 311.178 276.956C311.552 276.937 311.916 276.928 312.27 276.928C312.644 276.909 312.924 276.9 313.11 276.9H319.578V279H307.146ZM330.799 279V274.156H321.783V272.504L330.211 260.52H333.039V272.224H336.315V274.156H333.039V279H330.799ZM324.163 272.224H330.799V265.308C330.799 264.823 330.808 264.328 330.827 263.824C330.864 263.32 330.892 262.825 330.911 262.34H330.855C330.631 262.807 330.341 263.329 329.987 263.908C329.632 264.487 329.305 264.991 329.007 265.42L324.163 272.224ZM341.091 275.64C341.633 275.64 342.071 275.808 342.407 276.144C342.743 276.48 342.911 276.919 342.911 277.46C342.911 278.001 342.743 278.44 342.407 278.776C342.071 279.112 341.633 279.28 341.091 279.28C340.55 279.28 340.111 279.112 339.775 278.776C339.439 278.44 339.271 278.001 339.271 277.46C339.271 276.919 339.439 276.48 339.775 276.144C340.111 275.808 340.55 275.64 341.091 275.64Z" fill="white"/>
<path d="M93.016 334.52V336.62H86.576V353H84.336V336.62H77.896V334.52H93.016ZM99.2646 353.28C97.9393 353.28 96.7539 352.991 95.7086 352.412C94.6819 351.833 93.8793 351.003 93.3006 349.92C92.7219 348.819 92.4326 347.512 92.4326 346C92.4326 344.488 92.7219 343.191 93.3006 342.108C93.8793 341.007 94.6726 340.167 95.6806 339.588C96.6886 339.009 97.8366 338.72 99.1246 338.72C100.431 338.72 101.542 339 102.457 339.56C103.39 340.12 104.099 340.885 104.585 341.856C105.07 342.808 105.313 343.881 105.313 345.076C105.313 345.393 105.303 345.683 105.285 345.944C105.266 346.205 105.238 346.439 105.201 346.644H93.8886V344.656H104.221L103.073 344.88C103.073 343.536 102.699 342.5 101.953 341.772C101.225 341.044 100.263 340.68 99.0686 340.68C98.1539 340.68 97.3606 340.895 96.6886 341.324C96.0353 341.735 95.5219 342.341 95.1486 343.144C94.7939 343.928 94.6166 344.88 94.6166 346C94.6166 347.101 94.8033 348.053 95.1766 348.856C95.5499 349.659 96.0726 350.275 96.7446 350.704C97.4353 351.115 98.2566 351.32 99.2086 351.32C100.235 351.32 101.066 351.124 101.701 350.732C102.354 350.34 102.877 349.808 103.269 349.136L105.033 350.172C104.678 350.807 104.221 351.357 103.661 351.824C103.119 352.291 102.475 352.655 101.729 352.916C101.001 353.159 100.179 353.28 99.2646 353.28ZM109.573 353V339H111.393L111.701 341.296C112.093 340.437 112.662 339.793 113.409 339.364C114.174 338.935 115.098 338.72 116.181 338.72C116.423 338.72 116.685 338.739 116.965 338.776C117.263 338.813 117.515 338.888 117.721 339L117.329 341.044C117.123 340.969 116.899 340.913 116.657 340.876C116.414 340.839 116.069 340.82 115.621 340.82C115.042 340.82 114.454 340.988 113.857 341.324C113.278 341.66 112.793 342.173 112.401 342.864C112.009 343.536 111.813 344.395 111.813 345.44V353H109.573ZM121.002 353V339H122.962L123.102 341.184C123.606 340.325 124.26 339.7 125.062 339.308C125.884 338.916 126.724 338.72 127.582 338.72C128.572 338.72 129.505 338.944 130.382 339.392C131.26 339.84 131.932 340.531 132.398 341.464C132.697 340.829 133.117 340.316 133.658 339.924C134.2 339.513 134.788 339.215 135.422 339.028C136.076 338.823 136.692 338.72 137.27 338.72C138.166 338.72 139.016 338.907 139.818 339.28C140.64 339.653 141.312 340.232 141.834 341.016C142.357 341.8 142.618 342.808 142.618 344.04V353H140.378V344.264C140.378 342.995 140.061 342.08 139.426 341.52C138.792 340.96 138.008 340.68 137.074 340.68C136.346 340.68 135.665 340.857 135.03 341.212C134.396 341.567 133.882 342.089 133.49 342.78C133.117 343.471 132.93 344.32 132.93 345.328V353H130.69V344.264C130.69 342.995 130.373 342.08 129.738 341.52C129.104 340.96 128.32 340.68 127.386 340.68C126.77 340.68 126.136 340.848 125.482 341.184C124.848 341.501 124.316 342.015 123.886 342.724C123.457 343.433 123.242 344.367 123.242 345.524V353H121.002ZM152.73 353.28C151.367 353.28 150.107 352.991 148.95 352.412C147.811 351.833 146.934 351.012 146.318 349.948L148.222 348.576C148.633 349.435 149.23 350.107 150.014 350.592C150.817 351.077 151.778 351.32 152.898 351.32C153.887 351.32 154.662 351.133 155.222 350.76C155.782 350.368 156.062 349.864 156.062 349.248C156.062 348.856 155.931 348.501 155.67 348.184C155.427 347.848 154.951 347.605 154.242 347.456L150.882 346.756C149.519 346.476 148.539 346.009 147.942 345.356C147.363 344.703 147.074 343.891 147.074 342.92C147.074 342.155 147.289 341.455 147.718 340.82C148.166 340.185 148.791 339.681 149.594 339.308C150.415 338.916 151.377 338.72 152.478 338.72C153.859 338.72 155.026 338.991 155.978 339.532C156.93 340.073 157.639 340.839 158.106 341.828L156.23 343.06C155.913 342.239 155.399 341.641 154.69 341.268C153.981 340.876 153.243 340.68 152.478 340.68C151.806 340.68 151.227 340.773 150.742 340.96C150.275 341.147 149.911 341.408 149.65 341.744C149.407 342.061 149.286 342.425 149.286 342.836C149.286 343.247 149.426 343.629 149.706 343.984C149.986 344.32 150.509 344.563 151.274 344.712L154.774 345.44C156.081 345.701 156.995 346.131 157.518 346.728C158.041 347.325 158.302 348.053 158.302 348.912C158.302 349.789 158.069 350.564 157.602 351.236C157.135 351.889 156.482 352.393 155.642 352.748C154.802 353.103 153.831 353.28 152.73 353.28ZM163.996 338.72C164.537 338.72 164.976 338.888 165.312 339.224C165.648 339.56 165.816 339.999 165.816 340.54C165.816 341.081 165.648 341.52 165.312 341.856C164.976 342.192 164.537 342.36 163.996 342.36C163.454 342.36 163.016 342.192 162.68 341.856C162.344 341.52 162.176 341.081 162.176 340.54C162.176 339.999 162.344 339.56 162.68 339.224C163.016 338.888 163.454 338.72 163.996 338.72ZM163.996 349.64C164.537 349.64 164.976 349.808 165.312 350.144C165.648 350.48 165.816 350.919 165.816 351.46C165.816 352.001 165.648 352.44 165.312 352.776C164.976 353.112 164.537 353.28 163.996 353.28C163.454 353.28 163.016 353.112 162.68 352.776C162.344 352.44 162.176 352.001 162.176 351.46C162.176 350.919 162.344 350.48 162.68 350.144C163.016 349.808 163.454 349.64 163.996 349.64ZM194.311 353H191.931L189.971 347.876H181.599L179.639 353H177.287L184.483 334.52H187.143L194.311 353ZM182.411 345.776H189.159L185.771 336.676L182.411 345.776ZM209.435 336.424L209.939 338.412C209.92 338.412 209.892 338.412 209.855 338.412C209.818 338.412 209.78 338.412 209.743 338.412C208.828 338.412 208.119 338.599 207.615 338.972C207.13 339.327 206.887 339.905 206.887 340.708L205.515 340.008C205.515 339.28 205.683 338.645 206.019 338.104C206.355 337.563 206.812 337.152 207.391 336.872C207.97 336.573 208.604 336.424 209.295 336.424C209.314 336.424 209.332 336.424 209.351 336.424C209.388 336.424 209.416 336.424 209.435 336.424ZM205.179 351.208C206.504 351.208 207.54 351.516 208.287 352.132C209.034 352.729 209.407 353.532 209.407 354.54C209.407 355.455 209.099 356.248 208.483 356.92C207.886 357.592 207.074 358.105 206.047 358.46C205.039 358.833 203.9 359.02 202.631 359.02C200.428 359.02 198.776 358.647 197.675 357.9C196.592 357.153 196.051 356.257 196.051 355.212C196.051 354.465 196.294 353.793 196.779 353.196C197.283 352.617 198.123 352.291 199.299 352.216L199.103 352.636C198.468 352.468 197.927 352.188 197.479 351.796C197.05 351.385 196.835 350.797 196.835 350.032C196.835 349.267 197.115 348.613 197.675 348.072C198.254 347.512 199.103 347.167 200.223 347.036L201.707 347.792H201.427C200.512 347.885 199.859 348.119 199.467 348.492C199.094 348.847 198.907 349.239 198.907 349.668C198.907 350.191 199.094 350.583 199.467 350.844C199.859 351.087 200.4 351.208 201.091 351.208H205.179ZM202.603 357.144C203.686 357.144 204.572 357.032 205.263 356.808C205.972 356.584 206.495 356.295 206.831 355.94C207.167 355.585 207.335 355.203 207.335 354.792C207.335 354.288 207.13 353.887 206.719 353.588C206.327 353.289 205.608 353.14 204.563 353.14H200.251C199.654 353.14 199.15 353.289 198.739 353.588C198.328 353.905 198.123 354.335 198.123 354.876C198.123 355.567 198.515 356.117 199.299 356.528C200.102 356.939 201.203 357.144 202.603 357.144ZM202.407 338.72C203.527 338.72 204.516 338.925 205.375 339.336C206.252 339.728 206.934 340.279 207.419 340.988C207.904 341.697 208.147 342.519 208.147 343.452C208.147 344.367 207.904 345.188 207.419 345.916C206.934 346.625 206.252 347.185 205.375 347.596C204.516 347.988 203.527 348.184 202.407 348.184C200.559 348.184 199.14 347.745 198.151 346.868C197.162 345.972 196.667 344.833 196.667 343.452C196.667 342.519 196.91 341.697 197.395 340.988C197.899 340.279 198.58 339.728 199.439 339.336C200.298 338.925 201.287 338.72 202.407 338.72ZM202.407 340.54C201.436 340.54 200.624 340.811 199.971 341.352C199.318 341.875 198.991 342.575 198.991 343.452C198.991 344.311 199.318 345.011 199.971 345.552C200.624 346.093 201.436 346.364 202.407 346.364C203.378 346.364 204.19 346.093 204.843 345.552C205.496 345.011 205.823 344.311 205.823 343.452C205.823 342.575 205.496 341.875 204.843 341.352C204.19 340.811 203.378 340.54 202.407 340.54ZM218.401 353.28C217.076 353.28 215.891 352.991 214.845 352.412C213.819 351.833 213.016 351.003 212.437 349.92C211.859 348.819 211.569 347.512 211.569 346C211.569 344.488 211.859 343.191 212.437 342.108C213.016 341.007 213.809 340.167 214.817 339.588C215.825 339.009 216.973 338.72 218.261 338.72C219.568 338.72 220.679 339 221.593 339.56C222.527 340.12 223.236 340.885 223.721 341.856C224.207 342.808 224.449 343.881 224.449 345.076C224.449 345.393 224.44 345.683 224.421 345.944C224.403 346.205 224.375 346.439 224.337 346.644H213.025V344.656H223.357L222.209 344.88C222.209 343.536 221.836 342.5 221.089 341.772C220.361 341.044 219.4 340.68 218.205 340.68C217.291 340.68 216.497 340.895 215.825 341.324C215.172 341.735 214.659 342.341 214.285 343.144C213.931 343.928 213.753 344.88 213.753 346C213.753 347.101 213.94 348.053 214.313 348.856C214.687 349.659 215.209 350.275 215.881 350.704C216.572 351.115 217.393 351.32 218.345 351.32C219.372 351.32 220.203 351.124 220.837 350.732C221.491 350.34 222.013 349.808 222.405 349.136L224.169 350.172C223.815 350.807 223.357 351.357 222.797 351.824C222.256 352.291 221.612 352.655 220.865 352.916C220.137 353.159 219.316 353.28 218.401 353.28ZM240.38 332.56V349.444C240.38 350.153 240.511 350.648 240.772 350.928C241.034 351.189 241.454 351.32 242.032 351.32C242.406 351.32 242.714 351.292 242.956 351.236C243.199 351.18 243.526 351.077 243.936 350.928L243.572 352.888C243.274 353.019 242.947 353.112 242.592 353.168C242.238 353.243 241.874 353.28 241.5 353.28C240.362 353.28 239.512 352.972 238.952 352.356C238.411 351.74 238.14 350.797 238.14 349.528V332.56H240.38ZM247.931 336.312C247.427 336.312 247.016 336.163 246.699 335.864C246.4 335.547 246.251 335.136 246.251 334.632C246.251 334.128 246.4 333.727 246.699 333.428C247.016 333.111 247.427 332.952 247.931 332.952C248.435 332.952 248.836 333.111 249.135 333.428C249.452 333.727 249.611 334.128 249.611 334.632C249.611 335.136 249.452 335.547 249.135 335.864C248.836 336.163 248.435 336.312 247.931 336.312ZM249.051 339V353H246.811V339H249.051ZM254.249 353V339H256.209L256.349 341.184C256.853 340.325 257.506 339.7 258.309 339.308C259.13 338.916 259.97 338.72 260.829 338.72C261.818 338.72 262.751 338.944 263.629 339.392C264.506 339.84 265.178 340.531 265.645 341.464C265.943 340.829 266.363 340.316 266.905 339.924C267.446 339.513 268.034 339.215 268.669 339.028C269.322 338.823 269.938 338.72 270.517 338.72C271.413 338.72 272.262 338.907 273.065 339.28C273.886 339.653 274.558 340.232 275.081 341.016C275.603 341.8 275.865 342.808 275.865 344.04V353H273.625V344.264C273.625 342.995 273.307 342.08 272.673 341.52C272.038 340.96 271.254 340.68 270.321 340.68C269.593 340.68 268.911 340.857 268.277 341.212C267.642 341.567 267.129 342.089 266.737 342.78C266.363 343.471 266.177 344.32 266.177 345.328V353H263.937V344.264C263.937 342.995 263.619 342.08 262.985 341.52C262.35 340.96 261.566 340.68 260.633 340.68C260.017 340.68 259.382 340.848 258.729 341.184C258.094 341.501 257.562 342.015 257.133 342.724C256.703 343.433 256.489 344.367 256.489 345.524V353H254.249ZM282.056 336.312C281.552 336.312 281.141 336.163 280.824 335.864C280.525 335.547 280.376 335.136 280.376 334.632C280.376 334.128 280.525 333.727 280.824 333.428C281.141 333.111 281.552 332.952 282.056 332.952C282.56 332.952 282.961 333.111 283.26 333.428C283.577 333.727 283.736 334.128 283.736 334.632C283.736 335.136 283.577 335.547 283.26 335.864C282.961 336.163 282.56 336.312 282.056 336.312ZM283.176 339V353H280.936V339H283.176ZM291.678 335.024V349.136C291.678 349.827 291.874 350.34 292.266 350.676C292.658 351.012 293.162 351.18 293.778 351.18C294.319 351.18 294.786 351.087 295.178 350.9C295.57 350.713 295.924 350.461 296.242 350.144L297.026 352.02C296.596 352.412 296.083 352.72 295.486 352.944C294.907 353.168 294.235 353.28 293.47 353.28C292.76 353.28 292.098 353.159 291.482 352.916C290.866 352.655 290.371 352.253 289.998 351.712C289.643 351.152 289.456 350.424 289.438 349.528V335.64L291.678 335.024ZM296.774 339V340.932H286.638V339H296.774ZM312.32 353V339.448C312.32 339.131 312.32 338.795 312.32 338.44C312.339 338.067 312.357 337.684 312.376 337.292C311.741 337.908 311.004 338.449 310.164 338.916C309.324 339.364 308.465 339.691 307.588 339.896L307 337.852C307.336 337.815 307.756 337.693 308.26 337.488C308.783 337.264 309.324 336.993 309.884 336.676C310.463 336.34 310.995 335.985 311.48 335.612C311.965 335.239 312.339 334.875 312.6 334.52H314.56V353H312.32ZM326.03 334.268C327.225 334.268 328.261 334.464 329.138 334.856C330.016 335.248 330.697 335.808 331.182 336.536C331.668 337.245 331.91 338.104 331.91 339.112C331.91 340.064 331.677 340.904 331.21 341.632C330.762 342.341 330.128 342.883 329.306 343.256V343.284C330.352 343.676 331.182 344.273 331.798 345.076C332.433 345.879 332.75 346.859 332.75 348.016C332.75 349.099 332.47 350.032 331.91 350.816C331.35 351.6 330.566 352.207 329.558 352.636C328.569 353.065 327.393 353.28 326.03 353.28C324.686 353.28 323.51 353.065 322.502 352.636C321.494 352.207 320.71 351.6 320.15 350.816C319.59 350.032 319.31 349.099 319.31 348.016C319.31 346.877 319.618 345.907 320.234 345.104C320.85 344.283 321.7 343.676 322.782 343.284V343.256C321.98 342.901 321.336 342.369 320.85 341.66C320.384 340.932 320.15 340.083 320.15 339.112C320.15 338.104 320.393 337.245 320.878 336.536C321.364 335.808 322.045 335.248 322.922 334.856C323.818 334.464 324.854 334.268 326.03 334.268ZM326.03 336.368C324.948 336.368 324.08 336.629 323.426 337.152C322.792 337.675 322.474 338.403 322.474 339.336C322.474 340.251 322.801 340.969 323.454 341.492C324.108 342.015 324.966 342.276 326.03 342.276C327.094 342.276 327.953 342.015 328.606 341.492C329.26 340.969 329.586 340.251 329.586 339.336C329.586 338.403 329.269 337.675 328.634 337.152C328 336.629 327.132 336.368 326.03 336.368ZM326.03 351.18C326.945 351.18 327.729 351.049 328.382 350.788C329.036 350.508 329.54 350.116 329.894 349.612C330.249 349.089 330.426 348.483 330.426 347.792C330.426 347.083 330.24 346.476 329.866 345.972C329.512 345.449 329.008 345.057 328.354 344.796C327.701 344.516 326.926 344.376 326.03 344.376C325.153 344.376 324.378 344.516 323.706 344.796C323.053 345.057 322.54 345.449 322.166 345.972C321.812 346.476 321.634 347.083 321.634 347.792C321.634 348.483 321.812 349.089 322.166 349.612C322.521 350.116 323.025 350.508 323.678 350.788C324.35 351.049 325.134 351.18 326.03 351.18ZM344.18 337.208V351.096H342.08V337.208H344.18ZM349.92 343.088V345.188H336.312V343.088H349.92Z" fill="white"/>
<path d="M606.239 194.85C610.746 194.85 614.559 195.478 617.679 196.735C620.799 197.992 623.139 199.66 624.699 201.74C626.259 203.777 627.039 205.987 627.039 208.37C627.039 211.923 625.522 214.783 622.489 216.95C624.526 218.033 626.064 219.442 627.104 221.175C628.187 222.865 628.729 224.793 628.729 226.96C628.729 229.517 627.884 231.922 626.194 234.175C624.504 236.385 621.947 238.183 618.524 239.57C615.144 240.957 611.049 241.65 606.239 241.65C601.386 241.65 597.269 240.957 593.889 239.57C590.552 238.183 588.039 236.363 586.349 234.11C584.702 231.813 583.879 229.387 583.879 226.83C583.879 224.707 584.377 222.8 585.374 221.11C586.371 219.377 587.801 217.99 589.664 216.95C586.717 214.74 585.244 211.923 585.244 208.5C585.244 206.117 586.024 203.885 587.584 201.805C589.144 199.725 591.506 198.057 594.669 196.8C597.832 195.5 601.689 194.85 606.239 194.85ZM611.049 209.41C611.049 208.37 610.572 207.525 609.619 206.875C608.666 206.225 607.539 205.9 606.239 205.9C604.939 205.9 603.812 206.225 602.859 206.875C601.949 207.482 601.494 208.327 601.494 209.41C601.494 210.45 601.949 211.295 602.859 211.945C603.812 212.552 604.939 212.855 606.239 212.855C607.539 212.855 608.666 212.552 609.619 211.945C610.572 211.295 611.049 210.45 611.049 209.41ZM611.439 227.22C611.396 226.05 610.876 225.118 609.879 224.425C608.882 223.732 607.669 223.385 606.239 223.385C604.852 223.385 603.639 223.732 602.599 224.425C601.559 225.118 601.039 226.05 601.039 227.22C601.039 228.347 601.537 229.213 602.534 229.82C603.574 230.427 604.809 230.73 606.239 230.73C607.669 230.73 608.882 230.448 609.879 229.885C610.919 229.278 611.439 228.39 611.439 227.22ZM681.938 224.165C681.938 229.928 679.923 234.283 675.893 237.23C671.907 240.177 666.663 241.65 660.163 241.65C653.62 241.65 648.355 240.177 644.368 237.23C640.382 234.283 638.388 229.885 638.388 224.035V212.465C638.388 208.565 639.363 205.293 641.313 202.65C643.263 200.007 645.863 198.057 649.113 196.8C652.407 195.5 656.09 194.85 660.163 194.85C664.237 194.85 667.898 195.5 671.148 196.8C674.442 198.057 677.063 200.007 679.013 202.65C680.963 205.25 681.938 208.478 681.938 212.335V224.165ZM655.938 224.685C655.938 225.898 656.35 226.917 657.173 227.74C657.997 228.52 658.993 228.91 660.163 228.91C661.333 228.91 662.33 228.498 663.153 227.675C663.977 226.852 664.388 225.855 664.388 224.685V211.685C664.388 210.472 663.977 209.475 663.153 208.695C662.373 207.872 661.377 207.46 660.163 207.46C658.95 207.46 657.932 207.872 657.108 208.695C656.328 209.518 655.938 210.515 655.938 211.685V224.685ZM735.863 224.165C735.863 229.928 733.848 234.283 729.818 237.23C725.831 240.177 720.588 241.65 714.088 241.65C707.545 241.65 702.28 240.177 698.293 237.23C694.306 234.283 692.313 229.885 692.313 224.035V212.465C692.313 208.565 693.288 205.293 695.238 202.65C697.188 200.007 699.788 198.057 703.038 196.8C706.331 195.5 710.015 194.85 714.088 194.85C718.161 194.85 721.823 195.5 725.073 196.8C728.366 198.057 730.988 200.007 732.938 202.65C734.888 205.25 735.863 208.478 735.863 212.335V224.165ZM709.863 224.685C709.863 225.898 710.275 226.917 711.098 227.74C711.921 228.52 712.918 228.91 714.088 228.91C715.258 228.91 716.255 228.498 717.078 227.675C717.901 226.852 718.313 225.855 718.313 224.685V211.685C718.313 210.472 717.901 209.475 717.078 208.695C716.298 207.872 715.301 207.46 714.088 207.46C712.875 207.46 711.856 207.872 711.033 208.695C710.253 209.518 709.863 210.515 709.863 211.685V224.685ZM821.742 195.5C829.066 195.5 834.916 197.082 839.292 200.245C843.712 203.408 845.922 208.305 845.922 214.935V221.565C845.922 228.325 843.734 233.265 839.357 236.385C835.024 239.462 829.152 241 821.742 241H801.007C800.531 241 800.119 240.827 799.772 240.48C799.426 240.133 799.252 239.722 799.252 239.245V197.255C799.252 196.778 799.426 196.367 799.772 196.02C800.119 195.673 800.531 195.5 801.007 195.5H821.742ZM822.067 228.325C824.104 228.325 825.707 227.848 826.877 226.895C828.091 225.898 828.697 224.512 828.697 222.735V213.765C828.697 211.988 828.091 210.623 826.877 209.67C825.707 208.673 824.104 208.175 822.067 208.175H816.152V228.325H822.067ZM902.707 238.725C902.88 238.985 902.967 239.267 902.967 239.57C902.967 239.96 902.815 240.307 902.512 240.61C902.252 240.87 901.927 241 901.537 241H884.767C883.77 241 882.99 240.653 882.427 239.96L871.117 225.985V239.245C871.117 239.722 870.944 240.133 870.597 240.48C870.25 240.827 869.839 241 869.362 241H855.972C855.495 241 855.084 240.827 854.737 240.48C854.39 240.133 854.217 239.722 854.217 239.245V197.255C854.217 196.778 854.39 196.367 854.737 196.02C855.084 195.673 855.495 195.5 855.972 195.5H869.362C869.839 195.5 870.25 195.673 870.597 196.02C870.944 196.367 871.117 196.778 871.117 197.255V209.475L881.387 196.605C882.037 195.868 882.839 195.5 883.792 195.5H899.457C899.847 195.5 900.172 195.652 900.432 195.955C900.735 196.215 900.887 196.54 900.887 196.93C900.887 197.277 900.779 197.58 900.562 197.84L885.157 216.625L902.707 238.725ZM956.632 238.725C956.805 238.985 956.892 239.267 956.892 239.57C956.892 239.96 956.74 240.307 956.437 240.61C956.177 240.87 955.852 241 955.462 241H938.692C937.695 241 936.915 240.653 936.352 239.96L925.042 225.985V239.245C925.042 239.722 924.868 240.133 924.522 240.48C924.175 240.827 923.763 241 923.287 241H909.897C909.42 241 909.008 240.827 908.662 240.48C908.315 240.133 908.142 239.722 908.142 239.245V197.255C908.142 196.778 908.315 196.367 908.662 196.02C909.008 195.673 909.42 195.5 909.897 195.5H923.287C923.763 195.5 924.175 195.673 924.522 196.02C924.868 196.367 925.042 196.778 925.042 197.255V209.475L935.312 196.605C935.962 195.868 936.763 195.5 937.717 195.5H953.382C953.772 195.5 954.097 195.652 954.357 195.955C954.66 196.215 954.812 196.54 954.812 196.93C954.812 197.277 954.703 197.58 954.487 197.84L939.082 216.625L956.632 238.725Z" fill="white"/>
</g>
<defs>
<clipPath id="clip0_441_1556">
<rect width="1075" height="437" fill="white"/>
</clipPath>
</defs>
</svg>
