<svg width="349" height="142" viewBox="0 0 349 142" fill="none" xmlns="http://www.w3.org/2000/svg">
<g clip-path="url(#clip0_441_1601)">
<path d="M11.473 140.597L11.4593 131.463L11.157 0H0V140.597L349 142V131.023L10.9921 130.995" fill="#F54765"/>
<path d="M348.656 0.316406L336.634 0.632787L337.486 130.995H349L348.656 0.316406Z" fill="#F54765"/>
<path d="M11.1572 0H348.464L348.684 10.0004H12.5312H11.1847" fill="#F54765"/>
<path d="M14.4272 18.1988C17.842 18.1988 20.6103 15.7353 20.6103 12.6965C20.6103 9.65767 17.842 7.19421 14.4272 7.19421C11.0124 7.19421 8.24414 9.65767 8.24414 12.6965C8.24414 15.7353 11.0124 18.1988 14.4272 18.1988Z" fill="#F54765"/>
<path d="M11.6792 37.4567C14.3351 37.4567 16.4882 35.3012 16.4882 32.6423C16.4882 29.9833 14.3351 27.8278 11.6792 27.8278C9.0232 27.8278 6.87012 29.9833 6.87012 32.6423C6.87012 35.3012 9.0232 37.4567 11.6792 37.4567Z" fill="#F54765"/>
<path d="M11.6792 56.7148C14.3351 56.7148 16.4882 54.2513 16.4882 51.2125C16.4882 48.1737 14.3351 45.7102 11.6792 45.7102C9.0232 45.7102 6.87012 48.1737 6.87012 51.2125C6.87012 54.2513 9.0232 56.7148 11.6792 56.7148Z" fill="#F54765"/>
<path d="M11.6792 74.5971C14.3351 74.5971 16.4882 72.4416 16.4882 69.7826C16.4882 67.1237 14.3351 64.9681 11.6792 64.9681C9.0232 64.9681 6.87012 67.1237 6.87012 69.7826C6.87012 72.4416 9.0232 74.5971 11.6792 74.5971Z" fill="#F54765"/>
<path d="M11.6792 92.4796C14.3351 92.4796 16.4882 90.324 16.4882 87.6651C16.4882 85.0061 14.3351 82.8506 11.6792 82.8506C9.0232 82.8506 6.87012 85.0061 6.87012 87.6651C6.87012 90.324 9.0232 92.4796 11.6792 92.4796Z" fill="#F54765"/>
<path d="M12.3662 111.738C14.6427 111.738 16.4882 109.582 16.4882 106.923C16.4882 104.264 14.6427 102.109 12.3662 102.109C10.0896 102.109 8.24414 104.264 8.24414 106.923C8.24414 109.582 10.0896 111.738 12.3662 111.738Z" fill="#F54765"/>
<path d="M14.4272 136.498C18.6009 136.498 21.9843 133.418 21.9843 129.62C21.9843 125.821 18.6009 122.742 14.4272 122.742C10.2535 122.742 6.87012 125.821 6.87012 129.62C6.87012 133.418 10.2535 136.498 14.4272 136.498Z" fill="#F54765"/>
<path d="M333.199 16.8232C336.614 16.8232 339.382 14.3597 339.382 11.3209C339.382 8.28206 336.614 5.8186 333.199 5.8186C329.784 5.8186 327.016 8.28206 327.016 11.3209C327.016 14.3597 329.784 16.8232 333.199 16.8232Z" fill="#F54765"/>
<path d="M337.321 40.2079C340.736 40.2079 343.504 37.7445 343.504 34.7056C343.504 31.6668 340.736 29.2034 337.321 29.2034C333.906 29.2034 331.138 31.6668 331.138 34.7056C331.138 37.7445 333.906 40.2079 337.321 40.2079Z" fill="#F54765"/>
<path d="M339.382 58.0902C343.176 58.0902 346.252 55.6268 346.252 52.588C346.252 49.5491 343.176 47.0857 339.382 47.0857C335.588 47.0857 332.512 49.5491 332.512 52.588C332.512 55.6268 335.588 58.0902 339.382 58.0902Z" fill="#F54765"/>
<path d="M338.695 77.3483C342.11 77.3483 344.878 74.8848 344.878 71.846C344.878 68.8072 342.11 66.3438 338.695 66.3438C335.28 66.3438 332.512 68.8072 332.512 71.846C332.512 74.8848 335.28 77.3483 338.695 77.3483Z" fill="#F54765"/>
<path d="M338.695 95.2306C342.11 95.2306 344.878 92.7672 344.878 89.7284C344.878 86.6895 342.11 84.2261 338.695 84.2261C335.28 84.2261 332.512 86.6895 332.512 89.7284C332.512 92.7672 335.28 95.2306 338.695 95.2306Z" fill="#F54765"/>
<path d="M338.695 113.113C342.11 113.113 344.878 110.65 344.878 107.611C344.878 104.572 342.11 102.109 338.695 102.109C335.28 102.109 332.512 104.572 332.512 107.611C332.512 110.65 335.28 113.113 338.695 113.113Z" fill="#F54765"/>
<path d="M333.199 133.747C336.614 133.747 339.382 131.283 339.382 128.244C339.382 125.206 336.614 122.742 333.199 122.742C329.784 122.742 327.016 125.206 327.016 128.244C327.016 131.283 329.784 133.747 333.199 133.747Z" fill="#F54765"/>
<path d="M119.416 30.6C119.651 30.6 119.853 30.6853 120.024 30.856C120.195 31.0267 120.28 31.2293 120.28 31.464V36.328C120.28 36.5627 120.195 36.7653 120.024 36.936C119.853 37.1067 119.651 37.192 119.416 37.192H106.84V39.24H117.336C117.571 39.24 117.773 39.3253 117.944 39.496C118.115 39.6667 118.2 39.8693 118.2 40.104V44.936C118.2 45.1707 118.115 45.3733 117.944 45.544C117.773 45.7147 117.571 45.8 117.336 45.8H106.84V52.136C106.84 52.3707 106.755 52.5733 106.584 52.744C106.413 52.9147 106.211 53 105.976 53H99.064C98.8293 53 98.6267 52.9147 98.456 52.744C98.2853 52.5733 98.2 52.3707 98.2 52.136V31.464C98.2 31.2293 98.2853 31.0267 98.456 30.856C98.6267 30.6853 98.8293 30.6 99.064 30.6H119.416ZM147.852 52.008C147.894 52.0933 147.916 52.1893 147.916 52.296C147.916 52.488 147.841 52.6587 147.692 52.808C147.564 52.936 147.404 53 147.212 53H139.948C139.649 53 139.372 52.9253 139.116 52.776C138.881 52.6267 138.71 52.4347 138.604 52.2L135.788 45.864H133.1V52.136C133.1 52.3707 133.014 52.5733 132.844 52.744C132.673 52.9147 132.47 53 132.236 53H125.324C125.089 53 124.886 52.9147 124.716 52.744C124.545 52.5733 124.46 52.3707 124.46 52.136V31.464C124.46 31.2293 124.545 31.0267 124.716 30.856C124.886 30.6853 125.089 30.6 125.324 30.6H137.772C139.692 30.6 141.366 30.9093 142.796 31.528C144.246 32.1467 145.356 33.0427 146.124 34.216C146.892 35.3893 147.276 36.7653 147.276 38.344C147.276 41.2453 146.156 43.3467 143.916 44.648L147.852 52.008ZM137.1 39.944C137.569 39.944 137.932 39.7947 138.188 39.496C138.444 39.176 138.572 38.7813 138.572 38.312C138.572 37.8427 138.444 37.4373 138.188 37.096C137.953 36.7333 137.59 36.552 137.1 36.552H133.1V39.944H137.1ZM166.047 46.44H171.839C172.074 46.44 172.276 46.5253 172.447 46.696C172.618 46.8667 172.703 47.0693 172.703 47.304V52.136C172.703 52.3707 172.618 52.5733 172.447 52.744C172.276 52.9147 172.074 53 171.839 53H151.551C151.316 53 151.114 52.9147 150.943 52.744C150.772 52.5733 150.687 52.3707 150.687 52.136V47.304C150.687 47.0693 150.772 46.8667 150.943 46.696C151.114 46.5253 151.316 46.44 151.551 46.44H157.407V37.16H151.551C151.316 37.16 151.114 37.0747 150.943 36.904C150.772 36.7333 150.687 36.5307 150.687 36.296V31.464C150.687 31.2293 150.772 31.0267 150.943 30.856C151.114 30.6853 151.316 30.6 151.551 30.6H171.839C172.074 30.6 172.276 30.6853 172.447 30.856C172.618 31.0267 172.703 31.2293 172.703 31.464V36.296C172.703 36.5307 172.618 36.7333 172.447 36.904C172.276 37.0747 172.074 37.16 171.839 37.16H166.047V46.44ZM188.147 30.6C191.752 30.6 194.632 31.3787 196.787 32.936C198.963 34.4933 200.051 36.904 200.051 40.168V43.432C200.051 46.76 198.973 49.192 196.819 50.728C194.685 52.2427 191.795 53 188.147 53H177.939C177.704 53 177.501 52.9147 177.331 52.744C177.16 52.5733 177.075 52.3707 177.075 52.136V31.464C177.075 31.2293 177.16 31.0267 177.331 30.856C177.501 30.6853 177.704 30.6 177.939 30.6H188.147ZM188.307 46.76C189.309 46.76 190.099 46.5253 190.675 46.056C191.272 45.5653 191.571 44.8827 191.571 44.008V39.592C191.571 38.7173 191.272 38.0453 190.675 37.576C190.099 37.0853 189.309 36.84 188.307 36.84H185.395V46.76H188.307ZM210.182 51.912C209.905 52.6373 209.425 53 208.742 53H202.694C202.502 53 202.331 52.936 202.182 52.808C202.054 52.6587 201.99 52.488 201.99 52.296L202.022 52.104L208.998 31.656C209.083 31.3787 209.243 31.1333 209.478 30.92C209.713 30.7067 210.033 30.6 210.438 30.6H219.334C219.739 30.6 220.059 30.7067 220.294 30.92C220.529 31.1333 220.689 31.3787 220.774 31.656L227.75 52.104L227.782 52.296C227.782 52.488 227.707 52.6587 227.558 52.808C227.43 52.936 227.27 53 227.078 53H221.03C220.347 53 219.867 52.6373 219.59 51.912L218.79 49.672H210.982L210.182 51.912ZM214.886 36.776L212.614 43.432H217.158L214.886 36.776ZM253.05 30.6C253.242 30.6 253.402 30.6747 253.53 30.824C253.679 30.952 253.754 31.1013 253.754 31.272C253.754 31.4 253.722 31.528 253.658 31.656L245.594 45V52.136C245.594 52.3707 245.508 52.5733 245.338 52.744C245.167 52.9147 244.964 53 244.73 53H237.914C237.679 53 237.476 52.9147 237.306 52.744C237.135 52.5733 237.05 52.3707 237.05 52.136V45L229.018 31.656C228.954 31.528 228.922 31.4107 228.922 31.304C228.922 31.112 228.986 30.952 229.114 30.824C229.263 30.6747 229.434 30.6 229.626 30.6H236.378C236.975 30.6 237.412 30.8453 237.69 31.336L241.306 37.672L245.018 31.4C245.338 30.8667 245.786 30.6 246.362 30.6H253.05Z" fill="white"/>
</g>
<defs>
<clipPath id="clip0_441_1601">
<rect width="349" height="142" fill="white"/>
</clipPath>
</defs>
</svg>
