<svg width="351" height="143" viewBox="0 0 351 143" fill="none" xmlns="http://www.w3.org/2000/svg">
<g clip-path="url(#clip0_441_1622)">
<path d="M11.5388 141.587L11.525 132.389L11.2209 0H0V141.587L351 143V131.946L11.0551 131.918" fill="#F54765"/>
<path d="M350.654 0.318604L338.562 0.637212L339.419 131.918H351L350.654 0.318604Z" fill="#F54765"/>
<path d="M11.2207 0H350.461L350.682 10.0708H12.6026H11.2483" fill="#F54765"/>
<path d="M14.5095 18.3269C17.9439 18.3269 20.728 15.8461 20.728 12.7859C20.728 9.72567 17.9439 7.24487 14.5095 7.24487C11.0751 7.24487 8.29102 9.72567 8.29102 12.7859C8.29102 15.8461 11.0751 18.3269 14.5095 18.3269Z" fill="#F54765"/>
<path d="M11.7458 37.7205C14.417 37.7205 16.5824 35.5498 16.5824 32.8721C16.5824 30.1944 14.417 28.0237 11.7458 28.0237C9.07461 28.0237 6.90918 30.1944 6.90918 32.8721C6.90918 35.5498 9.07461 37.7205 11.7458 37.7205Z" fill="#F54765"/>
<path d="M11.7458 57.1142C14.417 57.1142 16.5824 54.6334 16.5824 51.5731C16.5824 48.5129 14.417 46.0321 11.7458 46.0321C9.07461 46.0321 6.90918 48.5129 6.90918 51.5731C6.90918 54.6334 9.07461 57.1142 11.7458 57.1142Z" fill="#F54765"/>
<path d="M11.7458 75.1225C14.417 75.1225 16.5824 72.9518 16.5824 70.2741C16.5824 67.5964 14.417 65.4257 11.7458 65.4257C9.07461 65.4257 6.90918 67.5964 6.90918 70.2741C6.90918 72.9518 9.07461 75.1225 11.7458 75.1225Z" fill="#F54765"/>
<path d="M11.7458 93.1308C14.417 93.1308 16.5824 90.9601 16.5824 88.2824C16.5824 85.6047 14.417 83.434 11.7458 83.434C9.07461 83.434 6.90918 85.6047 6.90918 88.2824C6.90918 90.9601 9.07461 93.1308 11.7458 93.1308Z" fill="#F54765"/>
<path d="M12.4367 112.524C14.7263 112.524 16.5824 110.354 16.5824 107.676C16.5824 104.998 14.7263 102.828 12.4367 102.828C10.1471 102.828 8.29102 104.998 8.29102 107.676C8.29102 110.354 10.1471 112.524 12.4367 112.524Z" fill="#F54765"/>
<path d="M14.5096 137.459C18.7072 137.459 22.11 134.358 22.11 130.533C22.11 126.707 18.7072 123.606 14.5096 123.606C10.312 123.606 6.90918 126.707 6.90918 130.533C6.90918 134.358 10.312 137.459 14.5096 137.459Z" fill="#F54765"/>
<path d="M335.108 16.9417C338.543 16.9417 341.327 14.4609 341.327 11.4006C341.327 8.34042 338.543 5.85962 335.108 5.85962C331.674 5.85962 328.89 8.34042 328.89 11.4006C328.89 14.4609 331.674 16.9417 335.108 16.9417Z" fill="#F54765"/>
<path d="M339.254 40.491C342.688 40.491 345.472 38.0102 345.472 34.95C345.472 31.8897 342.688 29.4089 339.254 29.4089C335.819 29.4089 333.035 31.8897 333.035 34.95C333.035 38.0102 335.819 40.491 339.254 40.491Z" fill="#F54765"/>
<path d="M341.326 58.4994C345.142 58.4994 348.236 56.0186 348.236 52.9584C348.236 49.8982 345.142 47.4174 341.326 47.4174C337.51 47.4174 334.417 49.8982 334.417 52.9584C334.417 56.0186 337.51 58.4994 341.326 58.4994Z" fill="#F54765"/>
<path d="M340.635 77.893C344.07 77.893 346.854 75.4122 346.854 72.3519C346.854 69.2917 344.07 66.8109 340.635 66.8109C337.201 66.8109 334.417 69.2917 334.417 72.3519C334.417 75.4122 337.201 77.893 340.635 77.893Z" fill="#F54765"/>
<path d="M340.635 95.9013C344.07 95.9013 346.854 93.4205 346.854 90.3602C346.854 87.3 344.07 84.8192 340.635 84.8192C337.201 84.8192 334.417 87.3 334.417 90.3602C334.417 93.4205 337.201 95.9013 340.635 95.9013Z" fill="#F54765"/>
<path d="M340.635 113.91C344.07 113.91 346.854 111.429 346.854 108.369C346.854 105.308 344.07 102.828 340.635 102.828C337.201 102.828 334.417 105.308 334.417 108.369C334.417 111.429 337.201 113.91 340.635 113.91Z" fill="#F54765"/>
<path d="M335.108 134.688C338.543 134.688 341.327 132.208 341.327 129.147C341.327 126.087 338.543 123.606 335.108 123.606C331.674 123.606 328.89 126.087 328.89 129.147C328.89 132.208 331.674 134.688 335.108 134.688Z" fill="#F54765"/>
<path d="M84.36 38.728C86.7067 38.984 88.584 39.4 89.992 39.976C91.4213 40.552 92.456 41.3093 93.096 42.248C93.736 43.1867 94.056 44.36 94.056 45.768C94.056 47.304 93.5547 48.648 92.552 49.8C91.5707 50.9307 90.2053 51.8053 88.456 52.424C86.7067 53.0213 84.712 53.32 82.472 53.32C79.976 53.32 77.864 53.0107 76.136 52.392C74.408 51.7733 73.1173 50.952 72.264 49.928C71.4107 48.8827 70.984 47.7413 70.984 46.504C70.984 46.2907 71.048 46.12 71.176 45.992C71.3253 45.864 71.5067 45.8 71.72 45.8H78.28C78.728 45.8 79.0907 45.9387 79.368 46.216C79.7307 46.5573 80.136 46.792 80.584 46.92C81.032 47.0267 81.6613 47.08 82.472 47.08C84.4987 47.08 85.512 46.7707 85.512 46.152C85.512 45.896 85.3733 45.6827 85.096 45.512C84.84 45.32 84.3707 45.16 83.688 45.032C83.0267 44.8827 82.0453 44.7333 80.744 44.584C77.8213 44.2427 75.5813 43.5173 74.024 42.408C72.4667 41.2773 71.688 39.688 71.688 37.64C71.688 36.1893 72.1253 34.9093 73 33.8C73.8747 32.6907 75.112 31.8267 76.712 31.208C78.3333 30.5893 80.2107 30.28 82.344 30.28C84.5627 30.28 86.504 30.632 88.168 31.336C89.832 32.0187 91.1013 32.872 91.976 33.896C92.8507 34.92 93.288 35.9227 93.288 36.904C93.288 37.1173 93.2133 37.288 93.064 37.416C92.936 37.544 92.7547 37.608 92.52 37.608H85.64C85.2773 37.608 84.9467 37.48 84.648 37.224C84.4133 37.0107 84.136 36.84 83.816 36.712C83.496 36.584 83.0053 36.52 82.344 36.52C80.9147 36.52 80.2 36.8187 80.2 37.416C80.2 37.736 80.4773 37.992 81.032 38.184C81.5867 38.3547 82.696 38.536 84.36 38.728ZM104.54 51.912C104.262 52.6373 103.782 53 103.1 53H97.0515C96.8595 53 96.6888 52.936 96.5395 52.808C96.4115 52.6587 96.3475 52.488 96.3475 52.296L96.3795 52.104L103.356 31.656C103.441 31.3787 103.601 31.1333 103.836 30.92C104.07 30.7067 104.39 30.6 104.796 30.6H113.692C114.097 30.6 114.417 30.7067 114.652 30.92C114.886 31.1333 115.046 31.3787 115.132 31.656L122.108 52.104L122.14 52.296C122.14 52.488 122.065 52.6587 121.916 52.808C121.788 52.936 121.628 53 121.436 53H115.388C114.705 53 114.225 52.6373 113.948 51.912L113.148 49.672H105.34L104.54 51.912ZM109.244 36.776L106.972 43.432H111.516L109.244 36.776ZM146.735 30.6C146.97 30.6 147.172 30.6853 147.343 30.856C147.514 31.0267 147.599 31.2293 147.599 31.464V36.616C147.599 36.8507 147.514 37.0533 147.343 37.224C147.172 37.3947 146.97 37.48 146.735 37.48H139.855V52.136C139.855 52.3707 139.77 52.5733 139.599 52.744C139.428 52.9147 139.226 53 138.991 53H132.399C132.164 53 131.962 52.9147 131.791 52.744C131.62 52.5733 131.535 52.3707 131.535 52.136V37.48H124.655C124.42 37.48 124.218 37.3947 124.047 37.224C123.876 37.0533 123.791 36.8507 123.791 36.616V31.464C123.791 31.2293 123.876 31.0267 124.047 30.856C124.218 30.6853 124.42 30.6 124.655 30.6H146.735ZM162.243 53.32C158.659 53.32 155.811 52.5413 153.699 50.984C151.608 49.4267 150.563 46.9947 150.563 43.688V31.464C150.563 31.2293 150.648 31.0267 150.819 30.856C150.989 30.6853 151.192 30.6 151.427 30.6H158.115C158.349 30.6 158.552 30.6853 158.723 30.856C158.893 31.0267 158.979 31.2293 158.979 31.464V44.2C158.979 45.0747 159.267 45.7467 159.843 46.216C160.44 46.6853 161.24 46.92 162.243 46.92C163.245 46.92 164.035 46.6853 164.611 46.216C165.208 45.7467 165.507 45.0747 165.507 44.2V31.464C165.507 31.2293 165.592 31.0267 165.763 30.856C165.933 30.6853 166.136 30.6 166.371 30.6H173.059C173.293 30.6 173.496 30.6853 173.667 30.856C173.837 31.0267 173.923 31.2293 173.923 31.464V43.688C173.923 46.9947 172.867 49.4267 170.755 50.984C168.664 52.5413 165.827 53.32 162.243 53.32ZM201.494 52.008C201.537 52.0933 201.558 52.1893 201.558 52.296C201.558 52.488 201.483 52.6587 201.334 52.808C201.206 52.936 201.046 53 200.854 53H193.59C193.291 53 193.014 52.9253 192.758 52.776C192.523 52.6267 192.353 52.4347 192.246 52.2L189.43 45.864H186.742V52.136C186.742 52.3707 186.657 52.5733 186.486 52.744C186.315 52.9147 186.113 53 185.878 53H178.966C178.731 53 178.529 52.9147 178.358 52.744C178.187 52.5733 178.102 52.3707 178.102 52.136V31.464C178.102 31.2293 178.187 31.0267 178.358 30.856C178.529 30.6853 178.731 30.6 178.966 30.6H191.414C193.334 30.6 195.009 30.9093 196.438 31.528C197.889 32.1467 198.998 33.0427 199.766 34.216C200.534 35.3893 200.918 36.7653 200.918 38.344C200.918 41.2453 199.798 43.3467 197.558 44.648L201.494 52.008ZM190.742 39.944C191.211 39.944 191.574 39.7947 191.83 39.496C192.086 39.176 192.214 38.7813 192.214 38.312C192.214 37.8427 192.086 37.4373 191.83 37.096C191.595 36.7333 191.233 36.552 190.742 36.552H186.742V39.944H190.742ZM215.242 30.6C218.847 30.6 221.727 31.3787 223.882 32.936C226.058 34.4933 227.146 36.904 227.146 40.168V43.432C227.146 46.76 226.068 49.192 223.914 50.728C221.78 52.2427 218.89 53 215.242 53H205.034C204.799 53 204.596 52.9147 204.426 52.744C204.255 52.5733 204.17 52.3707 204.17 52.136V31.464C204.17 31.2293 204.255 31.0267 204.426 30.856C204.596 30.6853 204.799 30.6 205.034 30.6H215.242ZM215.402 46.76C216.404 46.76 217.194 46.5253 217.77 46.056C218.367 45.5653 218.666 44.8827 218.666 44.008V39.592C218.666 38.7173 218.367 38.0453 217.77 37.576C217.194 37.0853 216.404 36.84 215.402 36.84H212.49V46.76H215.402ZM237.277 51.912C237 52.6373 236.52 53 235.837 53H229.789C229.597 53 229.426 52.936 229.277 52.808C229.149 52.6587 229.085 52.488 229.085 52.296L229.117 52.104L236.093 31.656C236.178 31.3787 236.338 31.1333 236.573 30.92C236.808 30.7067 237.128 30.6 237.533 30.6H246.429C246.834 30.6 247.154 30.7067 247.389 30.92C247.624 31.1333 247.784 31.3787 247.869 31.656L254.845 52.104L254.877 52.296C254.877 52.488 254.802 52.6587 254.653 52.808C254.525 52.936 254.365 53 254.173 53H248.125C247.442 53 246.962 52.6373 246.685 51.912L245.885 49.672H238.077L237.277 51.912ZM241.981 36.776L239.709 43.432H244.253L241.981 36.776ZM280.145 30.6C280.337 30.6 280.497 30.6747 280.625 30.824C280.774 30.952 280.849 31.1013 280.849 31.272C280.849 31.4 280.817 31.528 280.753 31.656L272.689 45V52.136C272.689 52.3707 272.603 52.5733 272.433 52.744C272.262 52.9147 272.059 53 271.825 53H265.009C264.774 53 264.571 52.9147 264.401 52.744C264.23 52.5733 264.145 52.3707 264.145 52.136V45L256.113 31.656C256.049 31.528 256.017 31.4107 256.017 31.304C256.017 31.112 256.081 30.952 256.209 30.824C256.358 30.6747 256.529 30.6 256.721 30.6H263.473C264.07 30.6 264.507 30.8453 264.785 31.336L268.401 37.672L272.113 31.4C272.433 30.8667 272.881 30.6 273.457 30.6H280.145Z" fill="white"/>
</g>
<defs>
<clipPath id="clip0_441_1622">
<rect width="351" height="143" fill="white"/>
</clipPath>
</defs>
</svg>
